M48
; DRILL file {KiCad 6.0.2+dfsg-1} date Mi 19 Apr 2023 16:51:05 CEST
; FORMAT={-:-/ absolute / inch / decimal}
; #@! TF.CreationDate,2023-04-19T16:51:05+02:00
; #@! TF.GenerationSoftware,Kicad,Pcbnew,6.0.2+dfsg-1
; #@! TF.FileFunction,NonPlated,1,2,NPTH
FMAT,2
INCH
; #@! TA.AperFunction,NonPlated,NPTH,ComponentDrill
T1C0.0354
; #@! TA.AperFunction,NonPlated,NPTH,ComponentDrill
T2C0.0670
; #@! TA.AperFunction,NonPlated,NPTH,ComponentDrill
T3C0.0866
; #@! TA.AperFunction,NonPlated,NPTH,ComponentDrill
T4C0.1181
; #@! TA.AperFunction,NonPlated,NPTH,ComponentDrill
T5C0.1570
; #@! TA.AperFunction,NonPlated,NPTH,ComponentDrill
T6C0.1575
%
G90
G05
T1
X4.8909Y-0.912
X5.0091Y-0.912
T2
X1.0Y-1.2
X1.0Y-1.95
X1.0Y-2.7
X1.4Y-1.2
X1.4Y-1.95
X1.4Y-2.7
X1.75Y-1.2
X1.75Y-1.95
X1.75Y-2.7
X2.15Y-1.2
X2.15Y-1.95
X2.15Y-2.7
X2.5Y-1.2
X2.5Y-1.95
X2.5Y-2.7
X2.875Y-3.45
X2.9Y-1.2
X2.9Y-1.95
X2.9Y-2.7
X3.25Y-1.2
X3.25Y-1.95
X3.25Y-2.7
X3.275Y-3.45
X3.625Y-3.45
X3.65Y-1.2
X3.65Y-1.95
X3.65Y-2.7
X4.0Y-1.2
X4.0Y-1.95
X4.0Y-2.7
X4.025Y-3.45
X4.375Y-3.45
X4.4Y-1.2
X4.4Y-1.95
X4.4Y-2.7
X4.775Y-3.45
X5.125Y-3.45
X5.5Y-1.2
X5.5Y-1.95
X5.5Y-2.7
X5.525Y-3.45
X5.875Y-3.45
X5.9Y-1.2
X5.9Y-1.95
X5.9Y-2.7
X6.25Y-1.2
X6.25Y-1.95
X6.25Y-2.7
X6.275Y-3.45
X6.625Y-3.45
X6.65Y-1.2
X6.65Y-1.95
X6.65Y-2.7
X7.0Y-1.2
X7.0Y-1.95
X7.0Y-2.7
X7.025Y-3.45
X7.4Y-1.2
X7.4Y-1.95
X7.4Y-2.7
X7.75Y-1.2
X7.75Y-1.95
X7.75Y-2.7
X8.15Y-1.2
X8.15Y-1.95
X8.15Y-2.7
X8.5Y-1.2
X8.5Y-1.95
X8.5Y-2.7
X8.9Y-1.2
X8.9Y-1.95
X8.9Y-2.7
T3
X4.7Y-2.5
X5.2Y-2.5
T4
X1.05Y-1.1
X1.05Y-1.85
X1.05Y-2.6
X1.3Y-1.0
X1.3Y-1.75
X1.3Y-2.5
X1.8Y-1.1
X1.8Y-1.85
X1.8Y-2.6
X2.05Y-1.0
X2.05Y-1.75
X2.05Y-2.5
X2.55Y-1.1
X2.55Y-1.85
X2.55Y-2.6
X2.8Y-1.0
X2.8Y-1.75
X2.8Y-2.5
X2.925Y-3.35
X3.175Y-3.25
X3.3Y-1.1
X3.3Y-1.85
X3.3Y-2.6
X3.55Y-1.0
X3.55Y-1.75
X3.55Y-2.5
X3.675Y-3.35
X3.925Y-3.25
X4.05Y-1.1
X4.05Y-1.85
X4.05Y-2.6
X4.3Y-1.0
X4.3Y-1.75
X4.3Y-2.5
X4.425Y-3.35
X4.675Y-3.25
X5.175Y-3.35
X5.425Y-3.25
X5.55Y-1.1
X5.55Y-1.85
X5.55Y-2.6
X5.8Y-1.0
X5.8Y-1.75
X5.8Y-2.5
X5.925Y-3.35
X6.175Y-3.25
X6.3Y-1.1
X6.3Y-1.85
X6.3Y-2.6
X6.55Y-1.0
X6.55Y-1.75
X6.55Y-2.5
X6.675Y-3.35
X6.925Y-3.25
X7.05Y-1.1
X7.05Y-1.85
X7.05Y-2.6
X7.3Y-1.0
X7.3Y-1.75
X7.3Y-2.5
X7.8Y-1.1
X7.8Y-1.85
X7.8Y-2.6
X8.05Y-1.0
X8.05Y-1.75
X8.05Y-2.5
X8.55Y-1.1
X8.55Y-1.85
X8.55Y-2.6
X8.8Y-1.0
X8.8Y-1.75
X8.8Y-2.5
T5
X1.2Y-1.2
X1.2Y-1.95
X1.2Y-2.7
X1.95Y-1.2
X1.95Y-1.95
X1.95Y-2.7
X2.7Y-1.2
X2.7Y-1.95
X2.7Y-2.7
X3.075Y-3.45
X3.45Y-1.2
X3.45Y-1.95
X3.45Y-2.7
X3.825Y-3.45
X4.2Y-1.2
X4.2Y-1.95
X4.2Y-2.7
X4.575Y-3.45
X5.325Y-3.45
X5.7Y-1.2
X5.7Y-1.95
X5.7Y-2.7
X6.075Y-3.45
X6.45Y-1.2
X6.45Y-1.95
X6.45Y-2.7
X6.825Y-3.45
X7.2Y-1.2
X7.2Y-1.95
X7.2Y-2.7
X7.95Y-1.2
X7.95Y-1.95
X7.95Y-2.7
X8.7Y-1.2
X8.7Y-1.95
X8.7Y-2.7
T6
X1.575Y-1.575
X1.575Y-2.325
X3.45Y-3.075
X3.825Y-1.575
X6.075Y-1.575
X6.45Y-3.075
X8.325Y-1.575
X8.325Y-2.325
T0
M30
