%TF.GenerationSoftware,KiCad,Pcbnew,6.0.2+dfsg-1*%
%TF.CreationDate,2023-04-19T16:50:57+02:00*%
%TF.ProjectId,lancer-hotswap,6c616e63-6572-42d6-986f-74737761702e,rev?*%
%TF.SameCoordinates,Original*%
%TF.FileFunction,Paste,Bot*%
%TF.FilePolarity,Positive*%
%FSLAX46Y46*%
G04 Gerber Fmt 4.6, Leading zero omitted, Abs format (unit mm)*
G04 Created by KiCad (PCBNEW 6.0.2+dfsg-1) date 2023-04-19 16:50:57*
%MOMM*%
%LPD*%
G01*
G04 APERTURE LIST*
G04 Aperture macros list*
%AMRoundRect*
0 Rectangle with rounded corners*
0 $1 Rounding radius*
0 $2 $3 $4 $5 $6 $7 $8 $9 X,Y pos of 4 corners*
0 Add a 4 corners polygon primitive as box body*
4,1,4,$2,$3,$4,$5,$6,$7,$8,$9,$2,$3,0*
0 Add four circle primitives for the rounded corners*
1,1,$1+$1,$2,$3*
1,1,$1+$1,$4,$5*
1,1,$1+$1,$6,$7*
1,1,$1+$1,$8,$9*
0 Add four rect primitives between the rounded corners*
20,1,$1+$1,$2,$3,$4,$5,0*
20,1,$1+$1,$4,$5,$6,$7,0*
20,1,$1+$1,$6,$7,$8,$9,0*
20,1,$1+$1,$8,$9,$2,$3,0*%
G04 Aperture macros list end*
%ADD10RoundRect,0.200000X-1.075000X-1.050000X1.075000X-1.050000X1.075000X1.050000X-1.075000X1.050000X0*%
%ADD11R,1.400000X1.000000*%
%ADD12R,1.000000X0.800000*%
%ADD13R,0.700000X1.500000*%
G04 APERTURE END LIST*
D10*
%TO.C,SW10*%
X213895000Y-27940000D03*
X226822000Y-25400000D03*
%TD*%
%TO.C,SW15*%
X99595000Y-46990000D03*
X112522000Y-44450000D03*
%TD*%
%TO.C,SW19*%
X194845000Y-46990000D03*
X207772000Y-44450000D03*
%TD*%
%TO.C,SW18*%
X175795000Y-46990000D03*
X188722000Y-44450000D03*
%TD*%
%TO.C,SW35*%
X147220000Y-85090000D03*
X160147000Y-82550000D03*
%TD*%
%TO.C,SW31*%
X71020000Y-85090000D03*
X83947000Y-82550000D03*
%TD*%
%TO.C,SW27*%
X156745000Y-66040000D03*
X169672000Y-63500000D03*
%TD*%
%TO.C,SW8*%
X175795000Y-27940000D03*
X188722000Y-25400000D03*
%TD*%
%TO.C,SW16*%
X137695000Y-46990000D03*
X150622000Y-44450000D03*
%TD*%
%TO.C,SW13*%
X61495000Y-46990000D03*
X74422000Y-44450000D03*
%TD*%
%TO.C,SW21*%
X23395000Y-66040000D03*
X36322000Y-63500000D03*
%TD*%
%TO.C,SW14*%
X80545000Y-46990000D03*
X93472000Y-44450000D03*
%TD*%
%TO.C,SW32*%
X90070000Y-85090000D03*
X102997000Y-82550000D03*
%TD*%
%TO.C,SW1*%
X23395000Y-27940000D03*
X36322000Y-25400000D03*
%TD*%
%TO.C,SW24*%
X80545000Y-66040000D03*
X93472000Y-63500000D03*
%TD*%
%TO.C,SW23*%
X61495000Y-66040000D03*
X74422000Y-63500000D03*
%TD*%
%TO.C,SW9*%
X194845000Y-27940000D03*
X207772000Y-25400000D03*
%TD*%
%TO.C,SW30*%
X213895000Y-66040000D03*
X226822000Y-63500000D03*
%TD*%
%TO.C,SW34*%
X128170000Y-85090000D03*
X141097000Y-82550000D03*
%TD*%
%TO.C,SW20*%
X213895000Y-46990000D03*
X226822000Y-44450000D03*
%TD*%
%TO.C,SW26*%
X137695000Y-66040000D03*
X150622000Y-63500000D03*
%TD*%
%TO.C,SW25*%
X99595000Y-66040000D03*
X112522000Y-63500000D03*
%TD*%
%TO.C,SW29*%
X194845000Y-66040000D03*
X207772000Y-63500000D03*
%TD*%
%TO.C,SW4*%
X80545000Y-27940000D03*
X93472000Y-25400000D03*
%TD*%
%TO.C,SW36*%
X166270000Y-85090000D03*
X179197000Y-82550000D03*
%TD*%
%TO.C,SW22*%
X42445000Y-66040000D03*
X55372000Y-63500000D03*
%TD*%
%TO.C,SW5*%
X99595000Y-27940000D03*
X112522000Y-25400000D03*
%TD*%
%TO.C,SW7*%
X156745000Y-27940000D03*
X169672000Y-25400000D03*
%TD*%
%TO.C,SW2*%
X42445000Y-27940000D03*
X55372000Y-25400000D03*
%TD*%
%TO.C,SW3*%
X61495000Y-27940000D03*
X74422000Y-25400000D03*
%TD*%
%TO.C,SW17*%
X156745000Y-46990000D03*
X169672000Y-44450000D03*
%TD*%
%TO.C,SW11*%
X23395000Y-46990000D03*
X36322000Y-44450000D03*
%TD*%
%TO.C,SW12*%
X42445000Y-46990000D03*
X55372000Y-44450000D03*
%TD*%
%TO.C,SW33*%
X109120000Y-85090000D03*
X122047000Y-82550000D03*
%TD*%
%TO.C,SW28*%
X175795000Y-66040000D03*
X188722000Y-63500000D03*
%TD*%
%TO.C,SW6*%
X137695000Y-27940000D03*
X150622000Y-25400000D03*
%TD*%
D11*
%TO.C,D2*%
X51305000Y-35560000D03*
X47755000Y-35560000D03*
%TD*%
%TO.C,D32*%
X98930000Y-92710000D03*
X95380000Y-92710000D03*
%TD*%
%TO.C,D34*%
X133480000Y-92710000D03*
X137030000Y-92710000D03*
%TD*%
%TO.C,D20*%
X219205000Y-54610000D03*
X222755000Y-54610000D03*
%TD*%
%TO.C,D30*%
X219205000Y-73660000D03*
X222755000Y-73660000D03*
%TD*%
%TO.C,D8*%
X181105000Y-35560000D03*
X184655000Y-35560000D03*
%TD*%
%TO.C,D4*%
X89405000Y-35560000D03*
X85855000Y-35560000D03*
%TD*%
%TO.C,D11*%
X32255000Y-54610000D03*
X28705000Y-54610000D03*
%TD*%
%TO.C,D7*%
X162055000Y-35560000D03*
X165605000Y-35560000D03*
%TD*%
%TO.C,D29*%
X200155000Y-73660000D03*
X203705000Y-73660000D03*
%TD*%
%TO.C,D3*%
X70355000Y-35560000D03*
X66805000Y-35560000D03*
%TD*%
%TO.C,D23*%
X70355000Y-73660000D03*
X66805000Y-73660000D03*
%TD*%
%TO.C,D27*%
X162055000Y-73660000D03*
X165605000Y-73660000D03*
%TD*%
%TO.C,D1*%
X32255000Y-35560000D03*
X28705000Y-35560000D03*
%TD*%
%TO.C,D9*%
X200155000Y-35560000D03*
X203705000Y-35560000D03*
%TD*%
%TO.C,D28*%
X181105000Y-73660000D03*
X184655000Y-73660000D03*
%TD*%
%TO.C,D16*%
X143005000Y-54610000D03*
X146555000Y-54610000D03*
%TD*%
%TO.C,D35*%
X152530000Y-92710000D03*
X156080000Y-92710000D03*
%TD*%
D12*
%TO.C,SW37*%
X122080000Y-24275000D03*
X122080000Y-22065000D03*
X129380000Y-24275000D03*
X129380000Y-22065000D03*
D13*
X123480000Y-24925000D03*
X126480000Y-24925000D03*
X127980000Y-24925000D03*
%TD*%
D11*
%TO.C,D18*%
X181105000Y-54610000D03*
X184655000Y-54610000D03*
%TD*%
%TO.C,D33*%
X117980000Y-92710000D03*
X114430000Y-92710000D03*
%TD*%
%TO.C,D6*%
X143005000Y-35560000D03*
X146555000Y-35560000D03*
%TD*%
%TO.C,D36*%
X171580000Y-92710000D03*
X175130000Y-92710000D03*
%TD*%
%TO.C,D17*%
X162055000Y-54610000D03*
X165605000Y-54610000D03*
%TD*%
%TO.C,D5*%
X108455000Y-35560000D03*
X104905000Y-35560000D03*
%TD*%
%TO.C,D21*%
X32255000Y-73660000D03*
X28705000Y-73660000D03*
%TD*%
%TO.C,D12*%
X51305000Y-54610000D03*
X47755000Y-54610000D03*
%TD*%
%TO.C,D10*%
X219205000Y-35560000D03*
X222755000Y-35560000D03*
%TD*%
%TO.C,D26*%
X143005000Y-73660000D03*
X146555000Y-73660000D03*
%TD*%
%TO.C,D25*%
X108455000Y-73660000D03*
X104905000Y-73660000D03*
%TD*%
%TO.C,D19*%
X200155000Y-54610000D03*
X203705000Y-54610000D03*
%TD*%
%TO.C,D13*%
X70355000Y-54610000D03*
X66805000Y-54610000D03*
%TD*%
%TO.C,D22*%
X51305000Y-73660000D03*
X47755000Y-73660000D03*
%TD*%
%TO.C,D15*%
X108455000Y-54610000D03*
X104905000Y-54610000D03*
%TD*%
%TO.C,D14*%
X89405000Y-54610000D03*
X85855000Y-54610000D03*
%TD*%
%TO.C,D31*%
X79880000Y-92710000D03*
X76330000Y-92710000D03*
%TD*%
%TO.C,D24*%
X89405000Y-73660000D03*
X85855000Y-73660000D03*
%TD*%
M02*
