%TF.GenerationSoftware,KiCad,Pcbnew,6.0.2+dfsg-1*%
%TF.CreationDate,2023-04-19T16:50:57+02:00*%
%TF.ProjectId,lancer-hotswap,6c616e63-6572-42d6-986f-74737761702e,rev?*%
%TF.SameCoordinates,Original*%
%TF.FileFunction,Soldermask,Top*%
%TF.FilePolarity,Negative*%
%FSLAX46Y46*%
G04 Gerber Fmt 4.6, Leading zero omitted, Abs format (unit mm)*
G04 Created by KiCad (PCBNEW 6.0.2+dfsg-1) date 2023-04-19 16:50:57*
%MOMM*%
%LPD*%
G01*
G04 APERTURE LIST*
%ADD10C,3.000000*%
%ADD11C,3.987800*%
%ADD12C,1.701800*%
%ADD13C,4.000000*%
%ADD14C,2.200000*%
%ADD15C,1.524000*%
%ADD16C,0.900000*%
G04 APERTURE END LIST*
D10*
%TO.C,SW10*%
X223520000Y-25400000D03*
X217170000Y-27940000D03*
D11*
X220980000Y-30480000D03*
D12*
X215900000Y-30480000D03*
X226060000Y-30480000D03*
%TD*%
D13*
%TO.C,H7*%
X87630000Y-78105000D03*
%TD*%
%TO.C,H1*%
X40005000Y-40005000D03*
%TD*%
D12*
%TO.C,SW15*%
X111760000Y-49530000D03*
X101600000Y-49530000D03*
D10*
X109220000Y-44450000D03*
X102870000Y-46990000D03*
D11*
X106680000Y-49530000D03*
%TD*%
D10*
%TO.C,SW19*%
X198120000Y-46990000D03*
D12*
X207010000Y-49530000D03*
X196850000Y-49530000D03*
D11*
X201930000Y-49530000D03*
D10*
X204470000Y-44450000D03*
%TD*%
%TO.C,SW18*%
X179070000Y-46990000D03*
D12*
X187960000Y-49530000D03*
D11*
X182880000Y-49530000D03*
D12*
X177800000Y-49530000D03*
D10*
X185420000Y-44450000D03*
%TD*%
D13*
%TO.C,H5*%
X40005000Y-59055000D03*
%TD*%
D10*
%TO.C,SW35*%
X150495000Y-85090000D03*
D11*
X154305000Y-87630000D03*
D10*
X156845000Y-82550000D03*
D12*
X159385000Y-87630000D03*
X149225000Y-87630000D03*
%TD*%
D10*
%TO.C,SW31*%
X74295000Y-85090000D03*
D12*
X73025000Y-87630000D03*
D10*
X80645000Y-82550000D03*
D11*
X78105000Y-87630000D03*
D12*
X83185000Y-87630000D03*
%TD*%
D10*
%TO.C,SW27*%
X166370000Y-63500000D03*
X160020000Y-66040000D03*
D12*
X168910000Y-68580000D03*
X158750000Y-68580000D03*
D11*
X163830000Y-68580000D03*
%TD*%
D10*
%TO.C,SW8*%
X179070000Y-27940000D03*
D12*
X177800000Y-30480000D03*
X187960000Y-30480000D03*
D11*
X182880000Y-30480000D03*
D10*
X185420000Y-25400000D03*
%TD*%
D14*
%TO.C,H10*%
X132080000Y-63500000D03*
%TD*%
D15*
%TO.C,H11*%
X120015000Y-22225000D03*
%TD*%
D10*
%TO.C,SW16*%
X147320000Y-44450000D03*
D12*
X149860000Y-49530000D03*
D11*
X144780000Y-49530000D03*
D12*
X139700000Y-49530000D03*
D10*
X140970000Y-46990000D03*
%TD*%
D11*
%TO.C,SW13*%
X68580000Y-49530000D03*
D12*
X73660000Y-49530000D03*
D10*
X64770000Y-46990000D03*
D12*
X63500000Y-49530000D03*
D10*
X71120000Y-44450000D03*
%TD*%
D12*
%TO.C,SW21*%
X25400000Y-68580000D03*
D10*
X26670000Y-66040000D03*
X33020000Y-63500000D03*
D12*
X35560000Y-68580000D03*
D11*
X30480000Y-68580000D03*
%TD*%
%TO.C,SW14*%
X87630000Y-49530000D03*
D10*
X90170000Y-44450000D03*
D12*
X82550000Y-49530000D03*
D10*
X83820000Y-46990000D03*
D12*
X92710000Y-49530000D03*
%TD*%
D11*
%TO.C,SW32*%
X97155000Y-87630000D03*
D10*
X93345000Y-85090000D03*
X99695000Y-82550000D03*
D12*
X92075000Y-87630000D03*
X102235000Y-87630000D03*
%TD*%
%TO.C,SW1*%
X35560000Y-30480000D03*
D11*
X30480000Y-30480000D03*
D10*
X33020000Y-25400000D03*
X26670000Y-27940000D03*
D12*
X25400000Y-30480000D03*
%TD*%
D10*
%TO.C,SW24*%
X90170000Y-63500000D03*
D12*
X92710000Y-68580000D03*
D10*
X83820000Y-66040000D03*
D12*
X82550000Y-68580000D03*
D11*
X87630000Y-68580000D03*
%TD*%
D14*
%TO.C,H9*%
X119380000Y-63500000D03*
%TD*%
D12*
%TO.C,SW23*%
X73660000Y-68580000D03*
D10*
X71120000Y-63500000D03*
X64770000Y-66040000D03*
D11*
X68580000Y-68580000D03*
D12*
X63500000Y-68580000D03*
%TD*%
D10*
%TO.C,SW9*%
X198120000Y-27940000D03*
X204470000Y-25400000D03*
D11*
X201930000Y-30480000D03*
D12*
X196850000Y-30480000D03*
X207010000Y-30480000D03*
%TD*%
D11*
%TO.C,SW30*%
X220980000Y-68580000D03*
D10*
X217170000Y-66040000D03*
X223520000Y-63500000D03*
D12*
X226060000Y-68580000D03*
X215900000Y-68580000D03*
%TD*%
D10*
%TO.C,SW34*%
X131445000Y-85090000D03*
D12*
X130175000Y-87630000D03*
D11*
X135255000Y-87630000D03*
D10*
X137795000Y-82550000D03*
D12*
X140335000Y-87630000D03*
%TD*%
D10*
%TO.C,SW20*%
X223520000Y-44450000D03*
X217170000Y-46990000D03*
D12*
X215900000Y-49530000D03*
D11*
X220980000Y-49530000D03*
D12*
X226060000Y-49530000D03*
%TD*%
D10*
%TO.C,SW26*%
X147320000Y-63500000D03*
D12*
X139700000Y-68580000D03*
D10*
X140970000Y-66040000D03*
D12*
X149860000Y-68580000D03*
D11*
X144780000Y-68580000D03*
%TD*%
D10*
%TO.C,SW25*%
X102870000Y-66040000D03*
D11*
X106680000Y-68580000D03*
D12*
X101600000Y-68580000D03*
D10*
X109220000Y-63500000D03*
D12*
X111760000Y-68580000D03*
%TD*%
D13*
%TO.C,H8*%
X163830000Y-78105000D03*
%TD*%
D12*
%TO.C,SW29*%
X196850000Y-68580000D03*
D10*
X198120000Y-66040000D03*
D12*
X207010000Y-68580000D03*
D11*
X201930000Y-68580000D03*
D10*
X204470000Y-63500000D03*
%TD*%
D13*
%TO.C,H4*%
X211455000Y-40005000D03*
%TD*%
D12*
%TO.C,SW4*%
X92710000Y-30480000D03*
D10*
X83820000Y-27940000D03*
D12*
X82550000Y-30480000D03*
D10*
X90170000Y-25400000D03*
D11*
X87630000Y-30480000D03*
%TD*%
D10*
%TO.C,SW36*%
X175895000Y-82550000D03*
D11*
X173355000Y-87630000D03*
D10*
X169545000Y-85090000D03*
D12*
X168275000Y-87630000D03*
X178435000Y-87630000D03*
%TD*%
D13*
%TO.C,H2*%
X97155000Y-40005000D03*
%TD*%
D12*
%TO.C,SW22*%
X54610000Y-68580000D03*
D10*
X45720000Y-66040000D03*
D11*
X49530000Y-68580000D03*
D10*
X52070000Y-63500000D03*
D12*
X44450000Y-68580000D03*
%TD*%
D13*
%TO.C,H6*%
X211455000Y-59055000D03*
%TD*%
D12*
%TO.C,SW5*%
X101600000Y-30480000D03*
D11*
X106680000Y-30480000D03*
D12*
X111760000Y-30480000D03*
D10*
X109220000Y-25400000D03*
X102870000Y-27940000D03*
%TD*%
D13*
%TO.C,H3*%
X154305000Y-40005000D03*
%TD*%
D10*
%TO.C,SW7*%
X160020000Y-27940000D03*
D12*
X168910000Y-30480000D03*
X158750000Y-30480000D03*
D10*
X166370000Y-25400000D03*
D11*
X163830000Y-30480000D03*
%TD*%
%TO.C,SW2*%
X49530000Y-30480000D03*
D12*
X44450000Y-30480000D03*
X54610000Y-30480000D03*
D10*
X45720000Y-27940000D03*
X52070000Y-25400000D03*
%TD*%
D15*
%TO.C,H12*%
X131445000Y-22225000D03*
%TD*%
D10*
%TO.C,SW3*%
X71120000Y-25400000D03*
D12*
X63500000Y-30480000D03*
D10*
X64770000Y-27940000D03*
D11*
X68580000Y-30480000D03*
D12*
X73660000Y-30480000D03*
%TD*%
%TO.C,SW17*%
X168910000Y-49530000D03*
D11*
X163830000Y-49530000D03*
D12*
X158750000Y-49530000D03*
D10*
X160020000Y-46990000D03*
X166370000Y-44450000D03*
%TD*%
D12*
%TO.C,SW11*%
X25400000Y-49530000D03*
D10*
X33020000Y-44450000D03*
X26670000Y-46990000D03*
D11*
X30480000Y-49530000D03*
D12*
X35560000Y-49530000D03*
%TD*%
D10*
%TO.C,SW12*%
X45720000Y-46990000D03*
X52070000Y-44450000D03*
D12*
X54610000Y-49530000D03*
D11*
X49530000Y-49530000D03*
D12*
X44450000Y-49530000D03*
%TD*%
%TO.C,SW33*%
X121285000Y-87630000D03*
D10*
X112395000Y-85090000D03*
D11*
X116205000Y-87630000D03*
D10*
X118745000Y-82550000D03*
D12*
X111125000Y-87630000D03*
%TD*%
%TO.C,SW28*%
X187960000Y-68580000D03*
D10*
X179070000Y-66040000D03*
X185420000Y-63500000D03*
D12*
X177800000Y-68580000D03*
D11*
X182880000Y-68580000D03*
%TD*%
D10*
%TO.C,SW6*%
X140970000Y-27940000D03*
D11*
X144780000Y-30480000D03*
D12*
X139700000Y-30480000D03*
D10*
X147320000Y-25400000D03*
D12*
X149860000Y-30480000D03*
%TD*%
D16*
%TO.C,SW37*%
X127230000Y-23165000D03*
X124230000Y-23165000D03*
%TD*%
M02*
