%TF.GenerationSoftware,KiCad,Pcbnew,6.0.2+dfsg-1*%
%TF.CreationDate,2023-04-19T16:50:57+02:00*%
%TF.ProjectId,lancer-hotswap,6c616e63-6572-42d6-986f-74737761702e,rev?*%
%TF.SameCoordinates,Original*%
%TF.FileFunction,Legend,Bot*%
%TF.FilePolarity,Positive*%
%FSLAX46Y46*%
G04 Gerber Fmt 4.6, Leading zero omitted, Abs format (unit mm)*
G04 Created by KiCad (PCBNEW 6.0.2+dfsg-1) date 2023-04-19 16:50:57*
%MOMM*%
%LPD*%
G01*
G04 APERTURE LIST*
G04 Aperture macros list*
%AMRoundRect*
0 Rectangle with rounded corners*
0 $1 Rounding radius*
0 $2 $3 $4 $5 $6 $7 $8 $9 X,Y pos of 4 corners*
0 Add a 4 corners polygon primitive as box body*
4,1,4,$2,$3,$4,$5,$6,$7,$8,$9,$2,$3,0*
0 Add four circle primitives for the rounded corners*
1,1,$1+$1,$2,$3*
1,1,$1+$1,$4,$5*
1,1,$1+$1,$6,$7*
1,1,$1+$1,$8,$9*
0 Add four rect primitives between the rounded corners*
20,1,$1+$1,$2,$3,$4,$5,0*
20,1,$1+$1,$4,$5,$6,$7,0*
20,1,$1+$1,$6,$7,$8,$9,0*
20,1,$1+$1,$8,$9,$2,$3,0*%
G04 Aperture macros list end*
%ADD10C,0.300000*%
%ADD11C,0.150000*%
%ADD12C,0.100000*%
%ADD13C,0.120000*%
%ADD14C,3.000000*%
%ADD15C,3.987800*%
%ADD16C,1.701800*%
%ADD17RoundRect,0.200000X-1.075000X-1.050000X1.075000X-1.050000X1.075000X1.050000X-1.075000X1.050000X0*%
%ADD18C,4.000000*%
%ADD19C,1.524000*%
%ADD20C,2.200000*%
%ADD21C,2.000000*%
%ADD22R,1.400000X1.000000*%
%ADD23C,0.900000*%
%ADD24R,1.000000X0.800000*%
%ADD25R,0.700000X1.500000*%
G04 APERTURE END LIST*
D10*
%TO.C,REF\u002A\u002A*%
X65500000Y-82121428D02*
X65166666Y-83454761D01*
X64833333Y-82121428D01*
X63566666Y-83454761D02*
X64366666Y-83454761D01*
X63966666Y-83454761D02*
X63966666Y-81454761D01*
X64100000Y-81740476D01*
X64233333Y-81930952D01*
X64366666Y-82026190D01*
X62966666Y-83264285D02*
X62900000Y-83359523D01*
X62966666Y-83454761D01*
X63033333Y-83359523D01*
X62966666Y-83264285D01*
X62966666Y-83454761D01*
X62033333Y-81454761D02*
X61900000Y-81454761D01*
X61766666Y-81550000D01*
X61700000Y-81645238D01*
X61633333Y-81835714D01*
X61566666Y-82216666D01*
X61566666Y-82692857D01*
X61633333Y-83073809D01*
X61700000Y-83264285D01*
X61766666Y-83359523D01*
X61900000Y-83454761D01*
X62033333Y-83454761D01*
X62166666Y-83359523D01*
X62233333Y-83264285D01*
X62300000Y-83073809D01*
X62366666Y-82692857D01*
X62366666Y-82216666D01*
X62300000Y-81835714D01*
X62233333Y-81645238D01*
X62166666Y-81550000D01*
X62033333Y-81454761D01*
D11*
X118490952Y-22296428D02*
X117729047Y-22296428D01*
X133730952Y-22296428D02*
X132969047Y-22296428D01*
X133350000Y-22677380D02*
X133350000Y-21915476D01*
%TO.C,O1*%
X128770000Y-60117500D02*
X128817619Y-60184166D01*
X128817619Y-60284166D01*
X128770000Y-60384166D01*
X128674761Y-60450833D01*
X128579523Y-60484166D01*
X128389047Y-60517500D01*
X128246190Y-60517500D01*
X128055714Y-60484166D01*
X127960476Y-60450833D01*
X127865238Y-60384166D01*
X127817619Y-60284166D01*
X127817619Y-60217500D01*
X127865238Y-60117500D01*
X127912857Y-60084166D01*
X128246190Y-60084166D01*
X128246190Y-60217500D01*
X127817619Y-59784166D02*
X128817619Y-59784166D01*
X127817619Y-59384166D01*
X128817619Y-59384166D01*
X127817619Y-59050833D02*
X128817619Y-59050833D01*
X128817619Y-58884166D01*
X128770000Y-58784166D01*
X128674761Y-58717500D01*
X128579523Y-58684166D01*
X128389047Y-58650833D01*
X128246190Y-58650833D01*
X128055714Y-58684166D01*
X127960476Y-58717500D01*
X127865238Y-58784166D01*
X127817619Y-58884166D01*
X127817619Y-59050833D01*
X122785238Y-60450833D02*
X122737619Y-60350833D01*
X122737619Y-60184166D01*
X122785238Y-60117500D01*
X122832857Y-60084166D01*
X122928095Y-60050833D01*
X123023333Y-60050833D01*
X123118571Y-60084166D01*
X123166190Y-60117500D01*
X123213809Y-60184166D01*
X123261428Y-60317500D01*
X123309047Y-60384166D01*
X123356666Y-60417500D01*
X123451904Y-60450833D01*
X123547142Y-60450833D01*
X123642380Y-60417500D01*
X123690000Y-60384166D01*
X123737619Y-60317500D01*
X123737619Y-60150833D01*
X123690000Y-60050833D01*
X122832857Y-59350833D02*
X122785238Y-59384166D01*
X122737619Y-59484166D01*
X122737619Y-59550833D01*
X122785238Y-59650833D01*
X122880476Y-59717500D01*
X122975714Y-59750833D01*
X123166190Y-59784166D01*
X123309047Y-59784166D01*
X123499523Y-59750833D01*
X123594761Y-59717500D01*
X123690000Y-59650833D01*
X123737619Y-59550833D01*
X123737619Y-59484166D01*
X123690000Y-59384166D01*
X123642380Y-59350833D01*
X122737619Y-59050833D02*
X123737619Y-59050833D01*
X122737619Y-58650833D02*
X123309047Y-58950833D01*
X123737619Y-58650833D02*
X123166190Y-59050833D01*
X120197619Y-60884166D02*
X121197619Y-60884166D01*
X120483333Y-60650833D01*
X121197619Y-60417500D01*
X120197619Y-60417500D01*
X121197619Y-59950833D02*
X121197619Y-59817500D01*
X121150000Y-59750833D01*
X121054761Y-59684166D01*
X120864285Y-59650833D01*
X120530952Y-59650833D01*
X120340476Y-59684166D01*
X120245238Y-59750833D01*
X120197619Y-59817500D01*
X120197619Y-59950833D01*
X120245238Y-60017500D01*
X120340476Y-60084166D01*
X120530952Y-60117500D01*
X120864285Y-60117500D01*
X121054761Y-60084166D01*
X121150000Y-60017500D01*
X121197619Y-59950833D01*
X120245238Y-59384166D02*
X120197619Y-59284166D01*
X120197619Y-59117500D01*
X120245238Y-59050833D01*
X120292857Y-59017500D01*
X120388095Y-58984166D01*
X120483333Y-58984166D01*
X120578571Y-59017500D01*
X120626190Y-59050833D01*
X120673809Y-59117500D01*
X120721428Y-59250833D01*
X120769047Y-59317500D01*
X120816666Y-59350833D01*
X120911904Y-59384166D01*
X121007142Y-59384166D01*
X121102380Y-59350833D01*
X121150000Y-59317500D01*
X121197619Y-59250833D01*
X121197619Y-59084166D01*
X121150000Y-58984166D01*
X120197619Y-58684166D02*
X121197619Y-58684166D01*
X126277619Y-60450833D02*
X125277619Y-60217500D01*
X126277619Y-59984166D01*
X125372857Y-59350833D02*
X125325238Y-59384166D01*
X125277619Y-59484166D01*
X125277619Y-59550833D01*
X125325238Y-59650833D01*
X125420476Y-59717500D01*
X125515714Y-59750833D01*
X125706190Y-59784166D01*
X125849047Y-59784166D01*
X126039523Y-59750833D01*
X126134761Y-59717500D01*
X126230000Y-59650833D01*
X126277619Y-59550833D01*
X126277619Y-59484166D01*
X126230000Y-59384166D01*
X126182380Y-59350833D01*
X125372857Y-58650833D02*
X125325238Y-58684166D01*
X125277619Y-58784166D01*
X125277619Y-58850833D01*
X125325238Y-58950833D01*
X125420476Y-59017500D01*
X125515714Y-59050833D01*
X125706190Y-59084166D01*
X125849047Y-59084166D01*
X126039523Y-59050833D01*
X126134761Y-59017500D01*
X126230000Y-58950833D01*
X126277619Y-58850833D01*
X126277619Y-58784166D01*
X126230000Y-58684166D01*
X126182380Y-58650833D01*
X130452857Y-59317500D02*
X130405238Y-59350833D01*
X130357619Y-59450833D01*
X130357619Y-59517500D01*
X130405238Y-59617500D01*
X130500476Y-59684166D01*
X130595714Y-59717500D01*
X130786190Y-59750833D01*
X130929047Y-59750833D01*
X131119523Y-59717500D01*
X131214761Y-59684166D01*
X131310000Y-59617500D01*
X131357619Y-59517500D01*
X131357619Y-59450833D01*
X131310000Y-59350833D01*
X131262380Y-59317500D01*
X130405238Y-59050833D02*
X130357619Y-58950833D01*
X130357619Y-58784166D01*
X130405238Y-58717500D01*
X130452857Y-58684166D01*
X130548095Y-58650833D01*
X130643333Y-58650833D01*
X130738571Y-58684166D01*
X130786190Y-58717500D01*
X130833809Y-58784166D01*
X130881428Y-58917500D01*
X130929047Y-58984166D01*
X130976666Y-59017500D01*
X131071904Y-59050833D01*
X131167142Y-59050833D01*
X131262380Y-59017500D01*
X131310000Y-58984166D01*
X131357619Y-58917500D01*
X131357619Y-58750833D01*
X131310000Y-58650833D01*
%TO.C,U1*%
X131782500Y-53157380D02*
X131649166Y-53157380D01*
X131582500Y-53109761D01*
X131549166Y-53062142D01*
X131482500Y-52919285D01*
X131449166Y-52728809D01*
X131449166Y-52347857D01*
X131482500Y-52252619D01*
X131515833Y-52205000D01*
X131582500Y-52157380D01*
X131715833Y-52157380D01*
X131782500Y-52205000D01*
X131815833Y-52252619D01*
X131849166Y-52347857D01*
X131849166Y-52585952D01*
X131815833Y-52681190D01*
X131782500Y-52728809D01*
X131715833Y-52776428D01*
X131582500Y-52776428D01*
X131515833Y-52728809D01*
X131482500Y-52681190D01*
X131449166Y-52585952D01*
X130649166Y-52109761D02*
X131249166Y-53395476D01*
X130182500Y-52633571D02*
X130082500Y-52681190D01*
X130049166Y-52728809D01*
X130015833Y-52824047D01*
X130015833Y-52966904D01*
X130049166Y-53062142D01*
X130082500Y-53109761D01*
X130149166Y-53157380D01*
X130415833Y-53157380D01*
X130415833Y-52157380D01*
X130182500Y-52157380D01*
X130115833Y-52205000D01*
X130082500Y-52252619D01*
X130049166Y-52347857D01*
X130049166Y-52443095D01*
X130082500Y-52538333D01*
X130115833Y-52585952D01*
X130182500Y-52633571D01*
X130415833Y-52633571D01*
X129382500Y-52157380D02*
X129715833Y-52157380D01*
X129749166Y-52633571D01*
X129715833Y-52585952D01*
X129649166Y-52538333D01*
X129482500Y-52538333D01*
X129415833Y-52585952D01*
X129382500Y-52633571D01*
X129349166Y-52728809D01*
X129349166Y-52966904D01*
X129382500Y-53062142D01*
X129415833Y-53109761D01*
X129482500Y-53157380D01*
X129649166Y-53157380D01*
X129715833Y-53109761D01*
X129749166Y-53062142D01*
X122344166Y-42473571D02*
X122577500Y-42473571D01*
X122577500Y-42997380D02*
X122577500Y-41997380D01*
X122244166Y-41997380D01*
X122044166Y-41997380D02*
X121577500Y-41997380D01*
X121877500Y-42997380D01*
X120810833Y-41949761D02*
X121410833Y-43235476D01*
X120610833Y-42711666D02*
X120277500Y-42711666D01*
X120677500Y-42997380D02*
X120444166Y-41997380D01*
X120210833Y-42997380D01*
X119844166Y-41997380D02*
X119777500Y-41997380D01*
X119710833Y-42045000D01*
X119677500Y-42092619D01*
X119644166Y-42187857D01*
X119610833Y-42378333D01*
X119610833Y-42616428D01*
X119644166Y-42806904D01*
X119677500Y-42902142D01*
X119710833Y-42949761D01*
X119777500Y-42997380D01*
X119844166Y-42997380D01*
X119910833Y-42949761D01*
X119944166Y-42902142D01*
X119977500Y-42806904D01*
X120010833Y-42616428D01*
X120010833Y-42378333D01*
X119977500Y-42187857D01*
X119944166Y-42092619D01*
X119910833Y-42045000D01*
X119844166Y-41997380D01*
X122510833Y-45013571D02*
X122410833Y-45061190D01*
X122377500Y-45108809D01*
X122344166Y-45204047D01*
X122344166Y-45346904D01*
X122377500Y-45442142D01*
X122410833Y-45489761D01*
X122477500Y-45537380D01*
X122744166Y-45537380D01*
X122744166Y-44537380D01*
X122510833Y-44537380D01*
X122444166Y-44585000D01*
X122410833Y-44632619D01*
X122377500Y-44727857D01*
X122377500Y-44823095D01*
X122410833Y-44918333D01*
X122444166Y-44965952D01*
X122510833Y-45013571D01*
X122744166Y-45013571D01*
X121677500Y-45537380D02*
X122077500Y-45537380D01*
X121877500Y-45537380D02*
X121877500Y-44537380D01*
X121944166Y-44680238D01*
X122010833Y-44775476D01*
X122077500Y-44823095D01*
X120877500Y-44489761D02*
X121477500Y-45775476D01*
X120277500Y-45537380D02*
X120677500Y-45537380D01*
X120477500Y-45537380D02*
X120477500Y-44537380D01*
X120544166Y-44680238D01*
X120610833Y-44775476D01*
X120677500Y-44823095D01*
X119644166Y-44537380D02*
X119977500Y-44537380D01*
X120010833Y-45013571D01*
X119977500Y-44965952D01*
X119910833Y-44918333D01*
X119744166Y-44918333D01*
X119677500Y-44965952D01*
X119644166Y-45013571D01*
X119610833Y-45108809D01*
X119610833Y-45346904D01*
X119644166Y-45442142D01*
X119677500Y-45489761D01*
X119744166Y-45537380D01*
X119910833Y-45537380D01*
X119977500Y-45489761D01*
X120010833Y-45442142D01*
X122510833Y-52633571D02*
X122410833Y-52681190D01*
X122377500Y-52728809D01*
X122344166Y-52824047D01*
X122344166Y-52966904D01*
X122377500Y-53062142D01*
X122410833Y-53109761D01*
X122477500Y-53157380D01*
X122744166Y-53157380D01*
X122744166Y-52157380D01*
X122510833Y-52157380D01*
X122444166Y-52205000D01*
X122410833Y-52252619D01*
X122377500Y-52347857D01*
X122377500Y-52443095D01*
X122410833Y-52538333D01*
X122444166Y-52585952D01*
X122510833Y-52633571D01*
X122744166Y-52633571D01*
X121744166Y-52157380D02*
X121877500Y-52157380D01*
X121944166Y-52205000D01*
X121977500Y-52252619D01*
X122044166Y-52395476D01*
X122077500Y-52585952D01*
X122077500Y-52966904D01*
X122044166Y-53062142D01*
X122010833Y-53109761D01*
X121944166Y-53157380D01*
X121810833Y-53157380D01*
X121744166Y-53109761D01*
X121710833Y-53062142D01*
X121677500Y-52966904D01*
X121677500Y-52728809D01*
X121710833Y-52633571D01*
X121744166Y-52585952D01*
X121810833Y-52538333D01*
X121944166Y-52538333D01*
X122010833Y-52585952D01*
X122044166Y-52633571D01*
X122077500Y-52728809D01*
X120877500Y-52109761D02*
X121477500Y-53395476D01*
X120277500Y-53157380D02*
X120677500Y-53157380D01*
X120477500Y-53157380D02*
X120477500Y-52157380D01*
X120544166Y-52300238D01*
X120610833Y-52395476D01*
X120677500Y-52443095D01*
X119844166Y-52157380D02*
X119777500Y-52157380D01*
X119710833Y-52205000D01*
X119677500Y-52252619D01*
X119644166Y-52347857D01*
X119610833Y-52538333D01*
X119610833Y-52776428D01*
X119644166Y-52966904D01*
X119677500Y-53062142D01*
X119710833Y-53109761D01*
X119777500Y-53157380D01*
X119844166Y-53157380D01*
X119910833Y-53109761D01*
X119944166Y-53062142D01*
X119977500Y-52966904D01*
X120010833Y-52776428D01*
X120010833Y-52538333D01*
X119977500Y-52347857D01*
X119944166Y-52252619D01*
X119910833Y-52205000D01*
X119844166Y-52157380D01*
X131449166Y-29345000D02*
X131515833Y-29297380D01*
X131615833Y-29297380D01*
X131715833Y-29345000D01*
X131782500Y-29440238D01*
X131815833Y-29535476D01*
X131849166Y-29725952D01*
X131849166Y-29868809D01*
X131815833Y-30059285D01*
X131782500Y-30154523D01*
X131715833Y-30249761D01*
X131615833Y-30297380D01*
X131549166Y-30297380D01*
X131449166Y-30249761D01*
X131415833Y-30202142D01*
X131415833Y-29868809D01*
X131549166Y-29868809D01*
X131115833Y-30297380D02*
X131115833Y-29297380D01*
X130715833Y-30297380D01*
X130715833Y-29297380D01*
X130382500Y-30297380D02*
X130382500Y-29297380D01*
X130215833Y-29297380D01*
X130115833Y-29345000D01*
X130049166Y-29440238D01*
X130015833Y-29535476D01*
X129982500Y-29725952D01*
X129982500Y-29868809D01*
X130015833Y-30059285D01*
X130049166Y-30154523D01*
X130115833Y-30249761D01*
X130215833Y-30297380D01*
X130382500Y-30297380D01*
X131682500Y-26757380D02*
X131615833Y-26757380D01*
X131549166Y-26805000D01*
X131515833Y-26852619D01*
X131482500Y-26947857D01*
X131449166Y-27138333D01*
X131449166Y-27376428D01*
X131482500Y-27566904D01*
X131515833Y-27662142D01*
X131549166Y-27709761D01*
X131615833Y-27757380D01*
X131682500Y-27757380D01*
X131749166Y-27709761D01*
X131782500Y-27662142D01*
X131815833Y-27566904D01*
X131849166Y-27376428D01*
X131849166Y-27138333D01*
X131815833Y-26947857D01*
X131782500Y-26852619D01*
X131749166Y-26805000D01*
X131682500Y-26757380D01*
X130649166Y-26709761D02*
X131249166Y-27995476D01*
X130415833Y-27757380D02*
X130415833Y-26757380D01*
X130249166Y-26757380D01*
X130149166Y-26805000D01*
X130082500Y-26900238D01*
X130049166Y-26995476D01*
X130015833Y-27185952D01*
X130015833Y-27328809D01*
X130049166Y-27519285D01*
X130082500Y-27614523D01*
X130149166Y-27709761D01*
X130249166Y-27757380D01*
X130415833Y-27757380D01*
X129749166Y-26852619D02*
X129715833Y-26805000D01*
X129649166Y-26757380D01*
X129482500Y-26757380D01*
X129415833Y-26805000D01*
X129382500Y-26852619D01*
X129349166Y-26947857D01*
X129349166Y-27043095D01*
X129382500Y-27185952D01*
X129782500Y-27757380D01*
X129349166Y-27757380D01*
X131515833Y-39790714D02*
X131515833Y-40457380D01*
X131682500Y-39409761D02*
X131849166Y-40124047D01*
X131415833Y-40124047D01*
X130649166Y-39409761D02*
X131249166Y-40695476D01*
X130415833Y-40457380D02*
X130415833Y-39457380D01*
X130249166Y-39457380D01*
X130149166Y-39505000D01*
X130082500Y-39600238D01*
X130049166Y-39695476D01*
X130015833Y-39885952D01*
X130015833Y-40028809D01*
X130049166Y-40219285D01*
X130082500Y-40314523D01*
X130149166Y-40409761D01*
X130249166Y-40457380D01*
X130415833Y-40457380D01*
X129415833Y-39790714D02*
X129415833Y-40457380D01*
X129582500Y-39409761D02*
X129749166Y-40124047D01*
X129315833Y-40124047D01*
X131449166Y-25217380D02*
X131849166Y-25217380D01*
X131649166Y-25217380D02*
X131649166Y-24217380D01*
X131715833Y-24360238D01*
X131782500Y-24455476D01*
X131849166Y-24503095D01*
X130649166Y-24169761D02*
X131249166Y-25455476D01*
X130415833Y-25217380D02*
X130415833Y-24217380D01*
X130249166Y-24217380D01*
X130149166Y-24265000D01*
X130082500Y-24360238D01*
X130049166Y-24455476D01*
X130015833Y-24645952D01*
X130015833Y-24788809D01*
X130049166Y-24979285D01*
X130082500Y-25074523D01*
X130149166Y-25169761D01*
X130249166Y-25217380D01*
X130415833Y-25217380D01*
X129782500Y-24217380D02*
X129349166Y-24217380D01*
X129582500Y-24598333D01*
X129482500Y-24598333D01*
X129415833Y-24645952D01*
X129382500Y-24693571D01*
X129349166Y-24788809D01*
X129349166Y-25026904D01*
X129382500Y-25122142D01*
X129415833Y-25169761D01*
X129482500Y-25217380D01*
X129682500Y-25217380D01*
X129749166Y-25169761D01*
X129782500Y-25122142D01*
X121410833Y-31837380D02*
X121177500Y-32837380D01*
X120944166Y-31837380D01*
X120310833Y-32742142D02*
X120344166Y-32789761D01*
X120444166Y-32837380D01*
X120510833Y-32837380D01*
X120610833Y-32789761D01*
X120677500Y-32694523D01*
X120710833Y-32599285D01*
X120744166Y-32408809D01*
X120744166Y-32265952D01*
X120710833Y-32075476D01*
X120677500Y-31980238D01*
X120610833Y-31885000D01*
X120510833Y-31837380D01*
X120444166Y-31837380D01*
X120344166Y-31885000D01*
X120310833Y-31932619D01*
X119610833Y-32742142D02*
X119644166Y-32789761D01*
X119744166Y-32837380D01*
X119810833Y-32837380D01*
X119910833Y-32789761D01*
X119977500Y-32694523D01*
X120010833Y-32599285D01*
X120044166Y-32408809D01*
X120044166Y-32265952D01*
X120010833Y-32075476D01*
X119977500Y-31980238D01*
X119910833Y-31885000D01*
X119810833Y-31837380D01*
X119744166Y-31837380D01*
X119644166Y-31885000D01*
X119610833Y-31932619D01*
X131715833Y-50045952D02*
X131782500Y-49998333D01*
X131815833Y-49950714D01*
X131849166Y-49855476D01*
X131849166Y-49807857D01*
X131815833Y-49712619D01*
X131782500Y-49665000D01*
X131715833Y-49617380D01*
X131582500Y-49617380D01*
X131515833Y-49665000D01*
X131482500Y-49712619D01*
X131449166Y-49807857D01*
X131449166Y-49855476D01*
X131482500Y-49950714D01*
X131515833Y-49998333D01*
X131582500Y-50045952D01*
X131715833Y-50045952D01*
X131782500Y-50093571D01*
X131815833Y-50141190D01*
X131849166Y-50236428D01*
X131849166Y-50426904D01*
X131815833Y-50522142D01*
X131782500Y-50569761D01*
X131715833Y-50617380D01*
X131582500Y-50617380D01*
X131515833Y-50569761D01*
X131482500Y-50522142D01*
X131449166Y-50426904D01*
X131449166Y-50236428D01*
X131482500Y-50141190D01*
X131515833Y-50093571D01*
X131582500Y-50045952D01*
X130649166Y-49569761D02*
X131249166Y-50855476D01*
X130182500Y-50093571D02*
X130082500Y-50141190D01*
X130049166Y-50188809D01*
X130015833Y-50284047D01*
X130015833Y-50426904D01*
X130049166Y-50522142D01*
X130082500Y-50569761D01*
X130149166Y-50617380D01*
X130415833Y-50617380D01*
X130415833Y-49617380D01*
X130182500Y-49617380D01*
X130115833Y-49665000D01*
X130082500Y-49712619D01*
X130049166Y-49807857D01*
X130049166Y-49903095D01*
X130082500Y-49998333D01*
X130115833Y-50045952D01*
X130182500Y-50093571D01*
X130415833Y-50093571D01*
X129415833Y-49950714D02*
X129415833Y-50617380D01*
X129582500Y-49569761D02*
X129749166Y-50284047D01*
X129315833Y-50284047D01*
X121077500Y-26805000D02*
X121144166Y-26757380D01*
X121244166Y-26757380D01*
X121344166Y-26805000D01*
X121410833Y-26900238D01*
X121444166Y-26995476D01*
X121477500Y-27185952D01*
X121477500Y-27328809D01*
X121444166Y-27519285D01*
X121410833Y-27614523D01*
X121344166Y-27709761D01*
X121244166Y-27757380D01*
X121177500Y-27757380D01*
X121077500Y-27709761D01*
X121044166Y-27662142D01*
X121044166Y-27328809D01*
X121177500Y-27328809D01*
X120744166Y-27757380D02*
X120744166Y-26757380D01*
X120344166Y-27757380D01*
X120344166Y-26757380D01*
X120010833Y-27757380D02*
X120010833Y-26757380D01*
X119844166Y-26757380D01*
X119744166Y-26805000D01*
X119677500Y-26900238D01*
X119644166Y-26995476D01*
X119610833Y-27185952D01*
X119610833Y-27328809D01*
X119644166Y-27519285D01*
X119677500Y-27614523D01*
X119744166Y-27709761D01*
X119844166Y-27757380D01*
X120010833Y-27757380D01*
X120810833Y-30297380D02*
X121044166Y-29821190D01*
X121210833Y-30297380D02*
X121210833Y-29297380D01*
X120944166Y-29297380D01*
X120877500Y-29345000D01*
X120844166Y-29392619D01*
X120810833Y-29487857D01*
X120810833Y-29630714D01*
X120844166Y-29725952D01*
X120877500Y-29773571D01*
X120944166Y-29821190D01*
X121210833Y-29821190D01*
X120544166Y-30249761D02*
X120444166Y-30297380D01*
X120277500Y-30297380D01*
X120210833Y-30249761D01*
X120177500Y-30202142D01*
X120144166Y-30106904D01*
X120144166Y-30011666D01*
X120177500Y-29916428D01*
X120210833Y-29868809D01*
X120277500Y-29821190D01*
X120410833Y-29773571D01*
X120477500Y-29725952D01*
X120510833Y-29678333D01*
X120544166Y-29583095D01*
X120544166Y-29487857D01*
X120510833Y-29392619D01*
X120477500Y-29345000D01*
X120410833Y-29297380D01*
X120244166Y-29297380D01*
X120144166Y-29345000D01*
X119944166Y-29297380D02*
X119544166Y-29297380D01*
X119744166Y-30297380D02*
X119744166Y-29297380D01*
X131482500Y-41997380D02*
X131815833Y-41997380D01*
X131849166Y-42473571D01*
X131815833Y-42425952D01*
X131749166Y-42378333D01*
X131582500Y-42378333D01*
X131515833Y-42425952D01*
X131482500Y-42473571D01*
X131449166Y-42568809D01*
X131449166Y-42806904D01*
X131482500Y-42902142D01*
X131515833Y-42949761D01*
X131582500Y-42997380D01*
X131749166Y-42997380D01*
X131815833Y-42949761D01*
X131849166Y-42902142D01*
X130649166Y-41949761D02*
X131249166Y-43235476D01*
X130015833Y-42902142D02*
X130049166Y-42949761D01*
X130149166Y-42997380D01*
X130215833Y-42997380D01*
X130315833Y-42949761D01*
X130382500Y-42854523D01*
X130415833Y-42759285D01*
X130449166Y-42568809D01*
X130449166Y-42425952D01*
X130415833Y-42235476D01*
X130382500Y-42140238D01*
X130315833Y-42045000D01*
X130215833Y-41997380D01*
X130149166Y-41997380D01*
X130049166Y-42045000D01*
X130015833Y-42092619D01*
X129415833Y-41997380D02*
X129549166Y-41997380D01*
X129615833Y-42045000D01*
X129649166Y-42092619D01*
X129715833Y-42235476D01*
X129749166Y-42425952D01*
X129749166Y-42806904D01*
X129715833Y-42902142D01*
X129682500Y-42949761D01*
X129615833Y-42997380D01*
X129482500Y-42997380D01*
X129415833Y-42949761D01*
X129382500Y-42902142D01*
X129349166Y-42806904D01*
X129349166Y-42568809D01*
X129382500Y-42473571D01*
X129415833Y-42425952D01*
X129482500Y-42378333D01*
X129615833Y-42378333D01*
X129682500Y-42425952D01*
X129715833Y-42473571D01*
X129749166Y-42568809D01*
X131449166Y-31885000D02*
X131515833Y-31837380D01*
X131615833Y-31837380D01*
X131715833Y-31885000D01*
X131782500Y-31980238D01*
X131815833Y-32075476D01*
X131849166Y-32265952D01*
X131849166Y-32408809D01*
X131815833Y-32599285D01*
X131782500Y-32694523D01*
X131715833Y-32789761D01*
X131615833Y-32837380D01*
X131549166Y-32837380D01*
X131449166Y-32789761D01*
X131415833Y-32742142D01*
X131415833Y-32408809D01*
X131549166Y-32408809D01*
X131115833Y-32837380D02*
X131115833Y-31837380D01*
X130715833Y-32837380D01*
X130715833Y-31837380D01*
X130382500Y-32837380D02*
X130382500Y-31837380D01*
X130215833Y-31837380D01*
X130115833Y-31885000D01*
X130049166Y-31980238D01*
X130015833Y-32075476D01*
X129982500Y-32265952D01*
X129982500Y-32408809D01*
X130015833Y-32599285D01*
X130049166Y-32694523D01*
X130115833Y-32789761D01*
X130215833Y-32837380D01*
X130382500Y-32837380D01*
X122510833Y-50093571D02*
X122410833Y-50141190D01*
X122377500Y-50188809D01*
X122344166Y-50284047D01*
X122344166Y-50426904D01*
X122377500Y-50522142D01*
X122410833Y-50569761D01*
X122477500Y-50617380D01*
X122744166Y-50617380D01*
X122744166Y-49617380D01*
X122510833Y-49617380D01*
X122444166Y-49665000D01*
X122410833Y-49712619D01*
X122377500Y-49807857D01*
X122377500Y-49903095D01*
X122410833Y-49998333D01*
X122444166Y-50045952D01*
X122510833Y-50093571D01*
X122744166Y-50093571D01*
X122077500Y-49712619D02*
X122044166Y-49665000D01*
X121977500Y-49617380D01*
X121810833Y-49617380D01*
X121744166Y-49665000D01*
X121710833Y-49712619D01*
X121677500Y-49807857D01*
X121677500Y-49903095D01*
X121710833Y-50045952D01*
X122110833Y-50617380D01*
X121677500Y-50617380D01*
X120877500Y-49569761D02*
X121477500Y-50855476D01*
X120277500Y-50617380D02*
X120677500Y-50617380D01*
X120477500Y-50617380D02*
X120477500Y-49617380D01*
X120544166Y-49760238D01*
X120610833Y-49855476D01*
X120677500Y-49903095D01*
X119677500Y-49617380D02*
X119810833Y-49617380D01*
X119877500Y-49665000D01*
X119910833Y-49712619D01*
X119977500Y-49855476D01*
X120010833Y-50045952D01*
X120010833Y-50426904D01*
X119977500Y-50522142D01*
X119944166Y-50569761D01*
X119877500Y-50617380D01*
X119744166Y-50617380D01*
X119677500Y-50569761D01*
X119644166Y-50522142D01*
X119610833Y-50426904D01*
X119610833Y-50188809D01*
X119644166Y-50093571D01*
X119677500Y-50045952D01*
X119744166Y-49998333D01*
X119877500Y-49998333D01*
X119944166Y-50045952D01*
X119977500Y-50093571D01*
X120010833Y-50188809D01*
X131849166Y-34472619D02*
X131815833Y-34425000D01*
X131749166Y-34377380D01*
X131582500Y-34377380D01*
X131515833Y-34425000D01*
X131482500Y-34472619D01*
X131449166Y-34567857D01*
X131449166Y-34663095D01*
X131482500Y-34805952D01*
X131882500Y-35377380D01*
X131449166Y-35377380D01*
X130649166Y-34329761D02*
X131249166Y-35615476D01*
X130415833Y-35377380D02*
X130415833Y-34377380D01*
X130249166Y-34377380D01*
X130149166Y-34425000D01*
X130082500Y-34520238D01*
X130049166Y-34615476D01*
X130015833Y-34805952D01*
X130015833Y-34948809D01*
X130049166Y-35139285D01*
X130082500Y-35234523D01*
X130149166Y-35329761D01*
X130249166Y-35377380D01*
X130415833Y-35377380D01*
X129349166Y-35377380D02*
X129749166Y-35377380D01*
X129549166Y-35377380D02*
X129549166Y-34377380D01*
X129615833Y-34520238D01*
X129682500Y-34615476D01*
X129749166Y-34663095D01*
X131515833Y-44537380D02*
X131649166Y-44537380D01*
X131715833Y-44585000D01*
X131749166Y-44632619D01*
X131815833Y-44775476D01*
X131849166Y-44965952D01*
X131849166Y-45346904D01*
X131815833Y-45442142D01*
X131782500Y-45489761D01*
X131715833Y-45537380D01*
X131582500Y-45537380D01*
X131515833Y-45489761D01*
X131482500Y-45442142D01*
X131449166Y-45346904D01*
X131449166Y-45108809D01*
X131482500Y-45013571D01*
X131515833Y-44965952D01*
X131582500Y-44918333D01*
X131715833Y-44918333D01*
X131782500Y-44965952D01*
X131815833Y-45013571D01*
X131849166Y-45108809D01*
X130649166Y-44489761D02*
X131249166Y-45775476D01*
X130415833Y-45537380D02*
X130415833Y-44537380D01*
X130249166Y-44537380D01*
X130149166Y-44585000D01*
X130082500Y-44680238D01*
X130049166Y-44775476D01*
X130015833Y-44965952D01*
X130015833Y-45108809D01*
X130049166Y-45299285D01*
X130082500Y-45394523D01*
X130149166Y-45489761D01*
X130249166Y-45537380D01*
X130415833Y-45537380D01*
X129782500Y-44537380D02*
X129315833Y-44537380D01*
X129615833Y-45537380D01*
X122344166Y-39933571D02*
X122577500Y-39933571D01*
X122577500Y-40457380D02*
X122577500Y-39457380D01*
X122244166Y-39457380D01*
X121677500Y-39457380D02*
X121810833Y-39457380D01*
X121877500Y-39505000D01*
X121910833Y-39552619D01*
X121977500Y-39695476D01*
X122010833Y-39885952D01*
X122010833Y-40266904D01*
X121977500Y-40362142D01*
X121944166Y-40409761D01*
X121877500Y-40457380D01*
X121744166Y-40457380D01*
X121677500Y-40409761D01*
X121644166Y-40362142D01*
X121610833Y-40266904D01*
X121610833Y-40028809D01*
X121644166Y-39933571D01*
X121677500Y-39885952D01*
X121744166Y-39838333D01*
X121877500Y-39838333D01*
X121944166Y-39885952D01*
X121977500Y-39933571D01*
X122010833Y-40028809D01*
X120810833Y-39409761D02*
X121410833Y-40695476D01*
X120610833Y-40171666D02*
X120277500Y-40171666D01*
X120677500Y-40457380D02*
X120444166Y-39457380D01*
X120210833Y-40457380D01*
X119610833Y-40457380D02*
X120010833Y-40457380D01*
X119810833Y-40457380D02*
X119810833Y-39457380D01*
X119877500Y-39600238D01*
X119944166Y-39695476D01*
X120010833Y-39743095D01*
X131882500Y-36917380D02*
X131449166Y-36917380D01*
X131682500Y-37298333D01*
X131582500Y-37298333D01*
X131515833Y-37345952D01*
X131482500Y-37393571D01*
X131449166Y-37488809D01*
X131449166Y-37726904D01*
X131482500Y-37822142D01*
X131515833Y-37869761D01*
X131582500Y-37917380D01*
X131782500Y-37917380D01*
X131849166Y-37869761D01*
X131882500Y-37822142D01*
X130649166Y-36869761D02*
X131249166Y-38155476D01*
X130415833Y-37917380D02*
X130415833Y-36917380D01*
X130249166Y-36917380D01*
X130149166Y-36965000D01*
X130082500Y-37060238D01*
X130049166Y-37155476D01*
X130015833Y-37345952D01*
X130015833Y-37488809D01*
X130049166Y-37679285D01*
X130082500Y-37774523D01*
X130149166Y-37869761D01*
X130249166Y-37917380D01*
X130415833Y-37917380D01*
X129582500Y-36917380D02*
X129515833Y-36917380D01*
X129449166Y-36965000D01*
X129415833Y-37012619D01*
X129382500Y-37107857D01*
X129349166Y-37298333D01*
X129349166Y-37536428D01*
X129382500Y-37726904D01*
X129415833Y-37822142D01*
X129449166Y-37869761D01*
X129515833Y-37917380D01*
X129582500Y-37917380D01*
X129649166Y-37869761D01*
X129682500Y-37822142D01*
X129715833Y-37726904D01*
X129749166Y-37536428D01*
X129749166Y-37298333D01*
X129715833Y-37107857D01*
X129682500Y-37012619D01*
X129649166Y-36965000D01*
X129582500Y-36917380D01*
X122344166Y-34853571D02*
X122577500Y-34853571D01*
X122577500Y-35377380D02*
X122577500Y-34377380D01*
X122244166Y-34377380D01*
X121677500Y-34710714D02*
X121677500Y-35377380D01*
X121844166Y-34329761D02*
X122010833Y-35044047D01*
X121577500Y-35044047D01*
X120810833Y-34329761D02*
X121410833Y-35615476D01*
X120610833Y-35091666D02*
X120277500Y-35091666D01*
X120677500Y-35377380D02*
X120444166Y-34377380D01*
X120210833Y-35377380D01*
X120044166Y-34377380D02*
X119610833Y-34377380D01*
X119844166Y-34758333D01*
X119744166Y-34758333D01*
X119677500Y-34805952D01*
X119644166Y-34853571D01*
X119610833Y-34948809D01*
X119610833Y-35186904D01*
X119644166Y-35282142D01*
X119677500Y-35329761D01*
X119744166Y-35377380D01*
X119944166Y-35377380D01*
X120010833Y-35329761D01*
X120044166Y-35282142D01*
X121010833Y-25217380D02*
X121244166Y-24741190D01*
X121410833Y-25217380D02*
X121410833Y-24217380D01*
X121144166Y-24217380D01*
X121077500Y-24265000D01*
X121044166Y-24312619D01*
X121010833Y-24407857D01*
X121010833Y-24550714D01*
X121044166Y-24645952D01*
X121077500Y-24693571D01*
X121144166Y-24741190D01*
X121410833Y-24741190D01*
X120744166Y-24931666D02*
X120410833Y-24931666D01*
X120810833Y-25217380D02*
X120577500Y-24217380D01*
X120344166Y-25217380D01*
X120177500Y-24217380D02*
X120010833Y-25217380D01*
X119877500Y-24503095D01*
X119744166Y-25217380D01*
X119577500Y-24217380D01*
X122510833Y-47553571D02*
X122410833Y-47601190D01*
X122377500Y-47648809D01*
X122344166Y-47744047D01*
X122344166Y-47886904D01*
X122377500Y-47982142D01*
X122410833Y-48029761D01*
X122477500Y-48077380D01*
X122744166Y-48077380D01*
X122744166Y-47077380D01*
X122510833Y-47077380D01*
X122444166Y-47125000D01*
X122410833Y-47172619D01*
X122377500Y-47267857D01*
X122377500Y-47363095D01*
X122410833Y-47458333D01*
X122444166Y-47505952D01*
X122510833Y-47553571D01*
X122744166Y-47553571D01*
X122110833Y-47077380D02*
X121677500Y-47077380D01*
X121910833Y-47458333D01*
X121810833Y-47458333D01*
X121744166Y-47505952D01*
X121710833Y-47553571D01*
X121677500Y-47648809D01*
X121677500Y-47886904D01*
X121710833Y-47982142D01*
X121744166Y-48029761D01*
X121810833Y-48077380D01*
X122010833Y-48077380D01*
X122077500Y-48029761D01*
X122110833Y-47982142D01*
X120877500Y-47029761D02*
X121477500Y-48315476D01*
X120277500Y-48077380D02*
X120677500Y-48077380D01*
X120477500Y-48077380D02*
X120477500Y-47077380D01*
X120544166Y-47220238D01*
X120610833Y-47315476D01*
X120677500Y-47363095D01*
X119677500Y-47410714D02*
X119677500Y-48077380D01*
X119844166Y-47029761D02*
X120010833Y-47744047D01*
X119577500Y-47744047D01*
X122344166Y-37393571D02*
X122577500Y-37393571D01*
X122577500Y-37917380D02*
X122577500Y-36917380D01*
X122244166Y-36917380D01*
X121644166Y-36917380D02*
X121977500Y-36917380D01*
X122010833Y-37393571D01*
X121977500Y-37345952D01*
X121910833Y-37298333D01*
X121744166Y-37298333D01*
X121677500Y-37345952D01*
X121644166Y-37393571D01*
X121610833Y-37488809D01*
X121610833Y-37726904D01*
X121644166Y-37822142D01*
X121677500Y-37869761D01*
X121744166Y-37917380D01*
X121910833Y-37917380D01*
X121977500Y-37869761D01*
X122010833Y-37822142D01*
X120810833Y-36869761D02*
X121410833Y-38155476D01*
X120610833Y-37631666D02*
X120277500Y-37631666D01*
X120677500Y-37917380D02*
X120444166Y-36917380D01*
X120210833Y-37917380D01*
X120010833Y-37012619D02*
X119977500Y-36965000D01*
X119910833Y-36917380D01*
X119744166Y-36917380D01*
X119677500Y-36965000D01*
X119644166Y-37012619D01*
X119610833Y-37107857D01*
X119610833Y-37203095D01*
X119644166Y-37345952D01*
X120044166Y-37917380D01*
X119610833Y-37917380D01*
X131882500Y-47077380D02*
X131415833Y-47077380D01*
X131715833Y-48077380D01*
X130649166Y-47029761D02*
X131249166Y-48315476D01*
X130415833Y-47553571D02*
X130182500Y-47553571D01*
X130082500Y-48077380D02*
X130415833Y-48077380D01*
X130415833Y-47077380D01*
X130082500Y-47077380D01*
X129482500Y-47077380D02*
X129615833Y-47077380D01*
X129682500Y-47125000D01*
X129715833Y-47172619D01*
X129782500Y-47315476D01*
X129815833Y-47505952D01*
X129815833Y-47886904D01*
X129782500Y-47982142D01*
X129749166Y-48029761D01*
X129682500Y-48077380D01*
X129549166Y-48077380D01*
X129482500Y-48029761D01*
X129449166Y-47982142D01*
X129415833Y-47886904D01*
X129415833Y-47648809D01*
X129449166Y-47553571D01*
X129482500Y-47505952D01*
X129549166Y-47458333D01*
X129682500Y-47458333D01*
X129749166Y-47505952D01*
X129782500Y-47553571D01*
X129815833Y-47648809D01*
%TO.C,REF\u002A\u002A*%
X125003333Y-73477380D02*
X125003333Y-72477380D01*
X125003333Y-72858333D02*
X124936666Y-72810714D01*
X124803333Y-72810714D01*
X124736666Y-72858333D01*
X124703333Y-72905952D01*
X124670000Y-73001190D01*
X124670000Y-73286904D01*
X124703333Y-73382142D01*
X124736666Y-73429761D01*
X124803333Y-73477380D01*
X124936666Y-73477380D01*
X125003333Y-73429761D01*
X124436666Y-72810714D02*
X124270000Y-73477380D01*
X124103333Y-72810714D02*
X124270000Y-73477380D01*
X124336666Y-73715476D01*
X124370000Y-73763095D01*
X124436666Y-73810714D01*
X123336666Y-73429761D02*
X123236666Y-73477380D01*
X123070000Y-73477380D01*
X123003333Y-73429761D01*
X122970000Y-73382142D01*
X122936666Y-73286904D01*
X122936666Y-73191666D01*
X122970000Y-73096428D01*
X123003333Y-73048809D01*
X123070000Y-73001190D01*
X123203333Y-72953571D01*
X123270000Y-72905952D01*
X123303333Y-72858333D01*
X123336666Y-72763095D01*
X123336666Y-72667857D01*
X123303333Y-72572619D01*
X123270000Y-72525000D01*
X123203333Y-72477380D01*
X123036666Y-72477380D01*
X122936666Y-72525000D01*
X122336666Y-72810714D02*
X122336666Y-73477380D01*
X122636666Y-72810714D02*
X122636666Y-73334523D01*
X122603333Y-73429761D01*
X122536666Y-73477380D01*
X122436666Y-73477380D01*
X122370000Y-73429761D01*
X122336666Y-73382142D01*
X122003333Y-73477380D02*
X122003333Y-72477380D01*
X122003333Y-72858333D02*
X121936666Y-72810714D01*
X121803333Y-72810714D01*
X121736666Y-72858333D01*
X121703333Y-72905952D01*
X121670000Y-73001190D01*
X121670000Y-73286904D01*
X121703333Y-73382142D01*
X121736666Y-73429761D01*
X121803333Y-73477380D01*
X121936666Y-73477380D01*
X122003333Y-73429761D01*
X121370000Y-73477380D02*
X121370000Y-72810714D01*
X121370000Y-73001190D02*
X121336666Y-72905952D01*
X121303333Y-72858333D01*
X121236666Y-72810714D01*
X121170000Y-72810714D01*
X120670000Y-73429761D02*
X120736666Y-73477380D01*
X120870000Y-73477380D01*
X120936666Y-73429761D01*
X120970000Y-73334523D01*
X120970000Y-72953571D01*
X120936666Y-72858333D01*
X120870000Y-72810714D01*
X120736666Y-72810714D01*
X120670000Y-72858333D01*
X120636666Y-72953571D01*
X120636666Y-73048809D01*
X120970000Y-73144047D01*
X120403333Y-72810714D02*
X120036666Y-72810714D01*
X120403333Y-73477380D01*
X120036666Y-73477380D01*
X119670000Y-73477380D02*
X119736666Y-73429761D01*
X119770000Y-73382142D01*
X119803333Y-73286904D01*
X119803333Y-73001190D01*
X119770000Y-72905952D01*
X119736666Y-72858333D01*
X119670000Y-72810714D01*
X119570000Y-72810714D01*
X119503333Y-72858333D01*
X119470000Y-72905952D01*
X119436666Y-73001190D01*
X119436666Y-73286904D01*
X119470000Y-73382142D01*
X119503333Y-73429761D01*
X119570000Y-73477380D01*
X119670000Y-73477380D01*
X119136666Y-72810714D02*
X119136666Y-73477380D01*
X119136666Y-72905952D02*
X119103333Y-72858333D01*
X119036666Y-72810714D01*
X118936666Y-72810714D01*
X118870000Y-72858333D01*
X118836666Y-72953571D01*
X118836666Y-73477380D01*
D10*
X132006666Y-73294761D02*
X132673333Y-73294761D01*
X132673333Y-71294761D01*
X130940000Y-73294761D02*
X130940000Y-72247142D01*
X131006666Y-72056666D01*
X131140000Y-71961428D01*
X131406666Y-71961428D01*
X131540000Y-72056666D01*
X130940000Y-73199523D02*
X131073333Y-73294761D01*
X131406666Y-73294761D01*
X131540000Y-73199523D01*
X131606666Y-73009047D01*
X131606666Y-72818571D01*
X131540000Y-72628095D01*
X131406666Y-72532857D01*
X131073333Y-72532857D01*
X130940000Y-72437619D01*
X130273333Y-71961428D02*
X130273333Y-73294761D01*
X130273333Y-72151904D02*
X130206666Y-72056666D01*
X130073333Y-71961428D01*
X129873333Y-71961428D01*
X129740000Y-72056666D01*
X129673333Y-72247142D01*
X129673333Y-73294761D01*
X128406666Y-73199523D02*
X128540000Y-73294761D01*
X128806666Y-73294761D01*
X128940000Y-73199523D01*
X129006666Y-73104285D01*
X129073333Y-72913809D01*
X129073333Y-72342380D01*
X129006666Y-72151904D01*
X128940000Y-72056666D01*
X128806666Y-71961428D01*
X128540000Y-71961428D01*
X128406666Y-72056666D01*
X127273333Y-73199523D02*
X127406666Y-73294761D01*
X127673333Y-73294761D01*
X127806666Y-73199523D01*
X127873333Y-73009047D01*
X127873333Y-72247142D01*
X127806666Y-72056666D01*
X127673333Y-71961428D01*
X127406666Y-71961428D01*
X127273333Y-72056666D01*
X127206666Y-72247142D01*
X127206666Y-72437619D01*
X127873333Y-72628095D01*
X126606666Y-73294761D02*
X126606666Y-71961428D01*
X126606666Y-72342380D02*
X126540000Y-72151904D01*
X126473333Y-72056666D01*
X126340000Y-71961428D01*
X126206666Y-71961428D01*
D11*
X132863333Y-74715714D02*
X132863333Y-75525238D01*
X132896666Y-75620476D01*
X132930000Y-75668095D01*
X132996666Y-75715714D01*
X133096666Y-75715714D01*
X133163333Y-75668095D01*
X132863333Y-75334761D02*
X132930000Y-75382380D01*
X133063333Y-75382380D01*
X133130000Y-75334761D01*
X133163333Y-75287142D01*
X133196666Y-75191904D01*
X133196666Y-74906190D01*
X133163333Y-74810952D01*
X133130000Y-74763333D01*
X133063333Y-74715714D01*
X132930000Y-74715714D01*
X132863333Y-74763333D01*
X132530000Y-75382380D02*
X132530000Y-74715714D01*
X132530000Y-74382380D02*
X132563333Y-74430000D01*
X132530000Y-74477619D01*
X132496666Y-74430000D01*
X132530000Y-74382380D01*
X132530000Y-74477619D01*
X132296666Y-74715714D02*
X132030000Y-74715714D01*
X132196666Y-74382380D02*
X132196666Y-75239523D01*
X132163333Y-75334761D01*
X132096666Y-75382380D01*
X132030000Y-75382380D01*
X131796666Y-75382380D02*
X131796666Y-74382380D01*
X131496666Y-75382380D02*
X131496666Y-74858571D01*
X131530000Y-74763333D01*
X131596666Y-74715714D01*
X131696666Y-74715714D01*
X131763333Y-74763333D01*
X131796666Y-74810952D01*
X130863333Y-74715714D02*
X130863333Y-75382380D01*
X131163333Y-74715714D02*
X131163333Y-75239523D01*
X131130000Y-75334761D01*
X131063333Y-75382380D01*
X130963333Y-75382380D01*
X130896666Y-75334761D01*
X130863333Y-75287142D01*
X130530000Y-75382380D02*
X130530000Y-74382380D01*
X130530000Y-74763333D02*
X130463333Y-74715714D01*
X130330000Y-74715714D01*
X130263333Y-74763333D01*
X130230000Y-74810952D01*
X130196666Y-74906190D01*
X130196666Y-75191904D01*
X130230000Y-75287142D01*
X130263333Y-75334761D01*
X130330000Y-75382380D01*
X130463333Y-75382380D01*
X130530000Y-75334761D01*
X129896666Y-75287142D02*
X129863333Y-75334761D01*
X129896666Y-75382380D01*
X129930000Y-75334761D01*
X129896666Y-75287142D01*
X129896666Y-75382380D01*
X129263333Y-75334761D02*
X129330000Y-75382380D01*
X129463333Y-75382380D01*
X129530000Y-75334761D01*
X129563333Y-75287142D01*
X129596666Y-75191904D01*
X129596666Y-74906190D01*
X129563333Y-74810952D01*
X129530000Y-74763333D01*
X129463333Y-74715714D01*
X129330000Y-74715714D01*
X129263333Y-74763333D01*
X128863333Y-75382380D02*
X128930000Y-75334761D01*
X128963333Y-75287142D01*
X128996666Y-75191904D01*
X128996666Y-74906190D01*
X128963333Y-74810952D01*
X128930000Y-74763333D01*
X128863333Y-74715714D01*
X128763333Y-74715714D01*
X128696666Y-74763333D01*
X128663333Y-74810952D01*
X128630000Y-74906190D01*
X128630000Y-75191904D01*
X128663333Y-75287142D01*
X128696666Y-75334761D01*
X128763333Y-75382380D01*
X128863333Y-75382380D01*
X128330000Y-75382380D02*
X128330000Y-74715714D01*
X128330000Y-74810952D02*
X128296666Y-74763333D01*
X128230000Y-74715714D01*
X128130000Y-74715714D01*
X128063333Y-74763333D01*
X128030000Y-74858571D01*
X128030000Y-75382380D01*
X128030000Y-74858571D02*
X127996666Y-74763333D01*
X127930000Y-74715714D01*
X127830000Y-74715714D01*
X127763333Y-74763333D01*
X127730000Y-74858571D01*
X127730000Y-75382380D01*
X126896666Y-74334761D02*
X127496666Y-75620476D01*
X126696666Y-75334761D02*
X126630000Y-75382380D01*
X126496666Y-75382380D01*
X126430000Y-75334761D01*
X126396666Y-75239523D01*
X126396666Y-75191904D01*
X126430000Y-75096666D01*
X126496666Y-75049047D01*
X126596666Y-75049047D01*
X126663333Y-75001428D01*
X126696666Y-74906190D01*
X126696666Y-74858571D01*
X126663333Y-74763333D01*
X126596666Y-74715714D01*
X126496666Y-74715714D01*
X126430000Y-74763333D01*
X125796666Y-74715714D02*
X125796666Y-75382380D01*
X126096666Y-74715714D02*
X126096666Y-75239523D01*
X126063333Y-75334761D01*
X125996666Y-75382380D01*
X125896666Y-75382380D01*
X125830000Y-75334761D01*
X125796666Y-75287142D01*
X125463333Y-75382380D02*
X125463333Y-74382380D01*
X125463333Y-74763333D02*
X125396666Y-74715714D01*
X125263333Y-74715714D01*
X125196666Y-74763333D01*
X125163333Y-74810952D01*
X125130000Y-74906190D01*
X125130000Y-75191904D01*
X125163333Y-75287142D01*
X125196666Y-75334761D01*
X125263333Y-75382380D01*
X125396666Y-75382380D01*
X125463333Y-75334761D01*
X124830000Y-75382380D02*
X124830000Y-74715714D01*
X124830000Y-74906190D02*
X124796666Y-74810952D01*
X124763333Y-74763333D01*
X124696666Y-74715714D01*
X124630000Y-74715714D01*
X124130000Y-75334761D02*
X124196666Y-75382380D01*
X124330000Y-75382380D01*
X124396666Y-75334761D01*
X124430000Y-75239523D01*
X124430000Y-74858571D01*
X124396666Y-74763333D01*
X124330000Y-74715714D01*
X124196666Y-74715714D01*
X124130000Y-74763333D01*
X124096666Y-74858571D01*
X124096666Y-74953809D01*
X124430000Y-75049047D01*
X123863333Y-74715714D02*
X123496666Y-74715714D01*
X123863333Y-75382380D01*
X123496666Y-75382380D01*
X123130000Y-75382380D02*
X123196666Y-75334761D01*
X123230000Y-75287142D01*
X123263333Y-75191904D01*
X123263333Y-74906190D01*
X123230000Y-74810952D01*
X123196666Y-74763333D01*
X123130000Y-74715714D01*
X123030000Y-74715714D01*
X122963333Y-74763333D01*
X122930000Y-74810952D01*
X122896666Y-74906190D01*
X122896666Y-75191904D01*
X122930000Y-75287142D01*
X122963333Y-75334761D01*
X123030000Y-75382380D01*
X123130000Y-75382380D01*
X122596666Y-74715714D02*
X122596666Y-75382380D01*
X122596666Y-74810952D02*
X122563333Y-74763333D01*
X122496666Y-74715714D01*
X122396666Y-74715714D01*
X122330000Y-74763333D01*
X122296666Y-74858571D01*
X122296666Y-75382380D01*
X121463333Y-74334761D02*
X122063333Y-75620476D01*
X121130000Y-75382380D02*
X121196666Y-75334761D01*
X121230000Y-75239523D01*
X121230000Y-74382380D01*
X120563333Y-75382380D02*
X120563333Y-74858571D01*
X120596666Y-74763333D01*
X120663333Y-74715714D01*
X120796666Y-74715714D01*
X120863333Y-74763333D01*
X120563333Y-75334761D02*
X120630000Y-75382380D01*
X120796666Y-75382380D01*
X120863333Y-75334761D01*
X120896666Y-75239523D01*
X120896666Y-75144285D01*
X120863333Y-75049047D01*
X120796666Y-75001428D01*
X120630000Y-75001428D01*
X120563333Y-74953809D01*
X120230000Y-74715714D02*
X120230000Y-75382380D01*
X120230000Y-74810952D02*
X120196666Y-74763333D01*
X120130000Y-74715714D01*
X120030000Y-74715714D01*
X119963333Y-74763333D01*
X119930000Y-74858571D01*
X119930000Y-75382380D01*
X119296666Y-75334761D02*
X119363333Y-75382380D01*
X119496666Y-75382380D01*
X119563333Y-75334761D01*
X119596666Y-75287142D01*
X119630000Y-75191904D01*
X119630000Y-74906190D01*
X119596666Y-74810952D01*
X119563333Y-74763333D01*
X119496666Y-74715714D01*
X119363333Y-74715714D01*
X119296666Y-74763333D01*
X118730000Y-75334761D02*
X118796666Y-75382380D01*
X118930000Y-75382380D01*
X118996666Y-75334761D01*
X119030000Y-75239523D01*
X119030000Y-74858571D01*
X118996666Y-74763333D01*
X118930000Y-74715714D01*
X118796666Y-74715714D01*
X118730000Y-74763333D01*
X118696666Y-74858571D01*
X118696666Y-74953809D01*
X119030000Y-75049047D01*
X118396666Y-75382380D02*
X118396666Y-74715714D01*
X118396666Y-74906190D02*
X118363333Y-74810952D01*
X118330000Y-74763333D01*
X118263333Y-74715714D01*
X118196666Y-74715714D01*
D12*
%TO.C,D2*%
X46930000Y-34925000D02*
X46930000Y-36195000D01*
X50030000Y-35060000D02*
X50030000Y-36060000D01*
X49030000Y-36060000D02*
X49980000Y-35560000D01*
X52130000Y-34925000D02*
X46930000Y-34925000D01*
X49980000Y-35560000D02*
X49030000Y-35060000D01*
X49030000Y-35060000D02*
X49030000Y-36060000D01*
X46930000Y-36195000D02*
X52130000Y-36195000D01*
X52130000Y-36195000D02*
X52130000Y-34925000D01*
%TO.C,D32*%
X96655000Y-92210000D02*
X96655000Y-93210000D01*
X99755000Y-92075000D02*
X94555000Y-92075000D01*
X96655000Y-93210000D02*
X97605000Y-92710000D01*
X97605000Y-92710000D02*
X96655000Y-92210000D01*
X94555000Y-92075000D02*
X94555000Y-93345000D01*
X94555000Y-93345000D02*
X99755000Y-93345000D01*
X99755000Y-93345000D02*
X99755000Y-92075000D01*
X97655000Y-92210000D02*
X97655000Y-93210000D01*
%TO.C,D34*%
X137855000Y-92075000D02*
X132655000Y-92075000D01*
X135755000Y-93210000D02*
X135755000Y-92210000D01*
X134805000Y-92710000D02*
X135755000Y-93210000D01*
X132655000Y-93345000D02*
X137855000Y-93345000D01*
X137855000Y-93345000D02*
X137855000Y-92075000D01*
X135755000Y-92210000D02*
X134805000Y-92710000D01*
X132655000Y-92075000D02*
X132655000Y-93345000D01*
X134755000Y-93210000D02*
X134755000Y-92210000D01*
%TO.C,D20*%
X223580000Y-53975000D02*
X218380000Y-53975000D01*
X223580000Y-55245000D02*
X223580000Y-53975000D01*
X221480000Y-54110000D02*
X220530000Y-54610000D01*
X218380000Y-53975000D02*
X218380000Y-55245000D01*
X221480000Y-55110000D02*
X221480000Y-54110000D01*
X218380000Y-55245000D02*
X223580000Y-55245000D01*
X220530000Y-54610000D02*
X221480000Y-55110000D01*
X220480000Y-55110000D02*
X220480000Y-54110000D01*
%TO.C,D30*%
X223580000Y-74295000D02*
X223580000Y-73025000D01*
X220530000Y-73660000D02*
X221480000Y-74160000D01*
X218380000Y-74295000D02*
X223580000Y-74295000D01*
X221480000Y-73160000D02*
X220530000Y-73660000D01*
X218380000Y-73025000D02*
X218380000Y-74295000D01*
X220480000Y-74160000D02*
X220480000Y-73160000D01*
X221480000Y-74160000D02*
X221480000Y-73160000D01*
X223580000Y-73025000D02*
X218380000Y-73025000D01*
%TO.C,D8*%
X185480000Y-34925000D02*
X180280000Y-34925000D01*
X185480000Y-36195000D02*
X185480000Y-34925000D01*
X183380000Y-35060000D02*
X182430000Y-35560000D01*
X183380000Y-36060000D02*
X183380000Y-35060000D01*
X180280000Y-34925000D02*
X180280000Y-36195000D01*
X182380000Y-36060000D02*
X182380000Y-35060000D01*
X180280000Y-36195000D02*
X185480000Y-36195000D01*
X182430000Y-35560000D02*
X183380000Y-36060000D01*
%TO.C,D4*%
X90230000Y-34925000D02*
X85030000Y-34925000D01*
X88080000Y-35560000D02*
X87130000Y-35060000D01*
X85030000Y-34925000D02*
X85030000Y-36195000D01*
X87130000Y-36060000D02*
X88080000Y-35560000D01*
X85030000Y-36195000D02*
X90230000Y-36195000D01*
X90230000Y-36195000D02*
X90230000Y-34925000D01*
X87130000Y-35060000D02*
X87130000Y-36060000D01*
X88130000Y-35060000D02*
X88130000Y-36060000D01*
%TO.C,D11*%
X29980000Y-55110000D02*
X30930000Y-54610000D01*
X29980000Y-54110000D02*
X29980000Y-55110000D01*
X33080000Y-55245000D02*
X33080000Y-53975000D01*
X30930000Y-54610000D02*
X29980000Y-54110000D01*
X27880000Y-53975000D02*
X27880000Y-55245000D01*
X27880000Y-55245000D02*
X33080000Y-55245000D01*
X33080000Y-53975000D02*
X27880000Y-53975000D01*
X30980000Y-54110000D02*
X30980000Y-55110000D01*
%TO.C,D7*%
X166430000Y-34925000D02*
X161230000Y-34925000D01*
X166430000Y-36195000D02*
X166430000Y-34925000D01*
X161230000Y-34925000D02*
X161230000Y-36195000D01*
X164330000Y-35060000D02*
X163380000Y-35560000D01*
X163330000Y-36060000D02*
X163330000Y-35060000D01*
X163380000Y-35560000D02*
X164330000Y-36060000D01*
X161230000Y-36195000D02*
X166430000Y-36195000D01*
X164330000Y-36060000D02*
X164330000Y-35060000D01*
%TO.C,D29*%
X202430000Y-74160000D02*
X202430000Y-73160000D01*
X201430000Y-74160000D02*
X201430000Y-73160000D01*
X202430000Y-73160000D02*
X201480000Y-73660000D01*
X199330000Y-73025000D02*
X199330000Y-74295000D01*
X204530000Y-74295000D02*
X204530000Y-73025000D01*
X201480000Y-73660000D02*
X202430000Y-74160000D01*
X199330000Y-74295000D02*
X204530000Y-74295000D01*
X204530000Y-73025000D02*
X199330000Y-73025000D01*
%TO.C,D3*%
X71180000Y-36195000D02*
X71180000Y-34925000D01*
X69080000Y-35060000D02*
X69080000Y-36060000D01*
X65980000Y-36195000D02*
X71180000Y-36195000D01*
X71180000Y-34925000D02*
X65980000Y-34925000D01*
X68080000Y-35060000D02*
X68080000Y-36060000D01*
X68080000Y-36060000D02*
X69030000Y-35560000D01*
X69030000Y-35560000D02*
X68080000Y-35060000D01*
X65980000Y-34925000D02*
X65980000Y-36195000D01*
%TO.C,D23*%
X69030000Y-73660000D02*
X68080000Y-73160000D01*
X71180000Y-73025000D02*
X65980000Y-73025000D01*
X68080000Y-73160000D02*
X68080000Y-74160000D01*
X65980000Y-74295000D02*
X71180000Y-74295000D01*
X68080000Y-74160000D02*
X69030000Y-73660000D01*
X69080000Y-73160000D02*
X69080000Y-74160000D01*
X65980000Y-73025000D02*
X65980000Y-74295000D01*
X71180000Y-74295000D02*
X71180000Y-73025000D01*
%TO.C,D27*%
X163330000Y-74160000D02*
X163330000Y-73160000D01*
X164330000Y-74160000D02*
X164330000Y-73160000D01*
X161230000Y-74295000D02*
X166430000Y-74295000D01*
X161230000Y-73025000D02*
X161230000Y-74295000D01*
X164330000Y-73160000D02*
X163380000Y-73660000D01*
X166430000Y-73025000D02*
X161230000Y-73025000D01*
X163380000Y-73660000D02*
X164330000Y-74160000D01*
X166430000Y-74295000D02*
X166430000Y-73025000D01*
%TO.C,D1*%
X33080000Y-36195000D02*
X33080000Y-34925000D01*
X29980000Y-36060000D02*
X30930000Y-35560000D01*
X33080000Y-34925000D02*
X27880000Y-34925000D01*
X30930000Y-35560000D02*
X29980000Y-35060000D01*
X30980000Y-35060000D02*
X30980000Y-36060000D01*
X29980000Y-35060000D02*
X29980000Y-36060000D01*
X27880000Y-34925000D02*
X27880000Y-36195000D01*
X27880000Y-36195000D02*
X33080000Y-36195000D01*
%TO.C,D9*%
X199330000Y-36195000D02*
X204530000Y-36195000D01*
X199330000Y-34925000D02*
X199330000Y-36195000D01*
X201480000Y-35560000D02*
X202430000Y-36060000D01*
X204530000Y-34925000D02*
X199330000Y-34925000D01*
X201430000Y-36060000D02*
X201430000Y-35060000D01*
X202430000Y-35060000D02*
X201480000Y-35560000D01*
X204530000Y-36195000D02*
X204530000Y-34925000D01*
X202430000Y-36060000D02*
X202430000Y-35060000D01*
%TO.C,D28*%
X182430000Y-73660000D02*
X183380000Y-74160000D01*
X185480000Y-73025000D02*
X180280000Y-73025000D01*
X183380000Y-74160000D02*
X183380000Y-73160000D01*
X180280000Y-73025000D02*
X180280000Y-74295000D01*
X180280000Y-74295000D02*
X185480000Y-74295000D01*
X182380000Y-74160000D02*
X182380000Y-73160000D01*
X183380000Y-73160000D02*
X182430000Y-73660000D01*
X185480000Y-74295000D02*
X185480000Y-73025000D01*
%TO.C,D16*%
X142180000Y-53975000D02*
X142180000Y-55245000D01*
X144280000Y-55110000D02*
X144280000Y-54110000D01*
X144330000Y-54610000D02*
X145280000Y-55110000D01*
X147380000Y-53975000D02*
X142180000Y-53975000D01*
X142180000Y-55245000D02*
X147380000Y-55245000D01*
X145280000Y-54110000D02*
X144330000Y-54610000D01*
X145280000Y-55110000D02*
X145280000Y-54110000D01*
X147380000Y-55245000D02*
X147380000Y-53975000D01*
%TO.C,D35*%
X151705000Y-93345000D02*
X156905000Y-93345000D01*
X153805000Y-93210000D02*
X153805000Y-92210000D01*
X154805000Y-93210000D02*
X154805000Y-92210000D01*
X153855000Y-92710000D02*
X154805000Y-93210000D01*
X156905000Y-92075000D02*
X151705000Y-92075000D01*
X151705000Y-92075000D02*
X151705000Y-93345000D01*
X154805000Y-92210000D02*
X153855000Y-92710000D01*
X156905000Y-93345000D02*
X156905000Y-92075000D01*
D13*
%TO.C,SW37*%
X124130000Y-24615000D02*
X125830000Y-24615000D01*
X127130000Y-24615000D02*
X127330000Y-24615000D01*
X129180000Y-22775000D02*
X129180000Y-23565000D01*
X122880000Y-21765000D02*
X128580000Y-21765000D01*
X122280000Y-23565000D02*
X122280000Y-22775000D01*
D12*
%TO.C,D18*%
X182380000Y-55110000D02*
X182380000Y-54110000D01*
X180280000Y-53975000D02*
X180280000Y-55245000D01*
X183380000Y-54110000D02*
X182430000Y-54610000D01*
X183380000Y-55110000D02*
X183380000Y-54110000D01*
X185480000Y-53975000D02*
X180280000Y-53975000D01*
X185480000Y-55245000D02*
X185480000Y-53975000D01*
X182430000Y-54610000D02*
X183380000Y-55110000D01*
X180280000Y-55245000D02*
X185480000Y-55245000D01*
%TO.C,D33*%
X115705000Y-93210000D02*
X116655000Y-92710000D01*
X115705000Y-92210000D02*
X115705000Y-93210000D01*
X118805000Y-93345000D02*
X118805000Y-92075000D01*
X116655000Y-92710000D02*
X115705000Y-92210000D01*
X113605000Y-93345000D02*
X118805000Y-93345000D01*
X116705000Y-92210000D02*
X116705000Y-93210000D01*
X113605000Y-92075000D02*
X113605000Y-93345000D01*
X118805000Y-92075000D02*
X113605000Y-92075000D01*
%TO.C,D6*%
X147380000Y-34925000D02*
X142180000Y-34925000D01*
X144280000Y-36060000D02*
X144280000Y-35060000D01*
X142180000Y-34925000D02*
X142180000Y-36195000D01*
X145280000Y-35060000D02*
X144330000Y-35560000D01*
X144330000Y-35560000D02*
X145280000Y-36060000D01*
X142180000Y-36195000D02*
X147380000Y-36195000D01*
X145280000Y-36060000D02*
X145280000Y-35060000D01*
X147380000Y-36195000D02*
X147380000Y-34925000D01*
%TO.C,D36*%
X170755000Y-92075000D02*
X170755000Y-93345000D01*
X175955000Y-93345000D02*
X175955000Y-92075000D01*
X172855000Y-93210000D02*
X172855000Y-92210000D01*
X173855000Y-92210000D02*
X172905000Y-92710000D01*
X173855000Y-93210000D02*
X173855000Y-92210000D01*
X175955000Y-92075000D02*
X170755000Y-92075000D01*
X170755000Y-93345000D02*
X175955000Y-93345000D01*
X172905000Y-92710000D02*
X173855000Y-93210000D01*
%TO.C,D17*%
X164330000Y-54110000D02*
X163380000Y-54610000D01*
X166430000Y-55245000D02*
X166430000Y-53975000D01*
X161230000Y-55245000D02*
X166430000Y-55245000D01*
X161230000Y-53975000D02*
X161230000Y-55245000D01*
X163330000Y-55110000D02*
X163330000Y-54110000D01*
X166430000Y-53975000D02*
X161230000Y-53975000D01*
X163380000Y-54610000D02*
X164330000Y-55110000D01*
X164330000Y-55110000D02*
X164330000Y-54110000D01*
%TO.C,D5*%
X106180000Y-35060000D02*
X106180000Y-36060000D01*
X109280000Y-36195000D02*
X109280000Y-34925000D01*
X106180000Y-36060000D02*
X107130000Y-35560000D01*
X104080000Y-36195000D02*
X109280000Y-36195000D01*
X109280000Y-34925000D02*
X104080000Y-34925000D01*
X104080000Y-34925000D02*
X104080000Y-36195000D01*
X107180000Y-35060000D02*
X107180000Y-36060000D01*
X107130000Y-35560000D02*
X106180000Y-35060000D01*
%TO.C,D21*%
X29980000Y-73160000D02*
X29980000Y-74160000D01*
X27880000Y-74295000D02*
X33080000Y-74295000D01*
X33080000Y-74295000D02*
X33080000Y-73025000D01*
X29980000Y-74160000D02*
X30930000Y-73660000D01*
X27880000Y-73025000D02*
X27880000Y-74295000D01*
X30980000Y-73160000D02*
X30980000Y-74160000D01*
X33080000Y-73025000D02*
X27880000Y-73025000D01*
X30930000Y-73660000D02*
X29980000Y-73160000D01*
%TO.C,D12*%
X49030000Y-55110000D02*
X49980000Y-54610000D01*
X49980000Y-54610000D02*
X49030000Y-54110000D01*
X46930000Y-53975000D02*
X46930000Y-55245000D01*
X50030000Y-54110000D02*
X50030000Y-55110000D01*
X52130000Y-55245000D02*
X52130000Y-53975000D01*
X49030000Y-54110000D02*
X49030000Y-55110000D01*
X52130000Y-53975000D02*
X46930000Y-53975000D01*
X46930000Y-55245000D02*
X52130000Y-55245000D01*
%TO.C,D10*%
X218380000Y-34925000D02*
X218380000Y-36195000D01*
X221480000Y-36060000D02*
X221480000Y-35060000D01*
X218380000Y-36195000D02*
X223580000Y-36195000D01*
X223580000Y-36195000D02*
X223580000Y-34925000D01*
X220530000Y-35560000D02*
X221480000Y-36060000D01*
X220480000Y-36060000D02*
X220480000Y-35060000D01*
X221480000Y-35060000D02*
X220530000Y-35560000D01*
X223580000Y-34925000D02*
X218380000Y-34925000D01*
%TO.C,D26*%
X142180000Y-74295000D02*
X147380000Y-74295000D01*
X142180000Y-73025000D02*
X142180000Y-74295000D01*
X145280000Y-74160000D02*
X145280000Y-73160000D01*
X144280000Y-74160000D02*
X144280000Y-73160000D01*
X145280000Y-73160000D02*
X144330000Y-73660000D01*
X147380000Y-73025000D02*
X142180000Y-73025000D01*
X147380000Y-74295000D02*
X147380000Y-73025000D01*
X144330000Y-73660000D02*
X145280000Y-74160000D01*
%TO.C,D25*%
X106180000Y-73160000D02*
X106180000Y-74160000D01*
X109280000Y-74295000D02*
X109280000Y-73025000D01*
X107130000Y-73660000D02*
X106180000Y-73160000D01*
X104080000Y-73025000D02*
X104080000Y-74295000D01*
X104080000Y-74295000D02*
X109280000Y-74295000D01*
X107180000Y-73160000D02*
X107180000Y-74160000D01*
X106180000Y-74160000D02*
X107130000Y-73660000D01*
X109280000Y-73025000D02*
X104080000Y-73025000D01*
%TO.C,D19*%
X202430000Y-54110000D02*
X201480000Y-54610000D01*
X199330000Y-53975000D02*
X199330000Y-55245000D01*
X202430000Y-55110000D02*
X202430000Y-54110000D01*
X201480000Y-54610000D02*
X202430000Y-55110000D01*
X199330000Y-55245000D02*
X204530000Y-55245000D01*
X204530000Y-55245000D02*
X204530000Y-53975000D01*
X204530000Y-53975000D02*
X199330000Y-53975000D01*
X201430000Y-55110000D02*
X201430000Y-54110000D01*
%TO.C,D13*%
X68080000Y-54110000D02*
X68080000Y-55110000D01*
X71180000Y-53975000D02*
X65980000Y-53975000D01*
X68080000Y-55110000D02*
X69030000Y-54610000D01*
X69030000Y-54610000D02*
X68080000Y-54110000D01*
X65980000Y-53975000D02*
X65980000Y-55245000D01*
X71180000Y-55245000D02*
X71180000Y-53975000D01*
X69080000Y-54110000D02*
X69080000Y-55110000D01*
X65980000Y-55245000D02*
X71180000Y-55245000D01*
%TO.C,D22*%
X49030000Y-73160000D02*
X49030000Y-74160000D01*
X50030000Y-73160000D02*
X50030000Y-74160000D01*
X46930000Y-74295000D02*
X52130000Y-74295000D01*
X52130000Y-73025000D02*
X46930000Y-73025000D01*
X52130000Y-74295000D02*
X52130000Y-73025000D01*
X49030000Y-74160000D02*
X49980000Y-73660000D01*
X46930000Y-73025000D02*
X46930000Y-74295000D01*
X49980000Y-73660000D02*
X49030000Y-73160000D01*
%TO.C,D15*%
X104080000Y-53975000D02*
X104080000Y-55245000D01*
X106180000Y-55110000D02*
X107130000Y-54610000D01*
X104080000Y-55245000D02*
X109280000Y-55245000D01*
X106180000Y-54110000D02*
X106180000Y-55110000D01*
X109280000Y-55245000D02*
X109280000Y-53975000D01*
X107130000Y-54610000D02*
X106180000Y-54110000D01*
X109280000Y-53975000D02*
X104080000Y-53975000D01*
X107180000Y-54110000D02*
X107180000Y-55110000D01*
%TO.C,D14*%
X85030000Y-55245000D02*
X90230000Y-55245000D01*
X90230000Y-53975000D02*
X85030000Y-53975000D01*
X87130000Y-55110000D02*
X88080000Y-54610000D01*
X90230000Y-55245000D02*
X90230000Y-53975000D01*
X88080000Y-54610000D02*
X87130000Y-54110000D01*
X85030000Y-53975000D02*
X85030000Y-55245000D01*
X87130000Y-54110000D02*
X87130000Y-55110000D01*
X88130000Y-54110000D02*
X88130000Y-55110000D01*
%TO.C,D31*%
X78555000Y-92710000D02*
X77605000Y-92210000D01*
X80705000Y-92075000D02*
X75505000Y-92075000D01*
X75505000Y-92075000D02*
X75505000Y-93345000D01*
X75505000Y-93345000D02*
X80705000Y-93345000D01*
X77605000Y-92210000D02*
X77605000Y-93210000D01*
X80705000Y-93345000D02*
X80705000Y-92075000D01*
X77605000Y-93210000D02*
X78555000Y-92710000D01*
X78605000Y-92210000D02*
X78605000Y-93210000D01*
%TO.C,D24*%
X87130000Y-74160000D02*
X88080000Y-73660000D01*
X88130000Y-73160000D02*
X88130000Y-74160000D01*
X85030000Y-74295000D02*
X90230000Y-74295000D01*
X87130000Y-73160000D02*
X87130000Y-74160000D01*
X90230000Y-73025000D02*
X85030000Y-73025000D01*
X88080000Y-73660000D02*
X87130000Y-73160000D01*
X90230000Y-74295000D02*
X90230000Y-73025000D01*
X85030000Y-73025000D02*
X85030000Y-74295000D01*
%TD*%
%LPC*%
D14*
%TO.C,SW10*%
X223520000Y-25400000D03*
X217170000Y-27940000D03*
D15*
X220980000Y-30480000D03*
D16*
X215900000Y-30480000D03*
X226060000Y-30480000D03*
D17*
X213895000Y-27940000D03*
X226822000Y-25400000D03*
%TD*%
D18*
%TO.C,H7*%
X87630000Y-78105000D03*
%TD*%
%TO.C,H1*%
X40005000Y-40005000D03*
%TD*%
D16*
%TO.C,SW15*%
X111760000Y-49530000D03*
X101600000Y-49530000D03*
D14*
X109220000Y-44450000D03*
X102870000Y-46990000D03*
D15*
X106680000Y-49530000D03*
D17*
X99595000Y-46990000D03*
X112522000Y-44450000D03*
%TD*%
D14*
%TO.C,SW19*%
X198120000Y-46990000D03*
D16*
X207010000Y-49530000D03*
X196850000Y-49530000D03*
D15*
X201930000Y-49530000D03*
D14*
X204470000Y-44450000D03*
D17*
X194845000Y-46990000D03*
X207772000Y-44450000D03*
%TD*%
D14*
%TO.C,SW18*%
X179070000Y-46990000D03*
D16*
X187960000Y-49530000D03*
D15*
X182880000Y-49530000D03*
D16*
X177800000Y-49530000D03*
D14*
X185420000Y-44450000D03*
D17*
X175795000Y-46990000D03*
X188722000Y-44450000D03*
%TD*%
D18*
%TO.C,H5*%
X40005000Y-59055000D03*
%TD*%
D14*
%TO.C,SW35*%
X150495000Y-85090000D03*
D15*
X154305000Y-87630000D03*
D14*
X156845000Y-82550000D03*
D16*
X159385000Y-87630000D03*
X149225000Y-87630000D03*
D17*
X147220000Y-85090000D03*
X160147000Y-82550000D03*
%TD*%
D14*
%TO.C,SW31*%
X74295000Y-85090000D03*
D16*
X73025000Y-87630000D03*
D14*
X80645000Y-82550000D03*
D15*
X78105000Y-87630000D03*
D16*
X83185000Y-87630000D03*
D17*
X71020000Y-85090000D03*
X83947000Y-82550000D03*
%TD*%
D14*
%TO.C,SW27*%
X166370000Y-63500000D03*
X160020000Y-66040000D03*
D16*
X168910000Y-68580000D03*
X158750000Y-68580000D03*
D15*
X163830000Y-68580000D03*
D17*
X156745000Y-66040000D03*
X169672000Y-63500000D03*
%TD*%
D19*
%TO.C,O1*%
X120650000Y-57150000D03*
X123190000Y-57150000D03*
X125730000Y-57150000D03*
X128270000Y-57150000D03*
X130810000Y-57150000D03*
%TD*%
D14*
%TO.C,SW8*%
X179070000Y-27940000D03*
D16*
X177800000Y-30480000D03*
X187960000Y-30480000D03*
D15*
X182880000Y-30480000D03*
D14*
X185420000Y-25400000D03*
D17*
X175795000Y-27940000D03*
X188722000Y-25400000D03*
%TD*%
D20*
%TO.C,H10*%
X132080000Y-63500000D03*
%TD*%
D19*
%TO.C,H11*%
X120015000Y-22225000D03*
%TD*%
D14*
%TO.C,SW16*%
X147320000Y-44450000D03*
D16*
X149860000Y-49530000D03*
D15*
X144780000Y-49530000D03*
D16*
X139700000Y-49530000D03*
D14*
X140970000Y-46990000D03*
D17*
X137695000Y-46990000D03*
X150622000Y-44450000D03*
%TD*%
D15*
%TO.C,SW13*%
X68580000Y-49530000D03*
D16*
X73660000Y-49530000D03*
D14*
X64770000Y-46990000D03*
D16*
X63500000Y-49530000D03*
D14*
X71120000Y-44450000D03*
D17*
X61495000Y-46990000D03*
X74422000Y-44450000D03*
%TD*%
D16*
%TO.C,SW21*%
X25400000Y-68580000D03*
D14*
X26670000Y-66040000D03*
X33020000Y-63500000D03*
D16*
X35560000Y-68580000D03*
D15*
X30480000Y-68580000D03*
D17*
X23395000Y-66040000D03*
X36322000Y-63500000D03*
%TD*%
D15*
%TO.C,SW14*%
X87630000Y-49530000D03*
D14*
X90170000Y-44450000D03*
D16*
X82550000Y-49530000D03*
D14*
X83820000Y-46990000D03*
D16*
X92710000Y-49530000D03*
D17*
X80545000Y-46990000D03*
X93472000Y-44450000D03*
%TD*%
D15*
%TO.C,SW32*%
X97155000Y-87630000D03*
D14*
X93345000Y-85090000D03*
X99695000Y-82550000D03*
D16*
X92075000Y-87630000D03*
X102235000Y-87630000D03*
D17*
X90070000Y-85090000D03*
X102997000Y-82550000D03*
%TD*%
D16*
%TO.C,SW1*%
X35560000Y-30480000D03*
D15*
X30480000Y-30480000D03*
D14*
X33020000Y-25400000D03*
X26670000Y-27940000D03*
D16*
X25400000Y-30480000D03*
D17*
X23395000Y-27940000D03*
X36322000Y-25400000D03*
%TD*%
D14*
%TO.C,SW24*%
X90170000Y-63500000D03*
D16*
X92710000Y-68580000D03*
D14*
X83820000Y-66040000D03*
D16*
X82550000Y-68580000D03*
D15*
X87630000Y-68580000D03*
D17*
X80545000Y-66040000D03*
X93472000Y-63500000D03*
%TD*%
D20*
%TO.C,H9*%
X119380000Y-63500000D03*
%TD*%
D16*
%TO.C,SW23*%
X73660000Y-68580000D03*
D14*
X71120000Y-63500000D03*
X64770000Y-66040000D03*
D15*
X68580000Y-68580000D03*
D16*
X63500000Y-68580000D03*
D17*
X61495000Y-66040000D03*
X74422000Y-63500000D03*
%TD*%
D14*
%TO.C,SW9*%
X198120000Y-27940000D03*
X204470000Y-25400000D03*
D15*
X201930000Y-30480000D03*
D16*
X196850000Y-30480000D03*
X207010000Y-30480000D03*
D17*
X194845000Y-27940000D03*
X207772000Y-25400000D03*
%TD*%
D19*
%TO.C,U1*%
X133350000Y-24765000D03*
X133350000Y-27305000D03*
X133350000Y-29845000D03*
X133350000Y-32385000D03*
X133350000Y-34925000D03*
X133350000Y-37465000D03*
X133350000Y-40005000D03*
X133350000Y-42545000D03*
X133350000Y-45085000D03*
X133350000Y-47625000D03*
X133350000Y-50165000D03*
X133350000Y-52705000D03*
X118110000Y-52705000D03*
X118110000Y-50165000D03*
X118110000Y-47625000D03*
X118110000Y-45085000D03*
X118110000Y-42545000D03*
X118110000Y-40005000D03*
X118110000Y-37465000D03*
X118110000Y-34925000D03*
X118110000Y-32385000D03*
X118110000Y-29845000D03*
X118110000Y-27305000D03*
X118110000Y-24765000D03*
%TD*%
D15*
%TO.C,SW30*%
X220980000Y-68580000D03*
D14*
X217170000Y-66040000D03*
X223520000Y-63500000D03*
D16*
X226060000Y-68580000D03*
X215900000Y-68580000D03*
D17*
X213895000Y-66040000D03*
X226822000Y-63500000D03*
%TD*%
D14*
%TO.C,SW34*%
X131445000Y-85090000D03*
D16*
X130175000Y-87630000D03*
D15*
X135255000Y-87630000D03*
D14*
X137795000Y-82550000D03*
D16*
X140335000Y-87630000D03*
D17*
X128170000Y-85090000D03*
X141097000Y-82550000D03*
%TD*%
D14*
%TO.C,SW20*%
X223520000Y-44450000D03*
X217170000Y-46990000D03*
D16*
X215900000Y-49530000D03*
D15*
X220980000Y-49530000D03*
D16*
X226060000Y-49530000D03*
D17*
X213895000Y-46990000D03*
X226822000Y-44450000D03*
%TD*%
D14*
%TO.C,SW26*%
X147320000Y-63500000D03*
D16*
X139700000Y-68580000D03*
D14*
X140970000Y-66040000D03*
D16*
X149860000Y-68580000D03*
D15*
X144780000Y-68580000D03*
D17*
X137695000Y-66040000D03*
X150622000Y-63500000D03*
%TD*%
D14*
%TO.C,SW25*%
X102870000Y-66040000D03*
D15*
X106680000Y-68580000D03*
D16*
X101600000Y-68580000D03*
D14*
X109220000Y-63500000D03*
D16*
X111760000Y-68580000D03*
D17*
X99595000Y-66040000D03*
X112522000Y-63500000D03*
%TD*%
D18*
%TO.C,H8*%
X163830000Y-78105000D03*
%TD*%
D16*
%TO.C,SW29*%
X196850000Y-68580000D03*
D14*
X198120000Y-66040000D03*
D16*
X207010000Y-68580000D03*
D15*
X201930000Y-68580000D03*
D14*
X204470000Y-63500000D03*
D17*
X194845000Y-66040000D03*
X207772000Y-63500000D03*
%TD*%
D18*
%TO.C,H4*%
X211455000Y-40005000D03*
%TD*%
D21*
%TO.C,SW38*%
X122480000Y-68580000D03*
X128980000Y-68580000D03*
%TD*%
D16*
%TO.C,SW4*%
X92710000Y-30480000D03*
D14*
X83820000Y-27940000D03*
D16*
X82550000Y-30480000D03*
D14*
X90170000Y-25400000D03*
D15*
X87630000Y-30480000D03*
D17*
X80545000Y-27940000D03*
X93472000Y-25400000D03*
%TD*%
D14*
%TO.C,SW36*%
X175895000Y-82550000D03*
D15*
X173355000Y-87630000D03*
D14*
X169545000Y-85090000D03*
D16*
X168275000Y-87630000D03*
X178435000Y-87630000D03*
D17*
X166270000Y-85090000D03*
X179197000Y-82550000D03*
%TD*%
D18*
%TO.C,H2*%
X97155000Y-40005000D03*
%TD*%
D16*
%TO.C,SW22*%
X54610000Y-68580000D03*
D14*
X45720000Y-66040000D03*
D15*
X49530000Y-68580000D03*
D14*
X52070000Y-63500000D03*
D16*
X44450000Y-68580000D03*
D17*
X42445000Y-66040000D03*
X55372000Y-63500000D03*
%TD*%
D18*
%TO.C,H6*%
X211455000Y-59055000D03*
%TD*%
D16*
%TO.C,SW5*%
X101600000Y-30480000D03*
D15*
X106680000Y-30480000D03*
D16*
X111760000Y-30480000D03*
D14*
X109220000Y-25400000D03*
X102870000Y-27940000D03*
D17*
X99595000Y-27940000D03*
X112522000Y-25400000D03*
%TD*%
D18*
%TO.C,H3*%
X154305000Y-40005000D03*
%TD*%
D14*
%TO.C,SW7*%
X160020000Y-27940000D03*
D16*
X168910000Y-30480000D03*
X158750000Y-30480000D03*
D14*
X166370000Y-25400000D03*
D15*
X163830000Y-30480000D03*
D17*
X156745000Y-27940000D03*
X169672000Y-25400000D03*
%TD*%
D15*
%TO.C,SW2*%
X49530000Y-30480000D03*
D16*
X44450000Y-30480000D03*
X54610000Y-30480000D03*
D14*
X45720000Y-27940000D03*
X52070000Y-25400000D03*
D17*
X42445000Y-27940000D03*
X55372000Y-25400000D03*
%TD*%
D19*
%TO.C,H12*%
X131445000Y-22225000D03*
%TD*%
D14*
%TO.C,SW3*%
X71120000Y-25400000D03*
D16*
X63500000Y-30480000D03*
D14*
X64770000Y-27940000D03*
D15*
X68580000Y-30480000D03*
D16*
X73660000Y-30480000D03*
D17*
X61495000Y-27940000D03*
X74422000Y-25400000D03*
%TD*%
D16*
%TO.C,SW17*%
X168910000Y-49530000D03*
D15*
X163830000Y-49530000D03*
D16*
X158750000Y-49530000D03*
D14*
X160020000Y-46990000D03*
X166370000Y-44450000D03*
D17*
X156745000Y-46990000D03*
X169672000Y-44450000D03*
%TD*%
D16*
%TO.C,SW11*%
X25400000Y-49530000D03*
D14*
X33020000Y-44450000D03*
X26670000Y-46990000D03*
D15*
X30480000Y-49530000D03*
D16*
X35560000Y-49530000D03*
D17*
X23395000Y-46990000D03*
X36322000Y-44450000D03*
%TD*%
D14*
%TO.C,SW12*%
X45720000Y-46990000D03*
X52070000Y-44450000D03*
D16*
X54610000Y-49530000D03*
D15*
X49530000Y-49530000D03*
D16*
X44450000Y-49530000D03*
D17*
X42445000Y-46990000D03*
X55372000Y-44450000D03*
%TD*%
D16*
%TO.C,SW33*%
X121285000Y-87630000D03*
D14*
X112395000Y-85090000D03*
D15*
X116205000Y-87630000D03*
D14*
X118745000Y-82550000D03*
D16*
X111125000Y-87630000D03*
D17*
X109120000Y-85090000D03*
X122047000Y-82550000D03*
%TD*%
D16*
%TO.C,SW28*%
X187960000Y-68580000D03*
D14*
X179070000Y-66040000D03*
X185420000Y-63500000D03*
D16*
X177800000Y-68580000D03*
D15*
X182880000Y-68580000D03*
D17*
X175795000Y-66040000D03*
X188722000Y-63500000D03*
%TD*%
D14*
%TO.C,SW6*%
X140970000Y-27940000D03*
D15*
X144780000Y-30480000D03*
D16*
X139700000Y-30480000D03*
D14*
X147320000Y-25400000D03*
D16*
X149860000Y-30480000D03*
D17*
X137695000Y-27940000D03*
X150622000Y-25400000D03*
%TD*%
D22*
%TO.C,D2*%
X51305000Y-35560000D03*
X47755000Y-35560000D03*
%TD*%
%TO.C,D32*%
X98930000Y-92710000D03*
X95380000Y-92710000D03*
%TD*%
%TO.C,D34*%
X133480000Y-92710000D03*
X137030000Y-92710000D03*
%TD*%
%TO.C,D20*%
X219205000Y-54610000D03*
X222755000Y-54610000D03*
%TD*%
%TO.C,D30*%
X219205000Y-73660000D03*
X222755000Y-73660000D03*
%TD*%
%TO.C,D8*%
X181105000Y-35560000D03*
X184655000Y-35560000D03*
%TD*%
%TO.C,D4*%
X89405000Y-35560000D03*
X85855000Y-35560000D03*
%TD*%
%TO.C,D11*%
X32255000Y-54610000D03*
X28705000Y-54610000D03*
%TD*%
%TO.C,D7*%
X162055000Y-35560000D03*
X165605000Y-35560000D03*
%TD*%
%TO.C,D29*%
X200155000Y-73660000D03*
X203705000Y-73660000D03*
%TD*%
%TO.C,D3*%
X70355000Y-35560000D03*
X66805000Y-35560000D03*
%TD*%
%TO.C,D23*%
X70355000Y-73660000D03*
X66805000Y-73660000D03*
%TD*%
%TO.C,D27*%
X162055000Y-73660000D03*
X165605000Y-73660000D03*
%TD*%
%TO.C,D1*%
X32255000Y-35560000D03*
X28705000Y-35560000D03*
%TD*%
%TO.C,D9*%
X200155000Y-35560000D03*
X203705000Y-35560000D03*
%TD*%
%TO.C,D28*%
X181105000Y-73660000D03*
X184655000Y-73660000D03*
%TD*%
%TO.C,D16*%
X143005000Y-54610000D03*
X146555000Y-54610000D03*
%TD*%
%TO.C,D35*%
X152530000Y-92710000D03*
X156080000Y-92710000D03*
%TD*%
D23*
%TO.C,SW37*%
X127230000Y-23165000D03*
D24*
X122080000Y-24275000D03*
X122080000Y-22065000D03*
D23*
X124230000Y-23165000D03*
D24*
X129380000Y-24275000D03*
X129380000Y-22065000D03*
D25*
X123480000Y-24925000D03*
X126480000Y-24925000D03*
X127980000Y-24925000D03*
%TD*%
D22*
%TO.C,D18*%
X181105000Y-54610000D03*
X184655000Y-54610000D03*
%TD*%
%TO.C,D33*%
X117980000Y-92710000D03*
X114430000Y-92710000D03*
%TD*%
%TO.C,D6*%
X143005000Y-35560000D03*
X146555000Y-35560000D03*
%TD*%
%TO.C,D36*%
X171580000Y-92710000D03*
X175130000Y-92710000D03*
%TD*%
%TO.C,D17*%
X162055000Y-54610000D03*
X165605000Y-54610000D03*
%TD*%
%TO.C,D5*%
X108455000Y-35560000D03*
X104905000Y-35560000D03*
%TD*%
%TO.C,D21*%
X32255000Y-73660000D03*
X28705000Y-73660000D03*
%TD*%
%TO.C,D12*%
X51305000Y-54610000D03*
X47755000Y-54610000D03*
%TD*%
%TO.C,D10*%
X219205000Y-35560000D03*
X222755000Y-35560000D03*
%TD*%
%TO.C,D26*%
X143005000Y-73660000D03*
X146555000Y-73660000D03*
%TD*%
%TO.C,D25*%
X108455000Y-73660000D03*
X104905000Y-73660000D03*
%TD*%
%TO.C,D19*%
X200155000Y-54610000D03*
X203705000Y-54610000D03*
%TD*%
%TO.C,D13*%
X70355000Y-54610000D03*
X66805000Y-54610000D03*
%TD*%
%TO.C,D22*%
X51305000Y-73660000D03*
X47755000Y-73660000D03*
%TD*%
%TO.C,D15*%
X108455000Y-54610000D03*
X104905000Y-54610000D03*
%TD*%
%TO.C,D14*%
X89405000Y-54610000D03*
X85855000Y-54610000D03*
%TD*%
%TO.C,D31*%
X79880000Y-92710000D03*
X76330000Y-92710000D03*
%TD*%
%TO.C,D24*%
X89405000Y-73660000D03*
X85855000Y-73660000D03*
%TD*%
M02*
