%TF.GenerationSoftware,KiCad,Pcbnew,7.0.7*%
%TF.CreationDate,2023-08-21T18:25:40+02:00*%
%TF.ProjectId,lancer-hotswap,6c616e63-6572-42d6-986f-74737761702e,rev?*%
%TF.SameCoordinates,Original*%
%TF.FileFunction,Soldermask,Bot*%
%TF.FilePolarity,Negative*%
%FSLAX46Y46*%
G04 Gerber Fmt 4.6, Leading zero omitted, Abs format (unit mm)*
G04 Created by KiCad (PCBNEW 7.0.7) date 2023-08-21 18:25:40*
%MOMM*%
%LPD*%
G01*
G04 APERTURE LIST*
G04 Aperture macros list*
%AMRoundRect*
0 Rectangle with rounded corners*
0 $1 Rounding radius*
0 $2 $3 $4 $5 $6 $7 $8 $9 X,Y pos of 4 corners*
0 Add a 4 corners polygon primitive as box body*
4,1,4,$2,$3,$4,$5,$6,$7,$8,$9,$2,$3,0*
0 Add four circle primitives for the rounded corners*
1,1,$1+$1,$2,$3*
1,1,$1+$1,$4,$5*
1,1,$1+$1,$6,$7*
1,1,$1+$1,$8,$9*
0 Add four rect primitives between the rounded corners*
20,1,$1+$1,$2,$3,$4,$5,0*
20,1,$1+$1,$4,$5,$6,$7,0*
20,1,$1+$1,$6,$7,$8,$9,0*
20,1,$1+$1,$8,$9,$2,$3,0*%
G04 Aperture macros list end*
%ADD10C,1.701800*%
%ADD11C,3.000000*%
%ADD12C,3.987800*%
%ADD13RoundRect,0.200000X-1.075000X-1.050000X1.075000X-1.050000X1.075000X1.050000X-1.075000X1.050000X0*%
%ADD14C,4.000000*%
%ADD15RoundRect,0.200000X1.075000X1.050000X-1.075000X1.050000X-1.075000X-1.050000X1.075000X-1.050000X0*%
%ADD16C,1.524000*%
%ADD17C,2.200000*%
%ADD18C,2.000000*%
%ADD19R,1.400000X1.000000*%
%ADD20R,1.000000X0.800000*%
%ADD21C,0.900000*%
%ADD22R,0.700000X1.500000*%
G04 APERTURE END LIST*
D10*
%TO.C,SW10*%
X215900000Y-30480000D03*
D11*
X217170000Y-27940000D03*
D12*
X220980000Y-30480000D03*
D11*
X223520000Y-25400000D03*
D10*
X226060000Y-30480000D03*
D13*
X213895000Y-27940000D03*
X226822000Y-25400000D03*
%TD*%
D14*
%TO.C,H7*%
X87630000Y-78105000D03*
%TD*%
%TO.C,H1*%
X40005000Y-40005000D03*
%TD*%
D10*
%TO.C,SW15*%
X101600000Y-49530000D03*
D11*
X102870000Y-46990000D03*
D12*
X106680000Y-49530000D03*
D11*
X109220000Y-44450000D03*
D10*
X111760000Y-49530000D03*
D13*
X99595000Y-46990000D03*
X112522000Y-44450000D03*
%TD*%
D10*
%TO.C,SW19*%
X196850000Y-49530000D03*
D11*
X198120000Y-46990000D03*
D12*
X201930000Y-49530000D03*
D11*
X204470000Y-44450000D03*
D10*
X207010000Y-49530000D03*
D13*
X194845000Y-46990000D03*
X207772000Y-44450000D03*
%TD*%
D10*
%TO.C,SW18*%
X177800000Y-49530000D03*
D11*
X179070000Y-46990000D03*
D12*
X182880000Y-49530000D03*
D11*
X185420000Y-44450000D03*
D10*
X187960000Y-49530000D03*
D13*
X175795000Y-46990000D03*
X188722000Y-44450000D03*
%TD*%
D14*
%TO.C,H5*%
X40005000Y-59055000D03*
%TD*%
D10*
%TO.C,SW35*%
X159385000Y-87630000D03*
D11*
X158115000Y-90170000D03*
D12*
X154305000Y-87630000D03*
D11*
X151765000Y-92710000D03*
D10*
X149225000Y-87630000D03*
D15*
X161390000Y-90170000D03*
X148463000Y-92710000D03*
%TD*%
D10*
%TO.C,SW31*%
X83185000Y-87630000D03*
D11*
X81915000Y-90170000D03*
D12*
X78105000Y-87630000D03*
D11*
X75565000Y-92710000D03*
D10*
X73025000Y-87630000D03*
D15*
X85190000Y-90170000D03*
X72263000Y-92710000D03*
%TD*%
D10*
%TO.C,SW27*%
X158750000Y-68580000D03*
D11*
X160020000Y-66040000D03*
D12*
X163830000Y-68580000D03*
D11*
X166370000Y-63500000D03*
D10*
X168910000Y-68580000D03*
D13*
X156745000Y-66040000D03*
X169672000Y-63500000D03*
%TD*%
D16*
%TO.C,O1*%
X120650000Y-58420000D03*
X123190000Y-58420000D03*
X125730000Y-58420000D03*
X128270000Y-58420000D03*
X130810000Y-58420000D03*
%TD*%
D10*
%TO.C,SW8*%
X177800000Y-30480000D03*
D11*
X179070000Y-27940000D03*
D12*
X182880000Y-30480000D03*
D11*
X185420000Y-25400000D03*
D10*
X187960000Y-30480000D03*
D13*
X175795000Y-27940000D03*
X188722000Y-25400000D03*
%TD*%
D17*
%TO.C,H10*%
X132080000Y-63500000D03*
%TD*%
D16*
%TO.C,H11*%
X120015000Y-22225000D03*
%TD*%
D10*
%TO.C,SW16*%
X139700000Y-49530000D03*
D11*
X140970000Y-46990000D03*
D12*
X144780000Y-49530000D03*
D11*
X147320000Y-44450000D03*
D10*
X149860000Y-49530000D03*
D13*
X137695000Y-46990000D03*
X150622000Y-44450000D03*
%TD*%
D10*
%TO.C,SW13*%
X63500000Y-49530000D03*
D11*
X64770000Y-46990000D03*
D12*
X68580000Y-49530000D03*
D11*
X71120000Y-44450000D03*
D10*
X73660000Y-49530000D03*
D13*
X61495000Y-46990000D03*
X74422000Y-44450000D03*
%TD*%
D10*
%TO.C,SW21*%
X25400000Y-68580000D03*
D11*
X26670000Y-66040000D03*
D12*
X30480000Y-68580000D03*
D11*
X33020000Y-63500000D03*
D10*
X35560000Y-68580000D03*
D13*
X23395000Y-66040000D03*
X36322000Y-63500000D03*
%TD*%
D10*
%TO.C,SW14*%
X82550000Y-49530000D03*
D11*
X83820000Y-46990000D03*
D12*
X87630000Y-49530000D03*
D11*
X90170000Y-44450000D03*
D10*
X92710000Y-49530000D03*
D13*
X80545000Y-46990000D03*
X93472000Y-44450000D03*
%TD*%
D10*
%TO.C,SW32*%
X102235000Y-87630000D03*
D11*
X100965000Y-90170000D03*
D12*
X97155000Y-87630000D03*
D11*
X94615000Y-92710000D03*
D10*
X92075000Y-87630000D03*
D15*
X104240000Y-90170000D03*
X91313000Y-92710000D03*
%TD*%
D10*
%TO.C,SW1*%
X25400000Y-30480000D03*
D11*
X26670000Y-27940000D03*
D12*
X30480000Y-30480000D03*
D11*
X33020000Y-25400000D03*
D10*
X35560000Y-30480000D03*
D13*
X23395000Y-27940000D03*
X36322000Y-25400000D03*
%TD*%
D10*
%TO.C,SW24*%
X82550000Y-68580000D03*
D11*
X83820000Y-66040000D03*
D12*
X87630000Y-68580000D03*
D11*
X90170000Y-63500000D03*
D10*
X92710000Y-68580000D03*
D13*
X80545000Y-66040000D03*
X93472000Y-63500000D03*
%TD*%
D17*
%TO.C,H9*%
X119380000Y-63500000D03*
%TD*%
D10*
%TO.C,SW23*%
X63500000Y-68580000D03*
D11*
X64770000Y-66040000D03*
D12*
X68580000Y-68580000D03*
D11*
X71120000Y-63500000D03*
D10*
X73660000Y-68580000D03*
D13*
X61495000Y-66040000D03*
X74422000Y-63500000D03*
%TD*%
D10*
%TO.C,SW9*%
X196850000Y-30480000D03*
D11*
X198120000Y-27940000D03*
D12*
X201930000Y-30480000D03*
D11*
X204470000Y-25400000D03*
D10*
X207010000Y-30480000D03*
D13*
X194845000Y-27940000D03*
X207772000Y-25400000D03*
%TD*%
D16*
%TO.C,U1*%
X133350000Y-24765000D03*
X133350000Y-27305000D03*
X133350000Y-29845000D03*
X133350000Y-32385000D03*
X133350000Y-34925000D03*
X133350000Y-37465000D03*
X133350000Y-40005000D03*
X133350000Y-42545000D03*
X133350000Y-45085000D03*
X133350000Y-47625000D03*
X133350000Y-50165000D03*
X133350000Y-52705000D03*
X118110000Y-52705000D03*
X118110000Y-50165000D03*
X118110000Y-47625000D03*
X118110000Y-45085000D03*
X118110000Y-42545000D03*
X118110000Y-40005000D03*
X118110000Y-37465000D03*
X118110000Y-34925000D03*
X118110000Y-32385000D03*
X118110000Y-29845000D03*
X118110000Y-27305000D03*
X118110000Y-24765000D03*
%TD*%
D10*
%TO.C,SW30*%
X215900000Y-68580000D03*
D11*
X217170000Y-66040000D03*
D12*
X220980000Y-68580000D03*
D11*
X223520000Y-63500000D03*
D10*
X226060000Y-68580000D03*
D13*
X213895000Y-66040000D03*
X226822000Y-63500000D03*
%TD*%
D10*
%TO.C,SW34*%
X140335000Y-87630000D03*
D11*
X139065000Y-90170000D03*
D12*
X135255000Y-87630000D03*
D11*
X132715000Y-92710000D03*
D10*
X130175000Y-87630000D03*
D15*
X142340000Y-90170000D03*
X129413000Y-92710000D03*
%TD*%
D10*
%TO.C,SW20*%
X215900000Y-49530000D03*
D11*
X217170000Y-46990000D03*
D12*
X220980000Y-49530000D03*
D11*
X223520000Y-44450000D03*
D10*
X226060000Y-49530000D03*
D13*
X213895000Y-46990000D03*
X226822000Y-44450000D03*
%TD*%
D10*
%TO.C,SW26*%
X139700000Y-68580000D03*
D11*
X140970000Y-66040000D03*
D12*
X144780000Y-68580000D03*
D11*
X147320000Y-63500000D03*
D10*
X149860000Y-68580000D03*
D13*
X137695000Y-66040000D03*
X150622000Y-63500000D03*
%TD*%
D10*
%TO.C,SW25*%
X101600000Y-68580000D03*
D11*
X102870000Y-66040000D03*
D12*
X106680000Y-68580000D03*
D11*
X109220000Y-63500000D03*
D10*
X111760000Y-68580000D03*
D13*
X99595000Y-66040000D03*
X112522000Y-63500000D03*
%TD*%
D14*
%TO.C,H8*%
X163830000Y-78105000D03*
%TD*%
D10*
%TO.C,SW29*%
X196850000Y-68580000D03*
D11*
X198120000Y-66040000D03*
D12*
X201930000Y-68580000D03*
D11*
X204470000Y-63500000D03*
D10*
X207010000Y-68580000D03*
D13*
X194845000Y-66040000D03*
X207772000Y-63500000D03*
%TD*%
D14*
%TO.C,H4*%
X211455000Y-40005000D03*
%TD*%
D18*
%TO.C,SW38*%
X122480000Y-68580000D03*
X128980000Y-68580000D03*
%TD*%
D10*
%TO.C,SW4*%
X82550000Y-30480000D03*
D11*
X83820000Y-27940000D03*
D12*
X87630000Y-30480000D03*
D11*
X90170000Y-25400000D03*
D10*
X92710000Y-30480000D03*
D13*
X80545000Y-27940000D03*
X93472000Y-25400000D03*
%TD*%
D10*
%TO.C,SW36*%
X178435000Y-87630000D03*
D11*
X177165000Y-90170000D03*
D12*
X173355000Y-87630000D03*
D11*
X170815000Y-92710000D03*
D10*
X168275000Y-87630000D03*
D15*
X180440000Y-90170000D03*
X167513000Y-92710000D03*
%TD*%
D14*
%TO.C,H2*%
X97155000Y-40005000D03*
%TD*%
D10*
%TO.C,SW22*%
X44450000Y-68580000D03*
D11*
X45720000Y-66040000D03*
D12*
X49530000Y-68580000D03*
D11*
X52070000Y-63500000D03*
D10*
X54610000Y-68580000D03*
D13*
X42445000Y-66040000D03*
X55372000Y-63500000D03*
%TD*%
D14*
%TO.C,H6*%
X211455000Y-59055000D03*
%TD*%
D10*
%TO.C,SW5*%
X101600000Y-30480000D03*
D11*
X102870000Y-27940000D03*
D12*
X106680000Y-30480000D03*
D11*
X109220000Y-25400000D03*
D10*
X111760000Y-30480000D03*
D13*
X99595000Y-27940000D03*
X112522000Y-25400000D03*
%TD*%
D14*
%TO.C,H3*%
X154305000Y-40005000D03*
%TD*%
D10*
%TO.C,SW7*%
X158750000Y-30480000D03*
D11*
X160020000Y-27940000D03*
D12*
X163830000Y-30480000D03*
D11*
X166370000Y-25400000D03*
D10*
X168910000Y-30480000D03*
D13*
X156745000Y-27940000D03*
X169672000Y-25400000D03*
%TD*%
D10*
%TO.C,SW2*%
X44450000Y-30480000D03*
D11*
X45720000Y-27940000D03*
D12*
X49530000Y-30480000D03*
D11*
X52070000Y-25400000D03*
D10*
X54610000Y-30480000D03*
D13*
X42445000Y-27940000D03*
X55372000Y-25400000D03*
%TD*%
D16*
%TO.C,H12*%
X131445000Y-22225000D03*
%TD*%
D10*
%TO.C,SW3*%
X63500000Y-30480000D03*
D11*
X64770000Y-27940000D03*
D12*
X68580000Y-30480000D03*
D11*
X71120000Y-25400000D03*
D10*
X73660000Y-30480000D03*
D13*
X61495000Y-27940000D03*
X74422000Y-25400000D03*
%TD*%
D10*
%TO.C,SW17*%
X158750000Y-49530000D03*
D11*
X160020000Y-46990000D03*
D12*
X163830000Y-49530000D03*
D11*
X166370000Y-44450000D03*
D10*
X168910000Y-49530000D03*
D13*
X156745000Y-46990000D03*
X169672000Y-44450000D03*
%TD*%
D10*
%TO.C,SW11*%
X25400000Y-49530000D03*
D11*
X26670000Y-46990000D03*
D12*
X30480000Y-49530000D03*
D11*
X33020000Y-44450000D03*
D10*
X35560000Y-49530000D03*
D13*
X23395000Y-46990000D03*
X36322000Y-44450000D03*
%TD*%
D10*
%TO.C,SW12*%
X44450000Y-49530000D03*
D11*
X45720000Y-46990000D03*
D12*
X49530000Y-49530000D03*
D11*
X52070000Y-44450000D03*
D10*
X54610000Y-49530000D03*
D13*
X42445000Y-46990000D03*
X55372000Y-44450000D03*
%TD*%
D10*
%TO.C,SW33*%
X121285000Y-87630000D03*
D11*
X120015000Y-90170000D03*
D12*
X116205000Y-87630000D03*
D11*
X113665000Y-92710000D03*
D10*
X111125000Y-87630000D03*
D15*
X123290000Y-90170000D03*
X110363000Y-92710000D03*
%TD*%
D10*
%TO.C,SW28*%
X177800000Y-68580000D03*
D11*
X179070000Y-66040000D03*
D12*
X182880000Y-68580000D03*
D11*
X185420000Y-63500000D03*
D10*
X187960000Y-68580000D03*
D13*
X175795000Y-66040000D03*
X188722000Y-63500000D03*
%TD*%
D10*
%TO.C,SW6*%
X139700000Y-30480000D03*
D11*
X140970000Y-27940000D03*
D12*
X144780000Y-30480000D03*
D11*
X147320000Y-25400000D03*
D10*
X149860000Y-30480000D03*
D13*
X137695000Y-27940000D03*
X150622000Y-25400000D03*
%TD*%
D19*
%TO.C,D2*%
X51305000Y-35560000D03*
X47755000Y-35560000D03*
%TD*%
%TO.C,D32*%
X98930000Y-82550000D03*
X95380000Y-82550000D03*
%TD*%
%TO.C,D34*%
X133480000Y-82550000D03*
X137030000Y-82550000D03*
%TD*%
%TO.C,D20*%
X219205000Y-54610000D03*
X222755000Y-54610000D03*
%TD*%
%TO.C,D30*%
X219205000Y-73660000D03*
X222755000Y-73660000D03*
%TD*%
%TO.C,D8*%
X181105000Y-35560000D03*
X184655000Y-35560000D03*
%TD*%
%TO.C,D4*%
X89405000Y-35560000D03*
X85855000Y-35560000D03*
%TD*%
%TO.C,D11*%
X32255000Y-54610000D03*
X28705000Y-54610000D03*
%TD*%
%TO.C,D7*%
X162055000Y-35560000D03*
X165605000Y-35560000D03*
%TD*%
%TO.C,D29*%
X200155000Y-73660000D03*
X203705000Y-73660000D03*
%TD*%
%TO.C,D3*%
X70355000Y-35560000D03*
X66805000Y-35560000D03*
%TD*%
%TO.C,D23*%
X70355000Y-73660000D03*
X66805000Y-73660000D03*
%TD*%
%TO.C,D27*%
X162055000Y-73660000D03*
X165605000Y-73660000D03*
%TD*%
%TO.C,D1*%
X32255000Y-35560000D03*
X28705000Y-35560000D03*
%TD*%
%TO.C,D9*%
X200155000Y-35560000D03*
X203705000Y-35560000D03*
%TD*%
%TO.C,D28*%
X181105000Y-73660000D03*
X184655000Y-73660000D03*
%TD*%
%TO.C,D16*%
X143005000Y-54610000D03*
X146555000Y-54610000D03*
%TD*%
%TO.C,D35*%
X152530000Y-82550000D03*
X156080000Y-82550000D03*
%TD*%
D20*
%TO.C,SW37*%
X122080000Y-22065000D03*
X122080000Y-24275000D03*
D21*
X124230000Y-23165000D03*
X127230000Y-23165000D03*
D20*
X129380000Y-22065000D03*
X129380000Y-24275000D03*
D22*
X123480000Y-24925000D03*
X126480000Y-24925000D03*
X127980000Y-24925000D03*
%TD*%
D19*
%TO.C,D18*%
X181105000Y-54610000D03*
X184655000Y-54610000D03*
%TD*%
%TO.C,D33*%
X117980000Y-82550000D03*
X114430000Y-82550000D03*
%TD*%
%TO.C,D6*%
X143005000Y-35560000D03*
X146555000Y-35560000D03*
%TD*%
%TO.C,D36*%
X171580000Y-82550000D03*
X175130000Y-82550000D03*
%TD*%
%TO.C,D17*%
X162055000Y-54610000D03*
X165605000Y-54610000D03*
%TD*%
%TO.C,D5*%
X108455000Y-35560000D03*
X104905000Y-35560000D03*
%TD*%
%TO.C,D21*%
X32255000Y-73660000D03*
X28705000Y-73660000D03*
%TD*%
%TO.C,D12*%
X51305000Y-54610000D03*
X47755000Y-54610000D03*
%TD*%
%TO.C,D10*%
X219205000Y-35560000D03*
X222755000Y-35560000D03*
%TD*%
%TO.C,D26*%
X143005000Y-73660000D03*
X146555000Y-73660000D03*
%TD*%
%TO.C,D25*%
X108455000Y-73660000D03*
X104905000Y-73660000D03*
%TD*%
%TO.C,D19*%
X200155000Y-54610000D03*
X203705000Y-54610000D03*
%TD*%
%TO.C,D13*%
X70355000Y-54610000D03*
X66805000Y-54610000D03*
%TD*%
%TO.C,D22*%
X51305000Y-73660000D03*
X47755000Y-73660000D03*
%TD*%
%TO.C,D15*%
X108455000Y-54610000D03*
X104905000Y-54610000D03*
%TD*%
%TO.C,D14*%
X89405000Y-54610000D03*
X85855000Y-54610000D03*
%TD*%
%TO.C,D31*%
X79880000Y-82550000D03*
X76330000Y-82550000D03*
%TD*%
%TO.C,D24*%
X89405000Y-73660000D03*
X85855000Y-73660000D03*
%TD*%
M02*
