%TF.GenerationSoftware,KiCad,Pcbnew,6.0.2+dfsg-1*%
%TF.CreationDate,2023-04-19T16:50:57+02:00*%
%TF.ProjectId,lancer-hotswap,6c616e63-6572-42d6-986f-74737761702e,rev?*%
%TF.SameCoordinates,Original*%
%TF.FileFunction,Copper,L2,Bot*%
%TF.FilePolarity,Positive*%
%FSLAX46Y46*%
G04 Gerber Fmt 4.6, Leading zero omitted, Abs format (unit mm)*
G04 Created by KiCad (PCBNEW 6.0.2+dfsg-1) date 2023-04-19 16:50:57*
%MOMM*%
%LPD*%
G01*
G04 APERTURE LIST*
G04 Aperture macros list*
%AMRoundRect*
0 Rectangle with rounded corners*
0 $1 Rounding radius*
0 $2 $3 $4 $5 $6 $7 $8 $9 X,Y pos of 4 corners*
0 Add a 4 corners polygon primitive as box body*
4,1,4,$2,$3,$4,$5,$6,$7,$8,$9,$2,$3,0*
0 Add four circle primitives for the rounded corners*
1,1,$1+$1,$2,$3*
1,1,$1+$1,$4,$5*
1,1,$1+$1,$6,$7*
1,1,$1+$1,$8,$9*
0 Add four rect primitives between the rounded corners*
20,1,$1+$1,$2,$3,$4,$5,0*
20,1,$1+$1,$4,$5,$6,$7,0*
20,1,$1+$1,$6,$7,$8,$9,0*
20,1,$1+$1,$8,$9,$2,$3,0*%
G04 Aperture macros list end*
%TA.AperFunction,SMDPad,CuDef*%
%ADD10RoundRect,0.200000X-1.075000X-1.050000X1.075000X-1.050000X1.075000X1.050000X-1.075000X1.050000X0*%
%TD*%
%TA.AperFunction,ComponentPad*%
%ADD11C,1.524000*%
%TD*%
%TA.AperFunction,ComponentPad*%
%ADD12C,2.000000*%
%TD*%
%TA.AperFunction,SMDPad,CuDef*%
%ADD13R,1.400000X1.000000*%
%TD*%
%TA.AperFunction,SMDPad,CuDef*%
%ADD14R,1.000000X0.800000*%
%TD*%
%TA.AperFunction,SMDPad,CuDef*%
%ADD15R,0.700000X1.500000*%
%TD*%
%TA.AperFunction,ViaPad*%
%ADD16C,0.800000*%
%TD*%
%TA.AperFunction,Conductor*%
%ADD17C,0.250000*%
%TD*%
G04 APERTURE END LIST*
D10*
%TO.P,SW10,1,1*%
%TO.N,/C9*%
X213895000Y-27940000D03*
%TO.P,SW10,2,2*%
%TO.N,Net-(D10-Pad2)*%
X226822000Y-25400000D03*
%TD*%
%TO.P,SW15,1,1*%
%TO.N,Net-(D15-Pad2)*%
X99595000Y-46990000D03*
%TO.P,SW15,2,2*%
%TO.N,/C4*%
X112522000Y-44450000D03*
%TD*%
%TO.P,SW19,1,1*%
%TO.N,/C8*%
X194845000Y-46990000D03*
%TO.P,SW19,2,2*%
%TO.N,Net-(D19-Pad2)*%
X207772000Y-44450000D03*
%TD*%
%TO.P,SW18,1,1*%
%TO.N,/C7*%
X175795000Y-46990000D03*
%TO.P,SW18,2,2*%
%TO.N,Net-(D18-Pad2)*%
X188722000Y-44450000D03*
%TD*%
%TO.P,SW35,1,1*%
%TO.N,/C6*%
X147220000Y-85090000D03*
%TO.P,SW35,2,2*%
%TO.N,Net-(D35-Pad2)*%
X160147000Y-82550000D03*
%TD*%
%TO.P,SW31,1,1*%
%TO.N,Net-(D31-Pad2)*%
X71020000Y-85090000D03*
%TO.P,SW31,2,2*%
%TO.N,/C2*%
X83947000Y-82550000D03*
%TD*%
%TO.P,SW27,1,1*%
%TO.N,/C6*%
X156745000Y-66040000D03*
%TO.P,SW27,2,2*%
%TO.N,Net-(D27-Pad2)*%
X169672000Y-63500000D03*
%TD*%
D11*
%TO.P,O1,1,MOSI*%
%TO.N,/SDA*%
X120650000Y-57150000D03*
%TO.P,O1,2,SCK*%
%TO.N,/SCL*%
X123190000Y-57150000D03*
%TO.P,O1,3,VCC*%
%TO.N,/VCC*%
X125730000Y-57150000D03*
%TO.P,O1,4,GND*%
%TO.N,/GND*%
X128270000Y-57150000D03*
%TO.P,O1,5,CS*%
%TO.N,/CS*%
X130810000Y-57150000D03*
%TD*%
D10*
%TO.P,SW8,1,1*%
%TO.N,/C7*%
X175795000Y-27940000D03*
%TO.P,SW8,2,2*%
%TO.N,Net-(D8-Pad2)*%
X188722000Y-25400000D03*
%TD*%
D11*
%TO.P,H11,1,1*%
%TO.N,/GND*%
X120015000Y-22225000D03*
%TD*%
D10*
%TO.P,SW16,1,1*%
%TO.N,/C5*%
X137695000Y-46990000D03*
%TO.P,SW16,2,2*%
%TO.N,Net-(D16-Pad2)*%
X150622000Y-44450000D03*
%TD*%
%TO.P,SW13,1,1*%
%TO.N,Net-(D13-Pad2)*%
X61495000Y-46990000D03*
%TO.P,SW13,2,2*%
%TO.N,/C2*%
X74422000Y-44450000D03*
%TD*%
%TO.P,SW21,1,1*%
%TO.N,Net-(D21-Pad2)*%
X23395000Y-66040000D03*
%TO.P,SW21,2,2*%
%TO.N,/C0*%
X36322000Y-63500000D03*
%TD*%
%TO.P,SW14,1,1*%
%TO.N,Net-(D14-Pad2)*%
X80545000Y-46990000D03*
%TO.P,SW14,2,2*%
%TO.N,/C3*%
X93472000Y-44450000D03*
%TD*%
%TO.P,SW32,1,1*%
%TO.N,Net-(D32-Pad2)*%
X90070000Y-85090000D03*
%TO.P,SW32,2,2*%
%TO.N,/C3*%
X102997000Y-82550000D03*
%TD*%
%TO.P,SW1,1,1*%
%TO.N,Net-(D1-Pad2)*%
X23395000Y-27940000D03*
%TO.P,SW1,2,2*%
%TO.N,/C0*%
X36322000Y-25400000D03*
%TD*%
%TO.P,SW24,1,1*%
%TO.N,Net-(D24-Pad2)*%
X80545000Y-66040000D03*
%TO.P,SW24,2,2*%
%TO.N,/C3*%
X93472000Y-63500000D03*
%TD*%
%TO.P,SW23,1,1*%
%TO.N,Net-(D23-Pad2)*%
X61495000Y-66040000D03*
%TO.P,SW23,2,2*%
%TO.N,/C2*%
X74422000Y-63500000D03*
%TD*%
%TO.P,SW9,1,1*%
%TO.N,/C8*%
X194845000Y-27940000D03*
%TO.P,SW9,2,2*%
%TO.N,Net-(D9-Pad2)*%
X207772000Y-25400000D03*
%TD*%
D11*
%TO.P,U1,1,D3/TX0/1*%
%TO.N,/CS*%
X133350000Y-24765000D03*
%TO.P,U1,2,D2/RX1/0*%
%TO.N,/C9*%
X133350000Y-27305000D03*
%TO.P,U1,3,GND*%
%TO.N,/GND*%
X133350000Y-29845000D03*
%TO.P,U1,4,GND*%
X133350000Y-32385000D03*
%TO.P,U1,5,D1/SDA/2*%
%TO.N,/SDA*%
X133350000Y-34925000D03*
%TO.P,U1,6,D0/SCL/3*%
%TO.N,/SCL*%
X133350000Y-37465000D03*
%TO.P,U1,7,D4/4*%
%TO.N,/R1*%
X133350000Y-40005000D03*
%TO.P,U1,8,C6/5*%
%TO.N,/C8*%
X133350000Y-42545000D03*
%TO.P,U1,9,D7/6*%
%TO.N,/C7*%
X133350000Y-45085000D03*
%TO.P,U1,10,E6/7*%
%TO.N,/C6*%
X133350000Y-47625000D03*
%TO.P,U1,11,B4/8*%
%TO.N,/C5*%
X133350000Y-50165000D03*
%TO.P,U1,12,B5/9*%
%TO.N,/R4*%
X133350000Y-52705000D03*
%TO.P,U1,13,10/B6*%
%TO.N,/R3*%
X118110000Y-52705000D03*
%TO.P,U1,14,16/MOSI/B2*%
%TO.N,/C4*%
X118110000Y-50165000D03*
%TO.P,U1,15,14/MISO/B3*%
%TO.N,/R2*%
X118110000Y-47625000D03*
%TO.P,U1,16,15/SCLK/B1*%
%TO.N,/C3*%
X118110000Y-45085000D03*
%TO.P,U1,17,A0/F7*%
%TO.N,/C2*%
X118110000Y-42545000D03*
%TO.P,U1,18,A1/F6*%
%TO.N,/C1*%
X118110000Y-40005000D03*
%TO.P,U1,19,A2/F5*%
%TO.N,/R0*%
X118110000Y-37465000D03*
%TO.P,U1,20,A3/F4*%
%TO.N,/C0*%
X118110000Y-34925000D03*
%TO.P,U1,21,VCC*%
%TO.N,/VCC*%
X118110000Y-32385000D03*
%TO.P,U1,22,RST*%
%TO.N,/RST*%
X118110000Y-29845000D03*
%TO.P,U1,23,GND*%
%TO.N,/GND*%
X118110000Y-27305000D03*
%TO.P,U1,24,RAW*%
%TO.N,/RAW*%
X118110000Y-24765000D03*
%TD*%
D10*
%TO.P,SW30,1,1*%
%TO.N,/C9*%
X213895000Y-66040000D03*
%TO.P,SW30,2,2*%
%TO.N,Net-(D30-Pad2)*%
X226822000Y-63500000D03*
%TD*%
%TO.P,SW34,1,1*%
%TO.N,/C5*%
X128170000Y-85090000D03*
%TO.P,SW34,2,2*%
%TO.N,Net-(D34-Pad2)*%
X141097000Y-82550000D03*
%TD*%
%TO.P,SW20,1,1*%
%TO.N,/C9*%
X213895000Y-46990000D03*
%TO.P,SW20,2,2*%
%TO.N,Net-(D20-Pad2)*%
X226822000Y-44450000D03*
%TD*%
%TO.P,SW26,1,1*%
%TO.N,/C5*%
X137695000Y-66040000D03*
%TO.P,SW26,2,2*%
%TO.N,Net-(D26-Pad2)*%
X150622000Y-63500000D03*
%TD*%
%TO.P,SW25,1,1*%
%TO.N,Net-(D25-Pad2)*%
X99595000Y-66040000D03*
%TO.P,SW25,2,2*%
%TO.N,/C4*%
X112522000Y-63500000D03*
%TD*%
%TO.P,SW29,1,1*%
%TO.N,/C8*%
X194845000Y-66040000D03*
%TO.P,SW29,2,2*%
%TO.N,Net-(D29-Pad2)*%
X207772000Y-63500000D03*
%TD*%
D12*
%TO.P,SW38,1,1*%
%TO.N,/RST*%
X122480000Y-68580000D03*
%TO.P,SW38,2,2*%
%TO.N,/GND*%
X128980000Y-68580000D03*
%TD*%
D10*
%TO.P,SW4,1,1*%
%TO.N,Net-(D4-Pad2)*%
X80545000Y-27940000D03*
%TO.P,SW4,2,2*%
%TO.N,/C3*%
X93472000Y-25400000D03*
%TD*%
%TO.P,SW36,1,1*%
%TO.N,/C7*%
X166270000Y-85090000D03*
%TO.P,SW36,2,2*%
%TO.N,Net-(D36-Pad2)*%
X179197000Y-82550000D03*
%TD*%
%TO.P,SW22,1,1*%
%TO.N,Net-(D22-Pad2)*%
X42445000Y-66040000D03*
%TO.P,SW22,2,2*%
%TO.N,/C1*%
X55372000Y-63500000D03*
%TD*%
%TO.P,SW5,1,1*%
%TO.N,Net-(D5-Pad2)*%
X99595000Y-27940000D03*
%TO.P,SW5,2,2*%
%TO.N,/C4*%
X112522000Y-25400000D03*
%TD*%
%TO.P,SW7,1,1*%
%TO.N,/C6*%
X156745000Y-27940000D03*
%TO.P,SW7,2,2*%
%TO.N,Net-(D7-Pad2)*%
X169672000Y-25400000D03*
%TD*%
%TO.P,SW2,1,1*%
%TO.N,Net-(D2-Pad2)*%
X42445000Y-27940000D03*
%TO.P,SW2,2,2*%
%TO.N,/C1*%
X55372000Y-25400000D03*
%TD*%
D11*
%TO.P,H12,1,1*%
%TO.N,/BAT+*%
X131445000Y-22225000D03*
%TD*%
D10*
%TO.P,SW3,1,1*%
%TO.N,Net-(D3-Pad2)*%
X61495000Y-27940000D03*
%TO.P,SW3,2,2*%
%TO.N,/C2*%
X74422000Y-25400000D03*
%TD*%
%TO.P,SW17,1,1*%
%TO.N,/C6*%
X156745000Y-46990000D03*
%TO.P,SW17,2,2*%
%TO.N,Net-(D17-Pad2)*%
X169672000Y-44450000D03*
%TD*%
%TO.P,SW11,1,1*%
%TO.N,Net-(D11-Pad2)*%
X23395000Y-46990000D03*
%TO.P,SW11,2,2*%
%TO.N,/C0*%
X36322000Y-44450000D03*
%TD*%
%TO.P,SW12,1,1*%
%TO.N,Net-(D12-Pad2)*%
X42445000Y-46990000D03*
%TO.P,SW12,2,2*%
%TO.N,/C1*%
X55372000Y-44450000D03*
%TD*%
%TO.P,SW33,1,1*%
%TO.N,Net-(D33-Pad2)*%
X109120000Y-85090000D03*
%TO.P,SW33,2,2*%
%TO.N,/C4*%
X122047000Y-82550000D03*
%TD*%
%TO.P,SW28,1,1*%
%TO.N,/C7*%
X175795000Y-66040000D03*
%TO.P,SW28,2,2*%
%TO.N,Net-(D28-Pad2)*%
X188722000Y-63500000D03*
%TD*%
%TO.P,SW6,1,1*%
%TO.N,/C5*%
X137695000Y-27940000D03*
%TO.P,SW6,2,2*%
%TO.N,Net-(D6-Pad2)*%
X150622000Y-25400000D03*
%TD*%
D13*
%TO.P,D2,1,K*%
%TO.N,/R0*%
X51305000Y-35560000D03*
%TO.P,D2,2,A*%
%TO.N,Net-(D2-Pad2)*%
X47755000Y-35560000D03*
%TD*%
%TO.P,D32,1,K*%
%TO.N,/R4*%
X98930000Y-92710000D03*
%TO.P,D32,2,A*%
%TO.N,Net-(D32-Pad2)*%
X95380000Y-92710000D03*
%TD*%
%TO.P,D34,1,K*%
%TO.N,/R4*%
X133480000Y-92710000D03*
%TO.P,D34,2,A*%
%TO.N,Net-(D34-Pad2)*%
X137030000Y-92710000D03*
%TD*%
%TO.P,D20,1,K*%
%TO.N,/R2*%
X219205000Y-54610000D03*
%TO.P,D20,2,A*%
%TO.N,Net-(D20-Pad2)*%
X222755000Y-54610000D03*
%TD*%
%TO.P,D30,1,K*%
%TO.N,/R3*%
X219205000Y-73660000D03*
%TO.P,D30,2,A*%
%TO.N,Net-(D30-Pad2)*%
X222755000Y-73660000D03*
%TD*%
%TO.P,D8,1,K*%
%TO.N,/R1*%
X181105000Y-35560000D03*
%TO.P,D8,2,A*%
%TO.N,Net-(D8-Pad2)*%
X184655000Y-35560000D03*
%TD*%
%TO.P,D4,1,K*%
%TO.N,/R0*%
X89405000Y-35560000D03*
%TO.P,D4,2,A*%
%TO.N,Net-(D4-Pad2)*%
X85855000Y-35560000D03*
%TD*%
%TO.P,D11,1,K*%
%TO.N,/R2*%
X32255000Y-54610000D03*
%TO.P,D11,2,A*%
%TO.N,Net-(D11-Pad2)*%
X28705000Y-54610000D03*
%TD*%
%TO.P,D7,1,K*%
%TO.N,/R1*%
X162055000Y-35560000D03*
%TO.P,D7,2,A*%
%TO.N,Net-(D7-Pad2)*%
X165605000Y-35560000D03*
%TD*%
%TO.P,D29,1,K*%
%TO.N,/R3*%
X200155000Y-73660000D03*
%TO.P,D29,2,A*%
%TO.N,Net-(D29-Pad2)*%
X203705000Y-73660000D03*
%TD*%
%TO.P,D3,1,K*%
%TO.N,/R0*%
X70355000Y-35560000D03*
%TO.P,D3,2,A*%
%TO.N,Net-(D3-Pad2)*%
X66805000Y-35560000D03*
%TD*%
%TO.P,D23,1,K*%
%TO.N,/R3*%
X70355000Y-73660000D03*
%TO.P,D23,2,A*%
%TO.N,Net-(D23-Pad2)*%
X66805000Y-73660000D03*
%TD*%
%TO.P,D27,1,K*%
%TO.N,/R3*%
X162055000Y-73660000D03*
%TO.P,D27,2,A*%
%TO.N,Net-(D27-Pad2)*%
X165605000Y-73660000D03*
%TD*%
%TO.P,D1,1,K*%
%TO.N,/R0*%
X32255000Y-35560000D03*
%TO.P,D1,2,A*%
%TO.N,Net-(D1-Pad2)*%
X28705000Y-35560000D03*
%TD*%
%TO.P,D9,1,K*%
%TO.N,/R1*%
X200155000Y-35560000D03*
%TO.P,D9,2,A*%
%TO.N,Net-(D9-Pad2)*%
X203705000Y-35560000D03*
%TD*%
%TO.P,D28,1,K*%
%TO.N,/R3*%
X181105000Y-73660000D03*
%TO.P,D28,2,A*%
%TO.N,Net-(D28-Pad2)*%
X184655000Y-73660000D03*
%TD*%
%TO.P,D16,1,K*%
%TO.N,/R2*%
X143005000Y-54610000D03*
%TO.P,D16,2,A*%
%TO.N,Net-(D16-Pad2)*%
X146555000Y-54610000D03*
%TD*%
%TO.P,D35,1,K*%
%TO.N,/R4*%
X152530000Y-92710000D03*
%TO.P,D35,2,A*%
%TO.N,Net-(D35-Pad2)*%
X156080000Y-92710000D03*
%TD*%
D14*
%TO.P,SW37,*%
%TO.N,*%
X122080000Y-24275000D03*
X122080000Y-22065000D03*
X129380000Y-24275000D03*
X129380000Y-22065000D03*
D15*
%TO.P,SW37,1,A*%
%TO.N,unconnected-(SW37-Pad1)*%
X123480000Y-24925000D03*
%TO.P,SW37,2,B*%
%TO.N,/RAW*%
X126480000Y-24925000D03*
%TO.P,SW37,3,C*%
%TO.N,/BAT+*%
X127980000Y-24925000D03*
%TD*%
D13*
%TO.P,D18,1,K*%
%TO.N,/R2*%
X181105000Y-54610000D03*
%TO.P,D18,2,A*%
%TO.N,Net-(D18-Pad2)*%
X184655000Y-54610000D03*
%TD*%
%TO.P,D33,1,K*%
%TO.N,/R4*%
X117980000Y-92710000D03*
%TO.P,D33,2,A*%
%TO.N,Net-(D33-Pad2)*%
X114430000Y-92710000D03*
%TD*%
%TO.P,D6,1,K*%
%TO.N,/R1*%
X143005000Y-35560000D03*
%TO.P,D6,2,A*%
%TO.N,Net-(D6-Pad2)*%
X146555000Y-35560000D03*
%TD*%
%TO.P,D36,1,K*%
%TO.N,/R4*%
X171580000Y-92710000D03*
%TO.P,D36,2,A*%
%TO.N,Net-(D36-Pad2)*%
X175130000Y-92710000D03*
%TD*%
%TO.P,D17,1,K*%
%TO.N,/R2*%
X162055000Y-54610000D03*
%TO.P,D17,2,A*%
%TO.N,Net-(D17-Pad2)*%
X165605000Y-54610000D03*
%TD*%
%TO.P,D5,1,K*%
%TO.N,/R0*%
X108455000Y-35560000D03*
%TO.P,D5,2,A*%
%TO.N,Net-(D5-Pad2)*%
X104905000Y-35560000D03*
%TD*%
%TO.P,D21,1,K*%
%TO.N,/R3*%
X32255000Y-73660000D03*
%TO.P,D21,2,A*%
%TO.N,Net-(D21-Pad2)*%
X28705000Y-73660000D03*
%TD*%
%TO.P,D12,1,K*%
%TO.N,/R2*%
X51305000Y-54610000D03*
%TO.P,D12,2,A*%
%TO.N,Net-(D12-Pad2)*%
X47755000Y-54610000D03*
%TD*%
%TO.P,D10,1,K*%
%TO.N,/R1*%
X219205000Y-35560000D03*
%TO.P,D10,2,A*%
%TO.N,Net-(D10-Pad2)*%
X222755000Y-35560000D03*
%TD*%
%TO.P,D26,1,K*%
%TO.N,/R3*%
X143005000Y-73660000D03*
%TO.P,D26,2,A*%
%TO.N,Net-(D26-Pad2)*%
X146555000Y-73660000D03*
%TD*%
%TO.P,D25,1,K*%
%TO.N,/R3*%
X108455000Y-73660000D03*
%TO.P,D25,2,A*%
%TO.N,Net-(D25-Pad2)*%
X104905000Y-73660000D03*
%TD*%
%TO.P,D19,1,K*%
%TO.N,/R2*%
X200155000Y-54610000D03*
%TO.P,D19,2,A*%
%TO.N,Net-(D19-Pad2)*%
X203705000Y-54610000D03*
%TD*%
%TO.P,D13,1,K*%
%TO.N,/R2*%
X70355000Y-54610000D03*
%TO.P,D13,2,A*%
%TO.N,Net-(D13-Pad2)*%
X66805000Y-54610000D03*
%TD*%
%TO.P,D22,1,K*%
%TO.N,/R3*%
X51305000Y-73660000D03*
%TO.P,D22,2,A*%
%TO.N,Net-(D22-Pad2)*%
X47755000Y-73660000D03*
%TD*%
%TO.P,D15,1,K*%
%TO.N,/R2*%
X108455000Y-54610000D03*
%TO.P,D15,2,A*%
%TO.N,Net-(D15-Pad2)*%
X104905000Y-54610000D03*
%TD*%
%TO.P,D14,1,K*%
%TO.N,/R2*%
X89405000Y-54610000D03*
%TO.P,D14,2,A*%
%TO.N,Net-(D14-Pad2)*%
X85855000Y-54610000D03*
%TD*%
%TO.P,D31,1,K*%
%TO.N,/R4*%
X79880000Y-92710000D03*
%TO.P,D31,2,A*%
%TO.N,Net-(D31-Pad2)*%
X76330000Y-92710000D03*
%TD*%
%TO.P,D24,1,K*%
%TO.N,/R3*%
X89405000Y-73660000D03*
%TO.P,D24,2,A*%
%TO.N,Net-(D24-Pad2)*%
X85855000Y-73660000D03*
%TD*%
D16*
%TO.N,/RST*%
X121920000Y-40640000D03*
X121920000Y-52070000D03*
%TO.N,/GND*%
X128270000Y-36195000D03*
X128270000Y-52070000D03*
%TO.N,/CS*%
X130810000Y-52070000D03*
%TO.N,/VCC*%
X125730000Y-52070000D03*
%TO.N,/R0*%
X72390000Y-35560000D03*
X34290000Y-35560000D03*
X53340000Y-35560000D03*
X110490000Y-35560000D03*
X91440000Y-35560000D03*
%TO.N,/R1*%
X217170000Y-35560000D03*
X179070000Y-35560000D03*
X160020000Y-35560000D03*
X140970000Y-35560000D03*
X198120000Y-35560000D03*
%TO.N,/R2*%
X160020000Y-54610000D03*
X110490000Y-54610000D03*
X53340000Y-54610000D03*
X140970000Y-54610000D03*
X198120000Y-54610000D03*
X91440000Y-54610000D03*
X179070000Y-54610000D03*
X34290000Y-54610000D03*
X72390000Y-54610000D03*
X217170000Y-54610000D03*
%TO.N,/R3*%
X160020000Y-73660000D03*
X198120000Y-73660000D03*
X34290000Y-73660000D03*
X72390000Y-73660000D03*
X179070000Y-73660000D03*
X118110000Y-57150000D03*
X53340000Y-73660000D03*
X110490000Y-73660000D03*
X217170000Y-73660000D03*
X91440000Y-73660000D03*
X140970000Y-73660000D03*
%TO.N,/R4*%
X133350000Y-57150000D03*
X100965000Y-92710000D03*
X131445000Y-92710000D03*
X120015000Y-92710000D03*
X150495000Y-92710000D03*
X81915000Y-92710000D03*
X137795000Y-72390000D03*
X169545000Y-92710000D03*
%TO.N,/C1*%
X55372000Y-36830000D03*
%TO.N,/C2*%
X74422000Y-42545000D03*
%TO.N,/C3*%
X95250000Y-50800000D03*
%TO.N,/C5*%
X137695000Y-52705000D03*
%TO.N,/C6*%
X156745000Y-52705000D03*
%TO.N,/C7*%
X175795000Y-41910000D03*
%TO.N,/C8*%
X194845000Y-36830000D03*
%TD*%
D17*
%TO.N,Net-(D1-Pad2)*%
X23395000Y-33555000D02*
X25400000Y-35560000D01*
X25400000Y-35560000D02*
X28705000Y-35560000D01*
X23395000Y-27940000D02*
X23395000Y-33555000D01*
%TO.N,Net-(D2-Pad2)*%
X44450000Y-35560000D02*
X47755000Y-35560000D01*
X42445000Y-27940000D02*
X42445000Y-33555000D01*
X42445000Y-33555000D02*
X44450000Y-35560000D01*
%TO.N,Net-(D3-Pad2)*%
X61495000Y-33555000D02*
X63500000Y-35560000D01*
X61495000Y-27940000D02*
X61495000Y-33555000D01*
X63500000Y-35560000D02*
X66805000Y-35560000D01*
%TO.N,Net-(D4-Pad2)*%
X80545000Y-33555000D02*
X82550000Y-35560000D01*
X80545000Y-27940000D02*
X80545000Y-33555000D01*
X82550000Y-35560000D02*
X85855000Y-35560000D01*
%TO.N,Net-(D5-Pad2)*%
X99595000Y-33555000D02*
X101600000Y-35560000D01*
X101600000Y-35560000D02*
X104905000Y-35560000D01*
X99595000Y-27940000D02*
X99595000Y-33555000D01*
%TO.N,Net-(D6-Pad2)*%
X150622000Y-25400000D02*
X150622000Y-27432000D01*
X150622000Y-27432000D02*
X152400000Y-29210000D01*
X152400000Y-29210000D02*
X152400000Y-31750000D01*
X152400000Y-31750000D02*
X148590000Y-35560000D01*
X148590000Y-35560000D02*
X146555000Y-35560000D01*
%TO.N,Net-(D7-Pad2)*%
X169672000Y-27432000D02*
X171450000Y-29210000D01*
X169672000Y-25400000D02*
X169672000Y-27432000D01*
X171450000Y-29210000D02*
X171450000Y-31750000D01*
X171450000Y-31750000D02*
X167640000Y-35560000D01*
X167640000Y-35560000D02*
X165605000Y-35560000D01*
%TO.N,Net-(D8-Pad2)*%
X190500000Y-29210000D02*
X190500000Y-31750000D01*
X186690000Y-35560000D02*
X184655000Y-35560000D01*
X190500000Y-31750000D02*
X186690000Y-35560000D01*
X188722000Y-27432000D02*
X190500000Y-29210000D01*
X188722000Y-25400000D02*
X188722000Y-27432000D01*
%TO.N,Net-(D10-Pad2)*%
X226822000Y-27432000D02*
X228600000Y-29210000D01*
X228600000Y-29210000D02*
X228600000Y-31750000D01*
X224790000Y-35560000D02*
X222755000Y-35560000D01*
X226822000Y-25400000D02*
X226822000Y-27432000D01*
X228600000Y-31750000D02*
X224790000Y-35560000D01*
%TO.N,Net-(D11-Pad2)*%
X28705000Y-54610000D02*
X25400000Y-54610000D01*
X23395000Y-52605000D02*
X23395000Y-46990000D01*
X25400000Y-54610000D02*
X23395000Y-52605000D01*
%TO.N,Net-(D12-Pad2)*%
X44450000Y-54610000D02*
X42445000Y-52605000D01*
X42445000Y-52605000D02*
X42445000Y-46990000D01*
X47755000Y-54610000D02*
X44450000Y-54610000D01*
%TO.N,Net-(D13-Pad2)*%
X66805000Y-54610000D02*
X63500000Y-54610000D01*
X61495000Y-52605000D02*
X61495000Y-46990000D01*
X63500000Y-54610000D02*
X61495000Y-52605000D01*
%TO.N,Net-(D14-Pad2)*%
X85855000Y-54610000D02*
X82550000Y-54610000D01*
X80545000Y-52605000D02*
X80545000Y-46990000D01*
X82550000Y-54610000D02*
X80545000Y-52605000D01*
%TO.N,Net-(D15-Pad2)*%
X101600000Y-54610000D02*
X99595000Y-52605000D01*
X104905000Y-54610000D02*
X101600000Y-54610000D01*
X99595000Y-52605000D02*
X99595000Y-46990000D01*
%TO.N,Net-(D17-Pad2)*%
X169672000Y-46482000D02*
X171450000Y-48260000D01*
X171450000Y-50800000D02*
X167640000Y-54610000D01*
X171450000Y-48260000D02*
X171450000Y-50800000D01*
X169672000Y-44450000D02*
X169672000Y-46482000D01*
X167640000Y-54610000D02*
X165605000Y-54610000D01*
%TO.N,Net-(D19-Pad2)*%
X209550000Y-48260000D02*
X209550000Y-50800000D01*
X207772000Y-44450000D02*
X207772000Y-46482000D01*
X209550000Y-50800000D02*
X205740000Y-54610000D01*
X207772000Y-46482000D02*
X209550000Y-48260000D01*
X205740000Y-54610000D02*
X203705000Y-54610000D01*
%TO.N,Net-(D21-Pad2)*%
X25400000Y-73660000D02*
X23395000Y-71655000D01*
X28705000Y-73660000D02*
X25400000Y-73660000D01*
X23395000Y-71655000D02*
X23395000Y-66040000D01*
%TO.N,Net-(D22-Pad2)*%
X44450000Y-73660000D02*
X42445000Y-71655000D01*
X47755000Y-73660000D02*
X44450000Y-73660000D01*
X42445000Y-71655000D02*
X42445000Y-66040000D01*
%TO.N,Net-(D23-Pad2)*%
X66805000Y-73660000D02*
X63500000Y-73660000D01*
X63500000Y-73660000D02*
X61495000Y-71655000D01*
X61495000Y-71655000D02*
X61495000Y-66040000D01*
%TO.N,Net-(D24-Pad2)*%
X80545000Y-71655000D02*
X80545000Y-66040000D01*
X82550000Y-73660000D02*
X80545000Y-71655000D01*
X85855000Y-73660000D02*
X82550000Y-73660000D01*
%TO.N,Net-(D25-Pad2)*%
X101600000Y-73660000D02*
X99595000Y-71655000D01*
X99595000Y-71655000D02*
X99595000Y-66040000D01*
X104905000Y-73660000D02*
X101600000Y-73660000D01*
%TO.N,Net-(D28-Pad2)*%
X186690000Y-73660000D02*
X184655000Y-73660000D01*
X188722000Y-65532000D02*
X190500000Y-67310000D01*
X188722000Y-63500000D02*
X188722000Y-65532000D01*
X190500000Y-69850000D02*
X186690000Y-73660000D01*
X190500000Y-67310000D02*
X190500000Y-69850000D01*
%TO.N,Net-(D31-Pad2)*%
X73025000Y-92710000D02*
X76330000Y-92710000D01*
X71020000Y-90705000D02*
X73025000Y-92710000D01*
X71020000Y-85090000D02*
X71020000Y-90705000D01*
%TO.N,Net-(D32-Pad2)*%
X90070000Y-85090000D02*
X90070000Y-90705000D01*
X90070000Y-90705000D02*
X92075000Y-92710000D01*
X92075000Y-92710000D02*
X95380000Y-92710000D01*
%TO.N,Net-(D33-Pad2)*%
X109120000Y-85090000D02*
X109120000Y-90705000D01*
X109120000Y-90705000D02*
X111125000Y-92710000D01*
X111125000Y-92710000D02*
X114430000Y-92710000D01*
%TO.N,Net-(D34-Pad2)*%
X141097000Y-82550000D02*
X141097000Y-84582000D01*
X142875000Y-88900000D02*
X139065000Y-92710000D01*
X139065000Y-92710000D02*
X137030000Y-92710000D01*
X141097000Y-84582000D02*
X142875000Y-86360000D01*
X142875000Y-86360000D02*
X142875000Y-88900000D01*
%TO.N,Net-(D35-Pad2)*%
X158115000Y-92710000D02*
X156080000Y-92710000D01*
X161925000Y-86360000D02*
X161925000Y-88900000D01*
X160147000Y-84582000D02*
X161925000Y-86360000D01*
X161925000Y-88900000D02*
X158115000Y-92710000D01*
X160147000Y-82550000D02*
X160147000Y-84582000D01*
%TO.N,/SDA*%
X133350000Y-34925000D02*
X132080000Y-34925000D01*
X132080000Y-34925000D02*
X120650000Y-46355000D01*
X120650000Y-46355000D02*
X120650000Y-57150000D01*
%TO.N,/SCL*%
X123190000Y-46355000D02*
X123190000Y-57150000D01*
X132080000Y-37465000D02*
X123190000Y-46355000D01*
X133350000Y-37465000D02*
X132080000Y-37465000D01*
%TO.N,/BAT+*%
X131445000Y-22860000D02*
X130810000Y-23495000D01*
X130810000Y-23495000D02*
X128610978Y-23495000D01*
X131445000Y-22225000D02*
X131445000Y-22860000D01*
X127980000Y-24125978D02*
X127980000Y-24925000D01*
X128610978Y-23495000D02*
X127980000Y-24125978D01*
%TO.N,/RAW*%
X121285000Y-26670000D02*
X125730000Y-26670000D01*
X125730000Y-26670000D02*
X126480000Y-25920000D01*
X126480000Y-25920000D02*
X126480000Y-24925000D01*
X119380000Y-24765000D02*
X121285000Y-26670000D01*
X118110000Y-24765000D02*
X119380000Y-24765000D01*
%TO.N,/RST*%
X121920000Y-58420000D02*
X121920000Y-52070000D01*
X122480000Y-58980000D02*
X121920000Y-58420000D01*
X119380000Y-29845000D02*
X118110000Y-29845000D01*
X122480000Y-68580000D02*
X122480000Y-58980000D01*
X121920000Y-40640000D02*
X121920000Y-32385000D01*
X121920000Y-32385000D02*
X119380000Y-29845000D01*
%TO.N,/GND*%
X133350000Y-32385000D02*
X132080000Y-32385000D01*
X128980000Y-59130000D02*
X128270000Y-58420000D01*
X128980000Y-68580000D02*
X128980000Y-59130000D01*
X133350000Y-32385000D02*
X133350000Y-29845000D01*
X128270000Y-57150000D02*
X128270000Y-52070000D01*
X132080000Y-32385000D02*
X128270000Y-36195000D01*
X128270000Y-58420000D02*
X128270000Y-57150000D01*
%TO.N,/CS*%
X130810000Y-57150000D02*
X130810000Y-52070000D01*
%TO.N,/VCC*%
X125730000Y-57150000D02*
X125730000Y-52070000D01*
%TO.N,Net-(D9-Pad2)*%
X207772000Y-27432000D02*
X209550000Y-29210000D01*
X209550000Y-29210000D02*
X209550000Y-31750000D01*
X207772000Y-25400000D02*
X207772000Y-27432000D01*
X209550000Y-31750000D02*
X205740000Y-35560000D01*
X205740000Y-35560000D02*
X203705000Y-35560000D01*
%TO.N,Net-(D16-Pad2)*%
X152400000Y-50800000D02*
X148590000Y-54610000D01*
X150622000Y-46482000D02*
X152400000Y-48260000D01*
X148590000Y-54610000D02*
X146555000Y-54610000D01*
X150622000Y-44450000D02*
X150622000Y-46482000D01*
X152400000Y-48260000D02*
X152400000Y-50800000D01*
%TO.N,Net-(D18-Pad2)*%
X190500000Y-48260000D02*
X190500000Y-50800000D01*
X188722000Y-44450000D02*
X188722000Y-46482000D01*
X186690000Y-54610000D02*
X184655000Y-54610000D01*
X190500000Y-50800000D02*
X186690000Y-54610000D01*
X188722000Y-46482000D02*
X190500000Y-48260000D01*
%TO.N,Net-(D20-Pad2)*%
X226822000Y-46482000D02*
X228600000Y-48260000D01*
X226822000Y-44450000D02*
X226822000Y-46482000D01*
X228600000Y-48260000D02*
X228600000Y-50800000D01*
X224790000Y-54610000D02*
X222755000Y-54610000D01*
X228600000Y-50800000D02*
X224790000Y-54610000D01*
%TO.N,Net-(D26-Pad2)*%
X150622000Y-65532000D02*
X152400000Y-67310000D01*
X152400000Y-69850000D02*
X148590000Y-73660000D01*
X150622000Y-63500000D02*
X150622000Y-65532000D01*
X152400000Y-67310000D02*
X152400000Y-69850000D01*
X148590000Y-73660000D02*
X146555000Y-73660000D01*
%TO.N,Net-(D27-Pad2)*%
X171450000Y-69850000D02*
X167640000Y-73660000D01*
X169672000Y-65532000D02*
X171450000Y-67310000D01*
X169672000Y-63500000D02*
X169672000Y-65532000D01*
X171450000Y-67310000D02*
X171450000Y-69850000D01*
X167640000Y-73660000D02*
X165605000Y-73660000D01*
%TO.N,Net-(D29-Pad2)*%
X207772000Y-65532000D02*
X209550000Y-67310000D01*
X207772000Y-63500000D02*
X207772000Y-65532000D01*
X209550000Y-67310000D02*
X209550000Y-69850000D01*
X205740000Y-73660000D02*
X203705000Y-73660000D01*
X209550000Y-69850000D02*
X205740000Y-73660000D01*
%TO.N,Net-(D30-Pad2)*%
X228600000Y-69850000D02*
X224790000Y-73660000D01*
X226822000Y-65532000D02*
X228600000Y-67310000D01*
X226822000Y-63500000D02*
X226822000Y-65532000D01*
X228600000Y-67310000D02*
X228600000Y-69850000D01*
X224790000Y-73660000D02*
X222755000Y-73660000D01*
%TO.N,Net-(D36-Pad2)*%
X177165000Y-92710000D02*
X175130000Y-92710000D01*
X180975000Y-86360000D02*
X180975000Y-88900000D01*
X179197000Y-82550000D02*
X179197000Y-84582000D01*
X180975000Y-88900000D02*
X177165000Y-92710000D01*
X179197000Y-84582000D02*
X180975000Y-86360000D01*
%TO.N,/R0*%
X32255000Y-35560000D02*
X34290000Y-35560000D01*
X51305000Y-35560000D02*
X53340000Y-35560000D01*
X70355000Y-35560000D02*
X72390000Y-35560000D01*
X89405000Y-35560000D02*
X91440000Y-35560000D01*
X108455000Y-35560000D02*
X110490000Y-35560000D01*
%TO.N,/R1*%
X162055000Y-35560000D02*
X160020000Y-35560000D01*
X200155000Y-35560000D02*
X198120000Y-35560000D01*
X181105000Y-35560000D02*
X179070000Y-35560000D01*
X143005000Y-35560000D02*
X140970000Y-35560000D01*
X219205000Y-35560000D02*
X217170000Y-35560000D01*
%TO.N,/R2*%
X108455000Y-54610000D02*
X110490000Y-54610000D01*
X181105000Y-54610000D02*
X179070000Y-54610000D01*
X89405000Y-54610000D02*
X91440000Y-54610000D01*
X51305000Y-54610000D02*
X53340000Y-54610000D01*
X32255000Y-54610000D02*
X34290000Y-54610000D01*
X219205000Y-54610000D02*
X217170000Y-54610000D01*
X200155000Y-54610000D02*
X198120000Y-54610000D01*
X70355000Y-54610000D02*
X72390000Y-54610000D01*
X162055000Y-54610000D02*
X160020000Y-54610000D01*
X143005000Y-54610000D02*
X140970000Y-54610000D01*
%TO.N,/R3*%
X143005000Y-73660000D02*
X140970000Y-73660000D01*
X32255000Y-73660000D02*
X34290000Y-73660000D01*
X200155000Y-73660000D02*
X198120000Y-73660000D01*
X219205000Y-73660000D02*
X217170000Y-73660000D01*
X89405000Y-73660000D02*
X91440000Y-73660000D01*
X70355000Y-73660000D02*
X72390000Y-73660000D01*
X51305000Y-73660000D02*
X53340000Y-73660000D01*
X108455000Y-73660000D02*
X110490000Y-73660000D01*
X118110000Y-52705000D02*
X118110000Y-57150000D01*
X181105000Y-73660000D02*
X179070000Y-73660000D01*
X162055000Y-73660000D02*
X160020000Y-73660000D01*
%TO.N,/R4*%
X150495000Y-92710000D02*
X149225000Y-92710000D01*
X133350000Y-52705000D02*
X133350000Y-57150000D01*
X171580000Y-92710000D02*
X169545000Y-92710000D01*
X149225000Y-92710000D02*
X144780000Y-88265000D01*
X144780000Y-88265000D02*
X144780000Y-79375000D01*
X98930000Y-92710000D02*
X100965000Y-92710000D01*
X79880000Y-92710000D02*
X81915000Y-92710000D01*
X117980000Y-92710000D02*
X120015000Y-92710000D01*
X152530000Y-92710000D02*
X150495000Y-92710000D01*
X144780000Y-79375000D02*
X137795000Y-72390000D01*
X133480000Y-92710000D02*
X131445000Y-92710000D01*
%TO.N,/C0*%
X38100000Y-48260000D02*
X38100000Y-50800000D01*
X115570000Y-33655000D02*
X115570000Y-24130000D01*
X36322000Y-27432000D02*
X38100000Y-29210000D01*
X118110000Y-34925000D02*
X116840000Y-34925000D01*
X114300000Y-22860000D02*
X38100000Y-22860000D01*
X36322000Y-44450000D02*
X36322000Y-33528000D01*
X36322000Y-52578000D02*
X38100000Y-50800000D01*
X38100000Y-22860000D02*
X36322000Y-24638000D01*
X115570000Y-24130000D02*
X114300000Y-22860000D01*
X36322000Y-33528000D02*
X38100000Y-31750000D01*
X38100000Y-29210000D02*
X38100000Y-31750000D01*
X36322000Y-25400000D02*
X36322000Y-27432000D01*
X36322000Y-24638000D02*
X36322000Y-25400000D01*
X36322000Y-44450000D02*
X36322000Y-46482000D01*
X36322000Y-46482000D02*
X38100000Y-48260000D01*
X116840000Y-34925000D02*
X115570000Y-33655000D01*
X36322000Y-63500000D02*
X36322000Y-52578000D01*
%TO.N,/C1*%
X55372000Y-27432000D02*
X57150000Y-29210000D01*
X57150000Y-48260000D02*
X57150000Y-50800000D01*
X55372000Y-52578000D02*
X57150000Y-50800000D01*
X55372000Y-44450000D02*
X55372000Y-33528000D01*
X55372000Y-46482000D02*
X57150000Y-48260000D01*
X57150000Y-29210000D02*
X57150000Y-31750000D01*
X55372000Y-63500000D02*
X55372000Y-52578000D01*
X57150000Y-31750000D02*
X55372000Y-33528000D01*
X55372000Y-44450000D02*
X55372000Y-46482000D01*
X55372000Y-25400000D02*
X55372000Y-27432000D01*
%TO.N,/C2*%
X76200000Y-29210000D02*
X76200000Y-31750000D01*
X74422000Y-44450000D02*
X74422000Y-33528000D01*
X74422000Y-63500000D02*
X74422000Y-52578000D01*
X74422000Y-46482000D02*
X76200000Y-48260000D01*
X74422000Y-52578000D02*
X76200000Y-50800000D01*
X74422000Y-44450000D02*
X74422000Y-46482000D01*
X76200000Y-48260000D02*
X76200000Y-50800000D01*
X74422000Y-25400000D02*
X74422000Y-27432000D01*
X74422000Y-63500000D02*
X74422000Y-66802000D01*
X74422000Y-27432000D02*
X76200000Y-29210000D01*
X74422000Y-66802000D02*
X83947000Y-76327000D01*
X74422000Y-33528000D02*
X76200000Y-31750000D01*
X83947000Y-76327000D02*
X83947000Y-82550000D01*
%TO.N,/C3*%
X93472000Y-44450000D02*
X93472000Y-46482000D01*
X93472000Y-27432000D02*
X95250000Y-29210000D01*
X93472000Y-46482000D02*
X95250000Y-48260000D01*
X95250000Y-48260000D02*
X95250000Y-50800000D01*
X93472000Y-66802000D02*
X102997000Y-76327000D01*
X93472000Y-63500000D02*
X93472000Y-52578000D01*
X93472000Y-44450000D02*
X93472000Y-33528000D01*
X93472000Y-52578000D02*
X95250000Y-50800000D01*
X95250000Y-29210000D02*
X95250000Y-31750000D01*
X93472000Y-33528000D02*
X95250000Y-31750000D01*
X93472000Y-63500000D02*
X93472000Y-66802000D01*
X93472000Y-25400000D02*
X93472000Y-27432000D01*
X102997000Y-76327000D02*
X102997000Y-82550000D01*
%TO.N,/C4*%
X112522000Y-66802000D02*
X122047000Y-76327000D01*
X112522000Y-63500000D02*
X112522000Y-52578000D01*
X114300000Y-31750000D02*
X114300000Y-29210000D01*
X112522000Y-46482000D02*
X114300000Y-48260000D01*
X112522000Y-52578000D02*
X114300000Y-50800000D01*
X112522000Y-25400000D02*
X112522000Y-27432000D01*
X112522000Y-27432000D02*
X114300000Y-29210000D01*
X114300000Y-48260000D02*
X114300000Y-50165000D01*
X118110000Y-50165000D02*
X114300000Y-50165000D01*
X114300000Y-50165000D02*
X114300000Y-50800000D01*
X122047000Y-76327000D02*
X122047000Y-82550000D01*
X112522000Y-33528000D02*
X114300000Y-31750000D01*
X112522000Y-63500000D02*
X112522000Y-66802000D01*
X112522000Y-44450000D02*
X112522000Y-46482000D01*
X112522000Y-44450000D02*
X112522000Y-33528000D01*
%TO.N,/C5*%
X137695000Y-70585000D02*
X137695000Y-66040000D01*
X128170000Y-80110000D02*
X137695000Y-70585000D01*
X128170000Y-85090000D02*
X128170000Y-80110000D01*
X137695000Y-27940000D02*
X137695000Y-66040000D01*
%TO.N,/C6*%
X156745000Y-46990000D02*
X156745000Y-43915000D01*
X156745000Y-27940000D02*
X156745000Y-36095000D01*
X156745000Y-36095000D02*
X158750000Y-38100000D01*
X147220000Y-85090000D02*
X147220000Y-80110000D01*
X158750000Y-38100000D02*
X158750000Y-41910000D01*
X147220000Y-80110000D02*
X156745000Y-70585000D01*
X156745000Y-43915000D02*
X158750000Y-41910000D01*
X156745000Y-70585000D02*
X156745000Y-66040000D01*
X156745000Y-46990000D02*
X156745000Y-66040000D01*
%TO.N,/C7*%
X175795000Y-66040000D02*
X175795000Y-27940000D01*
X166270000Y-85090000D02*
X166270000Y-80110000D01*
X166270000Y-80110000D02*
X175795000Y-70585000D01*
X175795000Y-70585000D02*
X175795000Y-66040000D01*
%TO.N,/C8*%
X194845000Y-66040000D02*
X194845000Y-27940000D01*
%TO.N,/C9*%
X213895000Y-62965000D02*
X215900000Y-60960000D01*
X213895000Y-46990000D02*
X213895000Y-43915000D01*
X134620000Y-27305000D02*
X135890000Y-26035000D01*
X215900000Y-41910000D02*
X215900000Y-38100000D01*
X215900000Y-57150000D02*
X215900000Y-60960000D01*
X213895000Y-36095000D02*
X213895000Y-27940000D01*
X135890000Y-24130000D02*
X137160000Y-22860000D01*
X137160000Y-22860000D02*
X212090000Y-22860000D01*
X213895000Y-24665000D02*
X213895000Y-27940000D01*
X213895000Y-46990000D02*
X213895000Y-55145000D01*
X133350000Y-27305000D02*
X134620000Y-27305000D01*
X213895000Y-55145000D02*
X215900000Y-57150000D01*
X135890000Y-26035000D02*
X135890000Y-24130000D01*
X215900000Y-38100000D02*
X213895000Y-36095000D01*
X212090000Y-22860000D02*
X213895000Y-24665000D01*
X213895000Y-66040000D02*
X213895000Y-62965000D01*
X213895000Y-43915000D02*
X215900000Y-41910000D01*
%TD*%
M02*
