M48
; DRILL file {KiCad 6.0.2+dfsg-1} date Mi 19 Apr 2023 16:51:05 CEST
; FORMAT={-:-/ absolute / inch / decimal}
; #@! TF.CreationDate,2023-04-19T16:51:05+02:00
; #@! TF.GenerationSoftware,Kicad,Pcbnew,6.0.2+dfsg-1
; #@! TF.FileFunction,Plated,1,2,PTH
FMAT,2
INCH
; #@! TA.AperFunction,Plated,PTH,ViaDrill
T1C0.0157
; #@! TA.AperFunction,Plated,PTH,ComponentDrill
T2C0.0320
; #@! TA.AperFunction,Plated,PTH,ComponentDrill
T3C0.0512
%
G90
G05
T1
X1.35Y-1.4
X1.35Y-2.15
X1.35Y-2.9
X2.1Y-1.4
X2.1Y-2.15
X2.1Y-2.9
X2.18Y-1.45
X2.85Y-1.4
X2.85Y-2.15
X2.85Y-2.9
X2.93Y-1.675
X3.225Y-3.65
X3.6Y-1.4
X3.6Y-2.15
X3.6Y-2.9
X3.75Y-2.0
X3.975Y-3.65
X4.35Y-1.4
X4.35Y-2.15
X4.35Y-2.9
X4.65Y-2.25
X4.725Y-3.65
X4.8Y-1.6
X4.8Y-2.05
X4.95Y-2.05
X5.05Y-1.425
X5.05Y-2.05
X5.15Y-2.05
X5.175Y-3.65
X5.25Y-2.25
X5.4211Y-2.075
X5.425Y-2.85
X5.55Y-1.4
X5.55Y-2.15
X5.55Y-2.9
X5.925Y-3.65
X6.1711Y-2.075
X6.3Y-1.4
X6.3Y-2.15
X6.3Y-2.9
X6.675Y-3.65
X6.9211Y-1.65
X7.05Y-1.4
X7.05Y-2.15
X7.05Y-2.9
X7.6711Y-1.45
X7.8Y-1.4
X7.8Y-2.15
X7.8Y-2.9
X8.55Y-1.4
X8.55Y-2.15
X8.55Y-2.9
T2
X4.65Y-0.975
X4.65Y-1.075
X4.65Y-1.175
X4.65Y-1.275
X4.65Y-1.375
X4.65Y-1.475
X4.65Y-1.575
X4.65Y-1.675
X4.65Y-1.775
X4.65Y-1.875
X4.65Y-1.975
X4.65Y-2.075
X4.725Y-0.875
X4.75Y-2.25
X4.85Y-2.25
X4.95Y-2.25
X5.05Y-2.25
X5.15Y-2.25
X5.175Y-0.875
X5.25Y-0.975
X5.25Y-1.075
X5.25Y-1.175
X5.25Y-1.275
X5.25Y-1.375
X5.25Y-1.475
X5.25Y-1.575
X5.25Y-1.675
X5.25Y-1.775
X5.25Y-1.875
X5.25Y-1.975
X5.25Y-2.075
T3
X4.822Y-2.7
X5.078Y-2.7
T0
M30
