%TF.GenerationSoftware,KiCad,Pcbnew,7.0.7*%
%TF.CreationDate,2023-08-21T18:25:40+02:00*%
%TF.ProjectId,lancer-hotswap,6c616e63-6572-42d6-986f-74737761702e,rev?*%
%TF.SameCoordinates,Original*%
%TF.FileFunction,Legend,Top*%
%TF.FilePolarity,Positive*%
%FSLAX46Y46*%
G04 Gerber Fmt 4.6, Leading zero omitted, Abs format (unit mm)*
G04 Created by KiCad (PCBNEW 7.0.7) date 2023-08-21 18:25:40*
%MOMM*%
%LPD*%
G01*
G04 APERTURE LIST*
%ADD10C,0.150000*%
%ADD11C,0.120000*%
%ADD12C,1.701800*%
%ADD13C,3.000000*%
%ADD14C,3.987800*%
%ADD15C,4.000000*%
%ADD16C,2.200000*%
%ADD17C,1.524000*%
%ADD18C,0.900000*%
G04 APERTURE END LIST*
D10*
X127650952Y-21679819D02*
X127841428Y-21679819D01*
X127841428Y-21679819D02*
X127936666Y-21727438D01*
X127936666Y-21727438D02*
X128031904Y-21822676D01*
X128031904Y-21822676D02*
X128079523Y-22013152D01*
X128079523Y-22013152D02*
X128079523Y-22346485D01*
X128079523Y-22346485D02*
X128031904Y-22536961D01*
X128031904Y-22536961D02*
X127936666Y-22632200D01*
X127936666Y-22632200D02*
X127841428Y-22679819D01*
X127841428Y-22679819D02*
X127650952Y-22679819D01*
X127650952Y-22679819D02*
X127555714Y-22632200D01*
X127555714Y-22632200D02*
X127460476Y-22536961D01*
X127460476Y-22536961D02*
X127412857Y-22346485D01*
X127412857Y-22346485D02*
X127412857Y-22013152D01*
X127412857Y-22013152D02*
X127460476Y-21822676D01*
X127460476Y-21822676D02*
X127555714Y-21727438D01*
X127555714Y-21727438D02*
X127650952Y-21679819D01*
X128508095Y-22679819D02*
X128508095Y-21679819D01*
X128508095Y-21679819D02*
X129079523Y-22679819D01*
X129079523Y-22679819D02*
X129079523Y-21679819D01*
X132969048Y-22298866D02*
X133730953Y-22298866D01*
X133350000Y-22679819D02*
X133350000Y-21917914D01*
X117729048Y-22298866D02*
X118490953Y-22298866D01*
X122237619Y-21679819D02*
X122428095Y-21679819D01*
X122428095Y-21679819D02*
X122523333Y-21727438D01*
X122523333Y-21727438D02*
X122618571Y-21822676D01*
X122618571Y-21822676D02*
X122666190Y-22013152D01*
X122666190Y-22013152D02*
X122666190Y-22346485D01*
X122666190Y-22346485D02*
X122618571Y-22536961D01*
X122618571Y-22536961D02*
X122523333Y-22632200D01*
X122523333Y-22632200D02*
X122428095Y-22679819D01*
X122428095Y-22679819D02*
X122237619Y-22679819D01*
X122237619Y-22679819D02*
X122142381Y-22632200D01*
X122142381Y-22632200D02*
X122047143Y-22536961D01*
X122047143Y-22536961D02*
X121999524Y-22346485D01*
X121999524Y-22346485D02*
X121999524Y-22013152D01*
X121999524Y-22013152D02*
X122047143Y-21822676D01*
X122047143Y-21822676D02*
X122142381Y-21727438D01*
X122142381Y-21727438D02*
X122237619Y-21679819D01*
X123428095Y-22156009D02*
X123094762Y-22156009D01*
X123094762Y-22679819D02*
X123094762Y-21679819D01*
X123094762Y-21679819D02*
X123570952Y-21679819D01*
X124285238Y-22156009D02*
X123951905Y-22156009D01*
X123951905Y-22679819D02*
X123951905Y-21679819D01*
X123951905Y-21679819D02*
X124428095Y-21679819D01*
X125182380Y-69034819D02*
X124849047Y-68558628D01*
X124610952Y-69034819D02*
X124610952Y-68034819D01*
X124610952Y-68034819D02*
X124991904Y-68034819D01*
X124991904Y-68034819D02*
X125087142Y-68082438D01*
X125087142Y-68082438D02*
X125134761Y-68130057D01*
X125134761Y-68130057D02*
X125182380Y-68225295D01*
X125182380Y-68225295D02*
X125182380Y-68368152D01*
X125182380Y-68368152D02*
X125134761Y-68463390D01*
X125134761Y-68463390D02*
X125087142Y-68511009D01*
X125087142Y-68511009D02*
X124991904Y-68558628D01*
X124991904Y-68558628D02*
X124610952Y-68558628D01*
X125563333Y-68987200D02*
X125706190Y-69034819D01*
X125706190Y-69034819D02*
X125944285Y-69034819D01*
X125944285Y-69034819D02*
X126039523Y-68987200D01*
X126039523Y-68987200D02*
X126087142Y-68939580D01*
X126087142Y-68939580D02*
X126134761Y-68844342D01*
X126134761Y-68844342D02*
X126134761Y-68749104D01*
X126134761Y-68749104D02*
X126087142Y-68653866D01*
X126087142Y-68653866D02*
X126039523Y-68606247D01*
X126039523Y-68606247D02*
X125944285Y-68558628D01*
X125944285Y-68558628D02*
X125753809Y-68511009D01*
X125753809Y-68511009D02*
X125658571Y-68463390D01*
X125658571Y-68463390D02*
X125610952Y-68415771D01*
X125610952Y-68415771D02*
X125563333Y-68320533D01*
X125563333Y-68320533D02*
X125563333Y-68225295D01*
X125563333Y-68225295D02*
X125610952Y-68130057D01*
X125610952Y-68130057D02*
X125658571Y-68082438D01*
X125658571Y-68082438D02*
X125753809Y-68034819D01*
X125753809Y-68034819D02*
X125991904Y-68034819D01*
X125991904Y-68034819D02*
X126134761Y-68082438D01*
X126420476Y-68034819D02*
X126991904Y-68034819D01*
X126706190Y-69034819D02*
X126706190Y-68034819D01*
%TO.C,U1*%
X116840000Y-20955000D02*
X116840000Y-22225000D01*
X116840000Y-20955000D02*
X118110000Y-20955000D01*
D11*
X116840000Y-53975000D02*
X116840000Y-52705000D01*
X116840000Y-53975000D02*
X118110000Y-53975000D01*
X134620000Y-20955000D02*
X133350000Y-20955000D01*
D10*
X134620000Y-20955000D02*
X134620000Y-22225000D01*
D11*
X134620000Y-53975000D02*
X133350000Y-53975000D01*
X134620000Y-53975000D02*
X134620000Y-52705000D01*
D10*
%TO.C,SW38*%
X122880000Y-66980000D02*
X122880000Y-67230000D01*
X122880000Y-66980000D02*
X123330000Y-66980000D01*
X122880000Y-70180000D02*
X122880000Y-69930000D01*
X122880000Y-70180000D02*
X123330000Y-70180000D01*
X125230000Y-66980000D02*
X126230000Y-66980000D01*
X125230000Y-70180000D02*
X126230000Y-70180000D01*
X128130000Y-66980000D02*
X128580000Y-66980000D01*
X128130000Y-70180000D02*
X128580000Y-70180000D01*
X128580000Y-66980000D02*
X128580000Y-67230000D01*
X128580000Y-70180000D02*
X128580000Y-69930000D01*
%TD*%
%LPC*%
D12*
%TO.C,SW10*%
X215900000Y-30480000D03*
D13*
X217170000Y-27940000D03*
D14*
X220980000Y-30480000D03*
D13*
X223520000Y-25400000D03*
D12*
X226060000Y-30480000D03*
%TD*%
D15*
%TO.C,H7*%
X87630000Y-78105000D03*
%TD*%
%TO.C,H1*%
X40005000Y-40005000D03*
%TD*%
D12*
%TO.C,SW15*%
X101600000Y-49530000D03*
D13*
X102870000Y-46990000D03*
D14*
X106680000Y-49530000D03*
D13*
X109220000Y-44450000D03*
D12*
X111760000Y-49530000D03*
%TD*%
%TO.C,SW19*%
X196850000Y-49530000D03*
D13*
X198120000Y-46990000D03*
D14*
X201930000Y-49530000D03*
D13*
X204470000Y-44450000D03*
D12*
X207010000Y-49530000D03*
%TD*%
%TO.C,SW18*%
X177800000Y-49530000D03*
D13*
X179070000Y-46990000D03*
D14*
X182880000Y-49530000D03*
D13*
X185420000Y-44450000D03*
D12*
X187960000Y-49530000D03*
%TD*%
D15*
%TO.C,H5*%
X40005000Y-59055000D03*
%TD*%
D12*
%TO.C,SW35*%
X159385000Y-87630000D03*
D13*
X158115000Y-90170000D03*
D14*
X154305000Y-87630000D03*
D13*
X151765000Y-92710000D03*
D12*
X149225000Y-87630000D03*
%TD*%
%TO.C,SW31*%
X83185000Y-87630000D03*
D13*
X81915000Y-90170000D03*
D14*
X78105000Y-87630000D03*
D13*
X75565000Y-92710000D03*
D12*
X73025000Y-87630000D03*
%TD*%
%TO.C,SW27*%
X158750000Y-68580000D03*
D13*
X160020000Y-66040000D03*
D14*
X163830000Y-68580000D03*
D13*
X166370000Y-63500000D03*
D12*
X168910000Y-68580000D03*
%TD*%
%TO.C,SW8*%
X177800000Y-30480000D03*
D13*
X179070000Y-27940000D03*
D14*
X182880000Y-30480000D03*
D13*
X185420000Y-25400000D03*
D12*
X187960000Y-30480000D03*
%TD*%
D16*
%TO.C,H10*%
X132080000Y-63500000D03*
%TD*%
D17*
%TO.C,H11*%
X120015000Y-22225000D03*
%TD*%
D12*
%TO.C,SW16*%
X139700000Y-49530000D03*
D13*
X140970000Y-46990000D03*
D14*
X144780000Y-49530000D03*
D13*
X147320000Y-44450000D03*
D12*
X149860000Y-49530000D03*
%TD*%
%TO.C,SW13*%
X63500000Y-49530000D03*
D13*
X64770000Y-46990000D03*
D14*
X68580000Y-49530000D03*
D13*
X71120000Y-44450000D03*
D12*
X73660000Y-49530000D03*
%TD*%
%TO.C,SW21*%
X25400000Y-68580000D03*
D13*
X26670000Y-66040000D03*
D14*
X30480000Y-68580000D03*
D13*
X33020000Y-63500000D03*
D12*
X35560000Y-68580000D03*
%TD*%
%TO.C,SW14*%
X82550000Y-49530000D03*
D13*
X83820000Y-46990000D03*
D14*
X87630000Y-49530000D03*
D13*
X90170000Y-44450000D03*
D12*
X92710000Y-49530000D03*
%TD*%
%TO.C,SW32*%
X102235000Y-87630000D03*
D13*
X100965000Y-90170000D03*
D14*
X97155000Y-87630000D03*
D13*
X94615000Y-92710000D03*
D12*
X92075000Y-87630000D03*
%TD*%
%TO.C,SW1*%
X25400000Y-30480000D03*
D13*
X26670000Y-27940000D03*
D14*
X30480000Y-30480000D03*
D13*
X33020000Y-25400000D03*
D12*
X35560000Y-30480000D03*
%TD*%
%TO.C,SW24*%
X82550000Y-68580000D03*
D13*
X83820000Y-66040000D03*
D14*
X87630000Y-68580000D03*
D13*
X90170000Y-63500000D03*
D12*
X92710000Y-68580000D03*
%TD*%
D16*
%TO.C,H9*%
X119380000Y-63500000D03*
%TD*%
D12*
%TO.C,SW23*%
X63500000Y-68580000D03*
D13*
X64770000Y-66040000D03*
D14*
X68580000Y-68580000D03*
D13*
X71120000Y-63500000D03*
D12*
X73660000Y-68580000D03*
%TD*%
%TO.C,SW9*%
X196850000Y-30480000D03*
D13*
X198120000Y-27940000D03*
D14*
X201930000Y-30480000D03*
D13*
X204470000Y-25400000D03*
D12*
X207010000Y-30480000D03*
%TD*%
%TO.C,SW30*%
X215900000Y-68580000D03*
D13*
X217170000Y-66040000D03*
D14*
X220980000Y-68580000D03*
D13*
X223520000Y-63500000D03*
D12*
X226060000Y-68580000D03*
%TD*%
%TO.C,SW34*%
X140335000Y-87630000D03*
D13*
X139065000Y-90170000D03*
D14*
X135255000Y-87630000D03*
D13*
X132715000Y-92710000D03*
D12*
X130175000Y-87630000D03*
%TD*%
%TO.C,SW20*%
X215900000Y-49530000D03*
D13*
X217170000Y-46990000D03*
D14*
X220980000Y-49530000D03*
D13*
X223520000Y-44450000D03*
D12*
X226060000Y-49530000D03*
%TD*%
%TO.C,SW26*%
X139700000Y-68580000D03*
D13*
X140970000Y-66040000D03*
D14*
X144780000Y-68580000D03*
D13*
X147320000Y-63500000D03*
D12*
X149860000Y-68580000D03*
%TD*%
%TO.C,SW25*%
X101600000Y-68580000D03*
D13*
X102870000Y-66040000D03*
D14*
X106680000Y-68580000D03*
D13*
X109220000Y-63500000D03*
D12*
X111760000Y-68580000D03*
%TD*%
D15*
%TO.C,H8*%
X163830000Y-78105000D03*
%TD*%
D12*
%TO.C,SW29*%
X196850000Y-68580000D03*
D13*
X198120000Y-66040000D03*
D14*
X201930000Y-68580000D03*
D13*
X204470000Y-63500000D03*
D12*
X207010000Y-68580000D03*
%TD*%
D15*
%TO.C,H4*%
X211455000Y-40005000D03*
%TD*%
D12*
%TO.C,SW4*%
X82550000Y-30480000D03*
D13*
X83820000Y-27940000D03*
D14*
X87630000Y-30480000D03*
D13*
X90170000Y-25400000D03*
D12*
X92710000Y-30480000D03*
%TD*%
%TO.C,SW36*%
X178435000Y-87630000D03*
D13*
X177165000Y-90170000D03*
D14*
X173355000Y-87630000D03*
D13*
X170815000Y-92710000D03*
D12*
X168275000Y-87630000D03*
%TD*%
D15*
%TO.C,H2*%
X97155000Y-40005000D03*
%TD*%
D12*
%TO.C,SW22*%
X44450000Y-68580000D03*
D13*
X45720000Y-66040000D03*
D14*
X49530000Y-68580000D03*
D13*
X52070000Y-63500000D03*
D12*
X54610000Y-68580000D03*
%TD*%
D15*
%TO.C,H6*%
X211455000Y-59055000D03*
%TD*%
D12*
%TO.C,SW5*%
X101600000Y-30480000D03*
D13*
X102870000Y-27940000D03*
D14*
X106680000Y-30480000D03*
D13*
X109220000Y-25400000D03*
D12*
X111760000Y-30480000D03*
%TD*%
D15*
%TO.C,H3*%
X154305000Y-40005000D03*
%TD*%
D12*
%TO.C,SW7*%
X158750000Y-30480000D03*
D13*
X160020000Y-27940000D03*
D14*
X163830000Y-30480000D03*
D13*
X166370000Y-25400000D03*
D12*
X168910000Y-30480000D03*
%TD*%
%TO.C,SW2*%
X44450000Y-30480000D03*
D13*
X45720000Y-27940000D03*
D14*
X49530000Y-30480000D03*
D13*
X52070000Y-25400000D03*
D12*
X54610000Y-30480000D03*
%TD*%
D17*
%TO.C,H12*%
X131445000Y-22225000D03*
%TD*%
D12*
%TO.C,SW3*%
X63500000Y-30480000D03*
D13*
X64770000Y-27940000D03*
D14*
X68580000Y-30480000D03*
D13*
X71120000Y-25400000D03*
D12*
X73660000Y-30480000D03*
%TD*%
%TO.C,SW17*%
X158750000Y-49530000D03*
D13*
X160020000Y-46990000D03*
D14*
X163830000Y-49530000D03*
D13*
X166370000Y-44450000D03*
D12*
X168910000Y-49530000D03*
%TD*%
%TO.C,SW11*%
X25400000Y-49530000D03*
D13*
X26670000Y-46990000D03*
D14*
X30480000Y-49530000D03*
D13*
X33020000Y-44450000D03*
D12*
X35560000Y-49530000D03*
%TD*%
%TO.C,SW12*%
X44450000Y-49530000D03*
D13*
X45720000Y-46990000D03*
D14*
X49530000Y-49530000D03*
D13*
X52070000Y-44450000D03*
D12*
X54610000Y-49530000D03*
%TD*%
%TO.C,SW33*%
X121285000Y-87630000D03*
D13*
X120015000Y-90170000D03*
D14*
X116205000Y-87630000D03*
D13*
X113665000Y-92710000D03*
D12*
X111125000Y-87630000D03*
%TD*%
%TO.C,SW28*%
X177800000Y-68580000D03*
D13*
X179070000Y-66040000D03*
D14*
X182880000Y-68580000D03*
D13*
X185420000Y-63500000D03*
D12*
X187960000Y-68580000D03*
%TD*%
%TO.C,SW6*%
X139700000Y-30480000D03*
D13*
X140970000Y-27940000D03*
D14*
X144780000Y-30480000D03*
D13*
X147320000Y-25400000D03*
D12*
X149860000Y-30480000D03*
%TD*%
D18*
%TO.C,SW37*%
X124230000Y-23165000D03*
X127230000Y-23165000D03*
%TD*%
%LPD*%
M02*
