%TF.GenerationSoftware,KiCad,Pcbnew,6.0.2+dfsg-1*%
%TF.CreationDate,2023-04-19T16:50:56+02:00*%
%TF.ProjectId,lancer-hotswap,6c616e63-6572-42d6-986f-74737761702e,rev?*%
%TF.SameCoordinates,Original*%
%TF.FileFunction,Copper,L1,Top*%
%TF.FilePolarity,Positive*%
%FSLAX46Y46*%
G04 Gerber Fmt 4.6, Leading zero omitted, Abs format (unit mm)*
G04 Created by KiCad (PCBNEW 6.0.2+dfsg-1) date 2023-04-19 16:50:56*
%MOMM*%
%LPD*%
G01*
G04 APERTURE LIST*
%TA.AperFunction,ComponentPad*%
%ADD10C,1.524000*%
%TD*%
%TA.AperFunction,ComponentPad*%
%ADD11C,2.000000*%
%TD*%
%TA.AperFunction,ViaPad*%
%ADD12C,0.800000*%
%TD*%
%TA.AperFunction,Conductor*%
%ADD13C,0.250000*%
%TD*%
G04 APERTURE END LIST*
D10*
%TO.P,O1,1,MOSI*%
%TO.N,/SDA*%
X120650000Y-57150000D03*
%TO.P,O1,2,SCK*%
%TO.N,/SCL*%
X123190000Y-57150000D03*
%TO.P,O1,3,VCC*%
%TO.N,/VCC*%
X125730000Y-57150000D03*
%TO.P,O1,4,GND*%
%TO.N,/GND*%
X128270000Y-57150000D03*
%TO.P,O1,5,CS*%
%TO.N,/CS*%
X130810000Y-57150000D03*
%TD*%
%TO.P,H11,1,1*%
%TO.N,/GND*%
X120015000Y-22225000D03*
%TD*%
%TO.P,U1,1,D3/TX0/1*%
%TO.N,/CS*%
X133350000Y-24765000D03*
%TO.P,U1,2,D2/RX1/0*%
%TO.N,/C9*%
X133350000Y-27305000D03*
%TO.P,U1,3,GND*%
%TO.N,/GND*%
X133350000Y-29845000D03*
%TO.P,U1,4,GND*%
X133350000Y-32385000D03*
%TO.P,U1,5,D1/SDA/2*%
%TO.N,/SDA*%
X133350000Y-34925000D03*
%TO.P,U1,6,D0/SCL/3*%
%TO.N,/SCL*%
X133350000Y-37465000D03*
%TO.P,U1,7,D4/4*%
%TO.N,/R1*%
X133350000Y-40005000D03*
%TO.P,U1,8,C6/5*%
%TO.N,/C8*%
X133350000Y-42545000D03*
%TO.P,U1,9,D7/6*%
%TO.N,/C7*%
X133350000Y-45085000D03*
%TO.P,U1,10,E6/7*%
%TO.N,/C6*%
X133350000Y-47625000D03*
%TO.P,U1,11,B4/8*%
%TO.N,/C5*%
X133350000Y-50165000D03*
%TO.P,U1,12,B5/9*%
%TO.N,/R4*%
X133350000Y-52705000D03*
%TO.P,U1,13,10/B6*%
%TO.N,/R3*%
X118110000Y-52705000D03*
%TO.P,U1,14,16/MOSI/B2*%
%TO.N,/C4*%
X118110000Y-50165000D03*
%TO.P,U1,15,14/MISO/B3*%
%TO.N,/R2*%
X118110000Y-47625000D03*
%TO.P,U1,16,15/SCLK/B1*%
%TO.N,/C3*%
X118110000Y-45085000D03*
%TO.P,U1,17,A0/F7*%
%TO.N,/C2*%
X118110000Y-42545000D03*
%TO.P,U1,18,A1/F6*%
%TO.N,/C1*%
X118110000Y-40005000D03*
%TO.P,U1,19,A2/F5*%
%TO.N,/R0*%
X118110000Y-37465000D03*
%TO.P,U1,20,A3/F4*%
%TO.N,/C0*%
X118110000Y-34925000D03*
%TO.P,U1,21,VCC*%
%TO.N,/VCC*%
X118110000Y-32385000D03*
%TO.P,U1,22,RST*%
%TO.N,/RST*%
X118110000Y-29845000D03*
%TO.P,U1,23,GND*%
%TO.N,/GND*%
X118110000Y-27305000D03*
%TO.P,U1,24,RAW*%
%TO.N,/RAW*%
X118110000Y-24765000D03*
%TD*%
D11*
%TO.P,SW38,1,1*%
%TO.N,/RST*%
X122480000Y-68580000D03*
%TO.P,SW38,2,2*%
%TO.N,/GND*%
X128980000Y-68580000D03*
%TD*%
D10*
%TO.P,H12,1,1*%
%TO.N,/BAT+*%
X131445000Y-22225000D03*
%TD*%
D12*
%TO.N,/RST*%
X121920000Y-40640000D03*
X121920000Y-52070000D03*
%TO.N,/GND*%
X128270000Y-36195000D03*
X128270000Y-52070000D03*
%TO.N,/CS*%
X130810000Y-52070000D03*
%TO.N,/VCC*%
X125730000Y-52070000D03*
%TO.N,/R0*%
X72390000Y-35560000D03*
X34290000Y-35560000D03*
X53340000Y-35560000D03*
X110490000Y-35560000D03*
X91440000Y-35560000D03*
%TO.N,/R1*%
X217170000Y-35560000D03*
X179070000Y-35560000D03*
X160020000Y-35560000D03*
X140970000Y-35560000D03*
X198120000Y-35560000D03*
%TO.N,/R2*%
X160020000Y-54610000D03*
X110490000Y-54610000D03*
X53340000Y-54610000D03*
X140970000Y-54610000D03*
X198120000Y-54610000D03*
X91440000Y-54610000D03*
X179070000Y-54610000D03*
X34290000Y-54610000D03*
X72390000Y-54610000D03*
X217170000Y-54610000D03*
%TO.N,/R3*%
X160020000Y-73660000D03*
X198120000Y-73660000D03*
X34290000Y-73660000D03*
X72390000Y-73660000D03*
X179070000Y-73660000D03*
X118110000Y-57150000D03*
X53340000Y-73660000D03*
X110490000Y-73660000D03*
X217170000Y-73660000D03*
X91440000Y-73660000D03*
X140970000Y-73660000D03*
%TO.N,/R4*%
X133350000Y-57150000D03*
X100965000Y-92710000D03*
X131445000Y-92710000D03*
X120015000Y-92710000D03*
X150495000Y-92710000D03*
X81915000Y-92710000D03*
X137795000Y-72390000D03*
X169545000Y-92710000D03*
%TO.N,/C1*%
X55372000Y-36830000D03*
%TO.N,/C2*%
X74422000Y-42545000D03*
%TO.N,/C3*%
X95250000Y-50800000D03*
%TO.N,/C5*%
X137695000Y-52705000D03*
%TO.N,/C6*%
X156745000Y-52705000D03*
%TO.N,/C7*%
X175795000Y-41910000D03*
%TO.N,/C8*%
X194845000Y-36830000D03*
%TD*%
D13*
%TO.N,/GND*%
X128270000Y-36195000D02*
X119380000Y-27305000D01*
%TO.N,/RST*%
X121920000Y-52070000D02*
X121920000Y-40640000D01*
%TO.N,/GND*%
X118110000Y-27305000D02*
X119380000Y-27305000D01*
X119380000Y-27305000D02*
X120015000Y-26670000D01*
X120015000Y-26670000D02*
X120015000Y-22225000D01*
X128270000Y-36195000D02*
X128270000Y-52070000D01*
%TO.N,/CS*%
X130810000Y-27305000D02*
X133350000Y-24765000D01*
X130810000Y-52070000D02*
X130810000Y-27305000D01*
%TO.N,/VCC*%
X125730000Y-40005000D02*
X118110000Y-32385000D01*
X125730000Y-52070000D02*
X125730000Y-40005000D01*
%TO.N,/R0*%
X114935000Y-35560000D02*
X110490000Y-35560000D01*
X118110000Y-37465000D02*
X116840000Y-37465000D01*
X34290000Y-35560000D02*
X110490000Y-35560000D01*
X116840000Y-37465000D02*
X114935000Y-35560000D01*
%TO.N,/R1*%
X133350000Y-40005000D02*
X134620000Y-40005000D01*
X140970000Y-35560000D02*
X139065000Y-35560000D01*
X140970000Y-35560000D02*
X217170000Y-35560000D01*
X139065000Y-35560000D02*
X134620000Y-40005000D01*
%TO.N,/R2*%
X116840000Y-47625000D02*
X115570000Y-48895000D01*
X115570000Y-54610000D02*
X114300000Y-54610000D01*
X140970000Y-54610000D02*
X115570000Y-54610000D01*
X115570000Y-48895000D02*
X115570000Y-54610000D01*
X118110000Y-47625000D02*
X116840000Y-47625000D01*
X114300000Y-54610000D02*
X110490000Y-54610000D01*
X34290000Y-54610000D02*
X110490000Y-54610000D01*
X217170000Y-54610000D02*
X140970000Y-54610000D01*
%TO.N,/R3*%
X116205000Y-73660000D02*
X110490000Y-73660000D01*
X217170000Y-73660000D02*
X140970000Y-73660000D01*
X34290000Y-73660000D02*
X110490000Y-73660000D01*
X118110000Y-57150000D02*
X116205000Y-59055000D01*
X116205000Y-73660000D02*
X116205000Y-59055000D01*
X140970000Y-73660000D02*
X116205000Y-73660000D01*
%TO.N,/R4*%
X133350000Y-57150000D02*
X135255000Y-59055000D01*
X135255000Y-59055000D02*
X135255000Y-69850000D01*
X135255000Y-69850000D02*
X137795000Y-72390000D01*
X81915000Y-92710000D02*
X169545000Y-92710000D01*
%TO.N,/C1*%
X116840000Y-40005000D02*
X113665000Y-36830000D01*
X118110000Y-40005000D02*
X116840000Y-40005000D01*
X113665000Y-36830000D02*
X55372000Y-36830000D01*
%TO.N,/C2*%
X118110000Y-42545000D02*
X99695000Y-42545000D01*
X94615000Y-42545000D02*
X74422000Y-42545000D01*
X95250000Y-43180000D02*
X94615000Y-42545000D01*
X99695000Y-42545000D02*
X99060000Y-43180000D01*
X99060000Y-43180000D02*
X95250000Y-43180000D01*
%TO.N,/C3*%
X97155000Y-52705000D02*
X95250000Y-50800000D01*
X116840000Y-45085000D02*
X113030000Y-48895000D01*
X113030000Y-48895000D02*
X113030000Y-51435000D01*
X111760000Y-52705000D02*
X97155000Y-52705000D01*
X118110000Y-45085000D02*
X116840000Y-45085000D01*
X113030000Y-51435000D02*
X111760000Y-52705000D01*
%TO.N,/C5*%
X133350000Y-50165000D02*
X134620000Y-50165000D01*
X137160000Y-52705000D02*
X137695000Y-52705000D01*
X134620000Y-50165000D02*
X137160000Y-52705000D01*
%TO.N,/C6*%
X139700000Y-52705000D02*
X156745000Y-52705000D01*
X134620000Y-47625000D02*
X139700000Y-52705000D01*
X133350000Y-47625000D02*
X134620000Y-47625000D01*
%TO.N,/C7*%
X157480000Y-41910000D02*
X175795000Y-41910000D01*
X152400000Y-43180000D02*
X156210000Y-43180000D01*
X151130000Y-41910000D02*
X152400000Y-43180000D01*
X134620000Y-45085000D02*
X137795000Y-41910000D01*
X156210000Y-43180000D02*
X157480000Y-41910000D01*
X133350000Y-45085000D02*
X134620000Y-45085000D01*
X137795000Y-41910000D02*
X151130000Y-41910000D01*
%TO.N,/C8*%
X133350000Y-42545000D02*
X134620000Y-42545000D01*
X134620000Y-42545000D02*
X140335000Y-36830000D01*
X140335000Y-36830000D02*
X194845000Y-36830000D01*
%TD*%
M02*
