%TF.GenerationSoftware,KiCad,Pcbnew,7.0.7*%
%TF.CreationDate,2023-08-21T18:25:40+02:00*%
%TF.ProjectId,lancer-hotswap,6c616e63-6572-42d6-986f-74737761702e,rev?*%
%TF.SameCoordinates,Original*%
%TF.FileFunction,Legend,Bot*%
%TF.FilePolarity,Positive*%
%FSLAX46Y46*%
G04 Gerber Fmt 4.6, Leading zero omitted, Abs format (unit mm)*
G04 Created by KiCad (PCBNEW 7.0.7) date 2023-08-21 18:25:40*
%MOMM*%
%LPD*%
G01*
G04 APERTURE LIST*
G04 Aperture macros list*
%AMRoundRect*
0 Rectangle with rounded corners*
0 $1 Rounding radius*
0 $2 $3 $4 $5 $6 $7 $8 $9 X,Y pos of 4 corners*
0 Add a 4 corners polygon primitive as box body*
4,1,4,$2,$3,$4,$5,$6,$7,$8,$9,$2,$3,0*
0 Add four circle primitives for the rounded corners*
1,1,$1+$1,$2,$3*
1,1,$1+$1,$4,$5*
1,1,$1+$1,$6,$7*
1,1,$1+$1,$8,$9*
0 Add four rect primitives between the rounded corners*
20,1,$1+$1,$2,$3,$4,$5,0*
20,1,$1+$1,$4,$5,$6,$7,0*
20,1,$1+$1,$6,$7,$8,$9,0*
20,1,$1+$1,$8,$9,$2,$3,0*%
G04 Aperture macros list end*
%ADD10C,0.150000*%
%ADD11C,0.300000*%
%ADD12C,0.100000*%
%ADD13C,0.120000*%
%ADD14C,1.701800*%
%ADD15C,3.000000*%
%ADD16C,3.987800*%
%ADD17RoundRect,0.200000X-1.075000X-1.050000X1.075000X-1.050000X1.075000X1.050000X-1.075000X1.050000X0*%
%ADD18C,4.000000*%
%ADD19RoundRect,0.200000X1.075000X1.050000X-1.075000X1.050000X-1.075000X-1.050000X1.075000X-1.050000X0*%
%ADD20C,1.524000*%
%ADD21C,2.200000*%
%ADD22C,2.000000*%
%ADD23R,1.400000X1.000000*%
%ADD24R,1.000000X0.800000*%
%ADD25C,0.900000*%
%ADD26R,0.700000X1.500000*%
G04 APERTURE END LIST*
D10*
X128767561Y-61388683D02*
X128815180Y-61455350D01*
X128815180Y-61455350D02*
X128815180Y-61555350D01*
X128815180Y-61555350D02*
X128767561Y-61655350D01*
X128767561Y-61655350D02*
X128672323Y-61722017D01*
X128672323Y-61722017D02*
X128577085Y-61755350D01*
X128577085Y-61755350D02*
X128386609Y-61788683D01*
X128386609Y-61788683D02*
X128243752Y-61788683D01*
X128243752Y-61788683D02*
X128053276Y-61755350D01*
X128053276Y-61755350D02*
X127958038Y-61722017D01*
X127958038Y-61722017D02*
X127862800Y-61655350D01*
X127862800Y-61655350D02*
X127815180Y-61555350D01*
X127815180Y-61555350D02*
X127815180Y-61488683D01*
X127815180Y-61488683D02*
X127862800Y-61388683D01*
X127862800Y-61388683D02*
X127910419Y-61355350D01*
X127910419Y-61355350D02*
X128243752Y-61355350D01*
X128243752Y-61355350D02*
X128243752Y-61488683D01*
X127815180Y-61055350D02*
X128815180Y-61055350D01*
X128815180Y-61055350D02*
X127815180Y-60655350D01*
X127815180Y-60655350D02*
X128815180Y-60655350D01*
X127815180Y-60322017D02*
X128815180Y-60322017D01*
X128815180Y-60322017D02*
X128815180Y-60155350D01*
X128815180Y-60155350D02*
X128767561Y-60055350D01*
X128767561Y-60055350D02*
X128672323Y-59988684D01*
X128672323Y-59988684D02*
X128577085Y-59955350D01*
X128577085Y-59955350D02*
X128386609Y-59922017D01*
X128386609Y-59922017D02*
X128243752Y-59922017D01*
X128243752Y-59922017D02*
X128053276Y-59955350D01*
X128053276Y-59955350D02*
X127958038Y-59988684D01*
X127958038Y-59988684D02*
X127862800Y-60055350D01*
X127862800Y-60055350D02*
X127815180Y-60155350D01*
X127815180Y-60155350D02*
X127815180Y-60322017D01*
X122782800Y-61722017D02*
X122735180Y-61622017D01*
X122735180Y-61622017D02*
X122735180Y-61455351D01*
X122735180Y-61455351D02*
X122782800Y-61388684D01*
X122782800Y-61388684D02*
X122830419Y-61355351D01*
X122830419Y-61355351D02*
X122925657Y-61322017D01*
X122925657Y-61322017D02*
X123020895Y-61322017D01*
X123020895Y-61322017D02*
X123116133Y-61355351D01*
X123116133Y-61355351D02*
X123163752Y-61388684D01*
X123163752Y-61388684D02*
X123211371Y-61455351D01*
X123211371Y-61455351D02*
X123258990Y-61588684D01*
X123258990Y-61588684D02*
X123306609Y-61655351D01*
X123306609Y-61655351D02*
X123354228Y-61688684D01*
X123354228Y-61688684D02*
X123449466Y-61722017D01*
X123449466Y-61722017D02*
X123544704Y-61722017D01*
X123544704Y-61722017D02*
X123639942Y-61688684D01*
X123639942Y-61688684D02*
X123687561Y-61655351D01*
X123687561Y-61655351D02*
X123735180Y-61588684D01*
X123735180Y-61588684D02*
X123735180Y-61422017D01*
X123735180Y-61422017D02*
X123687561Y-61322017D01*
X122830419Y-60622017D02*
X122782800Y-60655350D01*
X122782800Y-60655350D02*
X122735180Y-60755350D01*
X122735180Y-60755350D02*
X122735180Y-60822017D01*
X122735180Y-60822017D02*
X122782800Y-60922017D01*
X122782800Y-60922017D02*
X122878038Y-60988684D01*
X122878038Y-60988684D02*
X122973276Y-61022017D01*
X122973276Y-61022017D02*
X123163752Y-61055350D01*
X123163752Y-61055350D02*
X123306609Y-61055350D01*
X123306609Y-61055350D02*
X123497085Y-61022017D01*
X123497085Y-61022017D02*
X123592323Y-60988684D01*
X123592323Y-60988684D02*
X123687561Y-60922017D01*
X123687561Y-60922017D02*
X123735180Y-60822017D01*
X123735180Y-60822017D02*
X123735180Y-60755350D01*
X123735180Y-60755350D02*
X123687561Y-60655350D01*
X123687561Y-60655350D02*
X123639942Y-60622017D01*
X122735180Y-60322017D02*
X123735180Y-60322017D01*
X122735180Y-59922017D02*
X123306609Y-60222017D01*
X123735180Y-59922017D02*
X123163752Y-60322017D01*
X120195180Y-62155350D02*
X121195180Y-62155350D01*
X121195180Y-62155350D02*
X120480895Y-61922017D01*
X120480895Y-61922017D02*
X121195180Y-61688683D01*
X121195180Y-61688683D02*
X120195180Y-61688683D01*
X121195180Y-61222017D02*
X121195180Y-61088683D01*
X121195180Y-61088683D02*
X121147561Y-61022017D01*
X121147561Y-61022017D02*
X121052323Y-60955350D01*
X121052323Y-60955350D02*
X120861847Y-60922017D01*
X120861847Y-60922017D02*
X120528514Y-60922017D01*
X120528514Y-60922017D02*
X120338038Y-60955350D01*
X120338038Y-60955350D02*
X120242800Y-61022017D01*
X120242800Y-61022017D02*
X120195180Y-61088683D01*
X120195180Y-61088683D02*
X120195180Y-61222017D01*
X120195180Y-61222017D02*
X120242800Y-61288683D01*
X120242800Y-61288683D02*
X120338038Y-61355350D01*
X120338038Y-61355350D02*
X120528514Y-61388683D01*
X120528514Y-61388683D02*
X120861847Y-61388683D01*
X120861847Y-61388683D02*
X121052323Y-61355350D01*
X121052323Y-61355350D02*
X121147561Y-61288683D01*
X121147561Y-61288683D02*
X121195180Y-61222017D01*
X120242800Y-60655350D02*
X120195180Y-60555350D01*
X120195180Y-60555350D02*
X120195180Y-60388684D01*
X120195180Y-60388684D02*
X120242800Y-60322017D01*
X120242800Y-60322017D02*
X120290419Y-60288684D01*
X120290419Y-60288684D02*
X120385657Y-60255350D01*
X120385657Y-60255350D02*
X120480895Y-60255350D01*
X120480895Y-60255350D02*
X120576133Y-60288684D01*
X120576133Y-60288684D02*
X120623752Y-60322017D01*
X120623752Y-60322017D02*
X120671371Y-60388684D01*
X120671371Y-60388684D02*
X120718990Y-60522017D01*
X120718990Y-60522017D02*
X120766609Y-60588684D01*
X120766609Y-60588684D02*
X120814228Y-60622017D01*
X120814228Y-60622017D02*
X120909466Y-60655350D01*
X120909466Y-60655350D02*
X121004704Y-60655350D01*
X121004704Y-60655350D02*
X121099942Y-60622017D01*
X121099942Y-60622017D02*
X121147561Y-60588684D01*
X121147561Y-60588684D02*
X121195180Y-60522017D01*
X121195180Y-60522017D02*
X121195180Y-60355350D01*
X121195180Y-60355350D02*
X121147561Y-60255350D01*
X120195180Y-59955350D02*
X121195180Y-59955350D01*
X126275180Y-61722017D02*
X125275180Y-61488684D01*
X125275180Y-61488684D02*
X126275180Y-61255350D01*
X125370419Y-60622017D02*
X125322800Y-60655350D01*
X125322800Y-60655350D02*
X125275180Y-60755350D01*
X125275180Y-60755350D02*
X125275180Y-60822017D01*
X125275180Y-60822017D02*
X125322800Y-60922017D01*
X125322800Y-60922017D02*
X125418038Y-60988684D01*
X125418038Y-60988684D02*
X125513276Y-61022017D01*
X125513276Y-61022017D02*
X125703752Y-61055350D01*
X125703752Y-61055350D02*
X125846609Y-61055350D01*
X125846609Y-61055350D02*
X126037085Y-61022017D01*
X126037085Y-61022017D02*
X126132323Y-60988684D01*
X126132323Y-60988684D02*
X126227561Y-60922017D01*
X126227561Y-60922017D02*
X126275180Y-60822017D01*
X126275180Y-60822017D02*
X126275180Y-60755350D01*
X126275180Y-60755350D02*
X126227561Y-60655350D01*
X126227561Y-60655350D02*
X126179942Y-60622017D01*
X125370419Y-59922017D02*
X125322800Y-59955350D01*
X125322800Y-59955350D02*
X125275180Y-60055350D01*
X125275180Y-60055350D02*
X125275180Y-60122017D01*
X125275180Y-60122017D02*
X125322800Y-60222017D01*
X125322800Y-60222017D02*
X125418038Y-60288684D01*
X125418038Y-60288684D02*
X125513276Y-60322017D01*
X125513276Y-60322017D02*
X125703752Y-60355350D01*
X125703752Y-60355350D02*
X125846609Y-60355350D01*
X125846609Y-60355350D02*
X126037085Y-60322017D01*
X126037085Y-60322017D02*
X126132323Y-60288684D01*
X126132323Y-60288684D02*
X126227561Y-60222017D01*
X126227561Y-60222017D02*
X126275180Y-60122017D01*
X126275180Y-60122017D02*
X126275180Y-60055350D01*
X126275180Y-60055350D02*
X126227561Y-59955350D01*
X126227561Y-59955350D02*
X126179942Y-59922017D01*
X130450419Y-60588684D02*
X130402800Y-60622017D01*
X130402800Y-60622017D02*
X130355180Y-60722017D01*
X130355180Y-60722017D02*
X130355180Y-60788684D01*
X130355180Y-60788684D02*
X130402800Y-60888684D01*
X130402800Y-60888684D02*
X130498038Y-60955351D01*
X130498038Y-60955351D02*
X130593276Y-60988684D01*
X130593276Y-60988684D02*
X130783752Y-61022017D01*
X130783752Y-61022017D02*
X130926609Y-61022017D01*
X130926609Y-61022017D02*
X131117085Y-60988684D01*
X131117085Y-60988684D02*
X131212323Y-60955351D01*
X131212323Y-60955351D02*
X131307561Y-60888684D01*
X131307561Y-60888684D02*
X131355180Y-60788684D01*
X131355180Y-60788684D02*
X131355180Y-60722017D01*
X131355180Y-60722017D02*
X131307561Y-60622017D01*
X131307561Y-60622017D02*
X131259942Y-60588684D01*
X130402800Y-60322017D02*
X130355180Y-60222017D01*
X130355180Y-60222017D02*
X130355180Y-60055351D01*
X130355180Y-60055351D02*
X130402800Y-59988684D01*
X130402800Y-59988684D02*
X130450419Y-59955351D01*
X130450419Y-59955351D02*
X130545657Y-59922017D01*
X130545657Y-59922017D02*
X130640895Y-59922017D01*
X130640895Y-59922017D02*
X130736133Y-59955351D01*
X130736133Y-59955351D02*
X130783752Y-59988684D01*
X130783752Y-59988684D02*
X130831371Y-60055351D01*
X130831371Y-60055351D02*
X130878990Y-60188684D01*
X130878990Y-60188684D02*
X130926609Y-60255351D01*
X130926609Y-60255351D02*
X130974228Y-60288684D01*
X130974228Y-60288684D02*
X131069466Y-60322017D01*
X131069466Y-60322017D02*
X131164704Y-60322017D01*
X131164704Y-60322017D02*
X131259942Y-60288684D01*
X131259942Y-60288684D02*
X131307561Y-60255351D01*
X131307561Y-60255351D02*
X131355180Y-60188684D01*
X131355180Y-60188684D02*
X131355180Y-60022017D01*
X131355180Y-60022017D02*
X131307561Y-59922017D01*
X131781316Y-53159819D02*
X131647982Y-53159819D01*
X131647982Y-53159819D02*
X131581316Y-53112200D01*
X131581316Y-53112200D02*
X131547982Y-53064580D01*
X131547982Y-53064580D02*
X131481316Y-52921723D01*
X131481316Y-52921723D02*
X131447982Y-52731247D01*
X131447982Y-52731247D02*
X131447982Y-52350295D01*
X131447982Y-52350295D02*
X131481316Y-52255057D01*
X131481316Y-52255057D02*
X131514649Y-52207438D01*
X131514649Y-52207438D02*
X131581316Y-52159819D01*
X131581316Y-52159819D02*
X131714649Y-52159819D01*
X131714649Y-52159819D02*
X131781316Y-52207438D01*
X131781316Y-52207438D02*
X131814649Y-52255057D01*
X131814649Y-52255057D02*
X131847982Y-52350295D01*
X131847982Y-52350295D02*
X131847982Y-52588390D01*
X131847982Y-52588390D02*
X131814649Y-52683628D01*
X131814649Y-52683628D02*
X131781316Y-52731247D01*
X131781316Y-52731247D02*
X131714649Y-52778866D01*
X131714649Y-52778866D02*
X131581316Y-52778866D01*
X131581316Y-52778866D02*
X131514649Y-52731247D01*
X131514649Y-52731247D02*
X131481316Y-52683628D01*
X131481316Y-52683628D02*
X131447982Y-52588390D01*
X130647982Y-52112200D02*
X131247982Y-53397914D01*
X130181316Y-52636009D02*
X130081316Y-52683628D01*
X130081316Y-52683628D02*
X130047982Y-52731247D01*
X130047982Y-52731247D02*
X130014649Y-52826485D01*
X130014649Y-52826485D02*
X130014649Y-52969342D01*
X130014649Y-52969342D02*
X130047982Y-53064580D01*
X130047982Y-53064580D02*
X130081316Y-53112200D01*
X130081316Y-53112200D02*
X130147982Y-53159819D01*
X130147982Y-53159819D02*
X130414649Y-53159819D01*
X130414649Y-53159819D02*
X130414649Y-52159819D01*
X130414649Y-52159819D02*
X130181316Y-52159819D01*
X130181316Y-52159819D02*
X130114649Y-52207438D01*
X130114649Y-52207438D02*
X130081316Y-52255057D01*
X130081316Y-52255057D02*
X130047982Y-52350295D01*
X130047982Y-52350295D02*
X130047982Y-52445533D01*
X130047982Y-52445533D02*
X130081316Y-52540771D01*
X130081316Y-52540771D02*
X130114649Y-52588390D01*
X130114649Y-52588390D02*
X130181316Y-52636009D01*
X130181316Y-52636009D02*
X130414649Y-52636009D01*
X129381316Y-52159819D02*
X129714649Y-52159819D01*
X129714649Y-52159819D02*
X129747982Y-52636009D01*
X129747982Y-52636009D02*
X129714649Y-52588390D01*
X129714649Y-52588390D02*
X129647982Y-52540771D01*
X129647982Y-52540771D02*
X129481316Y-52540771D01*
X129481316Y-52540771D02*
X129414649Y-52588390D01*
X129414649Y-52588390D02*
X129381316Y-52636009D01*
X129381316Y-52636009D02*
X129347982Y-52731247D01*
X129347982Y-52731247D02*
X129347982Y-52969342D01*
X129347982Y-52969342D02*
X129381316Y-53064580D01*
X129381316Y-53064580D02*
X129414649Y-53112200D01*
X129414649Y-53112200D02*
X129481316Y-53159819D01*
X129481316Y-53159819D02*
X129647982Y-53159819D01*
X129647982Y-53159819D02*
X129714649Y-53112200D01*
X129714649Y-53112200D02*
X129747982Y-53064580D01*
X122345351Y-42476009D02*
X122578684Y-42476009D01*
X122578684Y-42999819D02*
X122578684Y-41999819D01*
X122578684Y-41999819D02*
X122245351Y-41999819D01*
X122045351Y-41999819D02*
X121578684Y-41999819D01*
X121578684Y-41999819D02*
X121878684Y-42999819D01*
X120812017Y-41952200D02*
X121412017Y-43237914D01*
X120612017Y-42714104D02*
X120278684Y-42714104D01*
X120678684Y-42999819D02*
X120445351Y-41999819D01*
X120445351Y-41999819D02*
X120212017Y-42999819D01*
X119845351Y-41999819D02*
X119778684Y-41999819D01*
X119778684Y-41999819D02*
X119712017Y-42047438D01*
X119712017Y-42047438D02*
X119678684Y-42095057D01*
X119678684Y-42095057D02*
X119645351Y-42190295D01*
X119645351Y-42190295D02*
X119612017Y-42380771D01*
X119612017Y-42380771D02*
X119612017Y-42618866D01*
X119612017Y-42618866D02*
X119645351Y-42809342D01*
X119645351Y-42809342D02*
X119678684Y-42904580D01*
X119678684Y-42904580D02*
X119712017Y-42952200D01*
X119712017Y-42952200D02*
X119778684Y-42999819D01*
X119778684Y-42999819D02*
X119845351Y-42999819D01*
X119845351Y-42999819D02*
X119912017Y-42952200D01*
X119912017Y-42952200D02*
X119945351Y-42904580D01*
X119945351Y-42904580D02*
X119978684Y-42809342D01*
X119978684Y-42809342D02*
X120012017Y-42618866D01*
X120012017Y-42618866D02*
X120012017Y-42380771D01*
X120012017Y-42380771D02*
X119978684Y-42190295D01*
X119978684Y-42190295D02*
X119945351Y-42095057D01*
X119945351Y-42095057D02*
X119912017Y-42047438D01*
X119912017Y-42047438D02*
X119845351Y-41999819D01*
X122512018Y-45016009D02*
X122412018Y-45063628D01*
X122412018Y-45063628D02*
X122378684Y-45111247D01*
X122378684Y-45111247D02*
X122345351Y-45206485D01*
X122345351Y-45206485D02*
X122345351Y-45349342D01*
X122345351Y-45349342D02*
X122378684Y-45444580D01*
X122378684Y-45444580D02*
X122412018Y-45492200D01*
X122412018Y-45492200D02*
X122478684Y-45539819D01*
X122478684Y-45539819D02*
X122745351Y-45539819D01*
X122745351Y-45539819D02*
X122745351Y-44539819D01*
X122745351Y-44539819D02*
X122512018Y-44539819D01*
X122512018Y-44539819D02*
X122445351Y-44587438D01*
X122445351Y-44587438D02*
X122412018Y-44635057D01*
X122412018Y-44635057D02*
X122378684Y-44730295D01*
X122378684Y-44730295D02*
X122378684Y-44825533D01*
X122378684Y-44825533D02*
X122412018Y-44920771D01*
X122412018Y-44920771D02*
X122445351Y-44968390D01*
X122445351Y-44968390D02*
X122512018Y-45016009D01*
X122512018Y-45016009D02*
X122745351Y-45016009D01*
X121678684Y-45539819D02*
X122078684Y-45539819D01*
X121878684Y-45539819D02*
X121878684Y-44539819D01*
X121878684Y-44539819D02*
X121945351Y-44682676D01*
X121945351Y-44682676D02*
X122012018Y-44777914D01*
X122012018Y-44777914D02*
X122078684Y-44825533D01*
X120878684Y-44492200D02*
X121478684Y-45777914D01*
X120278684Y-45539819D02*
X120678684Y-45539819D01*
X120478684Y-45539819D02*
X120478684Y-44539819D01*
X120478684Y-44539819D02*
X120545351Y-44682676D01*
X120545351Y-44682676D02*
X120612018Y-44777914D01*
X120612018Y-44777914D02*
X120678684Y-44825533D01*
X119645351Y-44539819D02*
X119978684Y-44539819D01*
X119978684Y-44539819D02*
X120012017Y-45016009D01*
X120012017Y-45016009D02*
X119978684Y-44968390D01*
X119978684Y-44968390D02*
X119912017Y-44920771D01*
X119912017Y-44920771D02*
X119745351Y-44920771D01*
X119745351Y-44920771D02*
X119678684Y-44968390D01*
X119678684Y-44968390D02*
X119645351Y-45016009D01*
X119645351Y-45016009D02*
X119612017Y-45111247D01*
X119612017Y-45111247D02*
X119612017Y-45349342D01*
X119612017Y-45349342D02*
X119645351Y-45444580D01*
X119645351Y-45444580D02*
X119678684Y-45492200D01*
X119678684Y-45492200D02*
X119745351Y-45539819D01*
X119745351Y-45539819D02*
X119912017Y-45539819D01*
X119912017Y-45539819D02*
X119978684Y-45492200D01*
X119978684Y-45492200D02*
X120012017Y-45444580D01*
X122512018Y-52636009D02*
X122412018Y-52683628D01*
X122412018Y-52683628D02*
X122378684Y-52731247D01*
X122378684Y-52731247D02*
X122345351Y-52826485D01*
X122345351Y-52826485D02*
X122345351Y-52969342D01*
X122345351Y-52969342D02*
X122378684Y-53064580D01*
X122378684Y-53064580D02*
X122412018Y-53112200D01*
X122412018Y-53112200D02*
X122478684Y-53159819D01*
X122478684Y-53159819D02*
X122745351Y-53159819D01*
X122745351Y-53159819D02*
X122745351Y-52159819D01*
X122745351Y-52159819D02*
X122512018Y-52159819D01*
X122512018Y-52159819D02*
X122445351Y-52207438D01*
X122445351Y-52207438D02*
X122412018Y-52255057D01*
X122412018Y-52255057D02*
X122378684Y-52350295D01*
X122378684Y-52350295D02*
X122378684Y-52445533D01*
X122378684Y-52445533D02*
X122412018Y-52540771D01*
X122412018Y-52540771D02*
X122445351Y-52588390D01*
X122445351Y-52588390D02*
X122512018Y-52636009D01*
X122512018Y-52636009D02*
X122745351Y-52636009D01*
X121745351Y-52159819D02*
X121878684Y-52159819D01*
X121878684Y-52159819D02*
X121945351Y-52207438D01*
X121945351Y-52207438D02*
X121978684Y-52255057D01*
X121978684Y-52255057D02*
X122045351Y-52397914D01*
X122045351Y-52397914D02*
X122078684Y-52588390D01*
X122078684Y-52588390D02*
X122078684Y-52969342D01*
X122078684Y-52969342D02*
X122045351Y-53064580D01*
X122045351Y-53064580D02*
X122012018Y-53112200D01*
X122012018Y-53112200D02*
X121945351Y-53159819D01*
X121945351Y-53159819D02*
X121812018Y-53159819D01*
X121812018Y-53159819D02*
X121745351Y-53112200D01*
X121745351Y-53112200D02*
X121712018Y-53064580D01*
X121712018Y-53064580D02*
X121678684Y-52969342D01*
X121678684Y-52969342D02*
X121678684Y-52731247D01*
X121678684Y-52731247D02*
X121712018Y-52636009D01*
X121712018Y-52636009D02*
X121745351Y-52588390D01*
X121745351Y-52588390D02*
X121812018Y-52540771D01*
X121812018Y-52540771D02*
X121945351Y-52540771D01*
X121945351Y-52540771D02*
X122012018Y-52588390D01*
X122012018Y-52588390D02*
X122045351Y-52636009D01*
X122045351Y-52636009D02*
X122078684Y-52731247D01*
X120878684Y-52112200D02*
X121478684Y-53397914D01*
X120278684Y-53159819D02*
X120678684Y-53159819D01*
X120478684Y-53159819D02*
X120478684Y-52159819D01*
X120478684Y-52159819D02*
X120545351Y-52302676D01*
X120545351Y-52302676D02*
X120612018Y-52397914D01*
X120612018Y-52397914D02*
X120678684Y-52445533D01*
X119845351Y-52159819D02*
X119778684Y-52159819D01*
X119778684Y-52159819D02*
X119712017Y-52207438D01*
X119712017Y-52207438D02*
X119678684Y-52255057D01*
X119678684Y-52255057D02*
X119645351Y-52350295D01*
X119645351Y-52350295D02*
X119612017Y-52540771D01*
X119612017Y-52540771D02*
X119612017Y-52778866D01*
X119612017Y-52778866D02*
X119645351Y-52969342D01*
X119645351Y-52969342D02*
X119678684Y-53064580D01*
X119678684Y-53064580D02*
X119712017Y-53112200D01*
X119712017Y-53112200D02*
X119778684Y-53159819D01*
X119778684Y-53159819D02*
X119845351Y-53159819D01*
X119845351Y-53159819D02*
X119912017Y-53112200D01*
X119912017Y-53112200D02*
X119945351Y-53064580D01*
X119945351Y-53064580D02*
X119978684Y-52969342D01*
X119978684Y-52969342D02*
X120012017Y-52778866D01*
X120012017Y-52778866D02*
X120012017Y-52540771D01*
X120012017Y-52540771D02*
X119978684Y-52350295D01*
X119978684Y-52350295D02*
X119945351Y-52255057D01*
X119945351Y-52255057D02*
X119912017Y-52207438D01*
X119912017Y-52207438D02*
X119845351Y-52159819D01*
X131447982Y-29347438D02*
X131514649Y-29299819D01*
X131514649Y-29299819D02*
X131614649Y-29299819D01*
X131614649Y-29299819D02*
X131714649Y-29347438D01*
X131714649Y-29347438D02*
X131781316Y-29442676D01*
X131781316Y-29442676D02*
X131814649Y-29537914D01*
X131814649Y-29537914D02*
X131847982Y-29728390D01*
X131847982Y-29728390D02*
X131847982Y-29871247D01*
X131847982Y-29871247D02*
X131814649Y-30061723D01*
X131814649Y-30061723D02*
X131781316Y-30156961D01*
X131781316Y-30156961D02*
X131714649Y-30252200D01*
X131714649Y-30252200D02*
X131614649Y-30299819D01*
X131614649Y-30299819D02*
X131547982Y-30299819D01*
X131547982Y-30299819D02*
X131447982Y-30252200D01*
X131447982Y-30252200D02*
X131414649Y-30204580D01*
X131414649Y-30204580D02*
X131414649Y-29871247D01*
X131414649Y-29871247D02*
X131547982Y-29871247D01*
X131114649Y-30299819D02*
X131114649Y-29299819D01*
X131114649Y-29299819D02*
X130714649Y-30299819D01*
X130714649Y-30299819D02*
X130714649Y-29299819D01*
X130381316Y-30299819D02*
X130381316Y-29299819D01*
X130381316Y-29299819D02*
X130214649Y-29299819D01*
X130214649Y-29299819D02*
X130114649Y-29347438D01*
X130114649Y-29347438D02*
X130047983Y-29442676D01*
X130047983Y-29442676D02*
X130014649Y-29537914D01*
X130014649Y-29537914D02*
X129981316Y-29728390D01*
X129981316Y-29728390D02*
X129981316Y-29871247D01*
X129981316Y-29871247D02*
X130014649Y-30061723D01*
X130014649Y-30061723D02*
X130047983Y-30156961D01*
X130047983Y-30156961D02*
X130114649Y-30252200D01*
X130114649Y-30252200D02*
X130214649Y-30299819D01*
X130214649Y-30299819D02*
X130381316Y-30299819D01*
X131681316Y-26759819D02*
X131614649Y-26759819D01*
X131614649Y-26759819D02*
X131547982Y-26807438D01*
X131547982Y-26807438D02*
X131514649Y-26855057D01*
X131514649Y-26855057D02*
X131481316Y-26950295D01*
X131481316Y-26950295D02*
X131447982Y-27140771D01*
X131447982Y-27140771D02*
X131447982Y-27378866D01*
X131447982Y-27378866D02*
X131481316Y-27569342D01*
X131481316Y-27569342D02*
X131514649Y-27664580D01*
X131514649Y-27664580D02*
X131547982Y-27712200D01*
X131547982Y-27712200D02*
X131614649Y-27759819D01*
X131614649Y-27759819D02*
X131681316Y-27759819D01*
X131681316Y-27759819D02*
X131747982Y-27712200D01*
X131747982Y-27712200D02*
X131781316Y-27664580D01*
X131781316Y-27664580D02*
X131814649Y-27569342D01*
X131814649Y-27569342D02*
X131847982Y-27378866D01*
X131847982Y-27378866D02*
X131847982Y-27140771D01*
X131847982Y-27140771D02*
X131814649Y-26950295D01*
X131814649Y-26950295D02*
X131781316Y-26855057D01*
X131781316Y-26855057D02*
X131747982Y-26807438D01*
X131747982Y-26807438D02*
X131681316Y-26759819D01*
X130647982Y-26712200D02*
X131247982Y-27997914D01*
X130414649Y-27759819D02*
X130414649Y-26759819D01*
X130414649Y-26759819D02*
X130247982Y-26759819D01*
X130247982Y-26759819D02*
X130147982Y-26807438D01*
X130147982Y-26807438D02*
X130081316Y-26902676D01*
X130081316Y-26902676D02*
X130047982Y-26997914D01*
X130047982Y-26997914D02*
X130014649Y-27188390D01*
X130014649Y-27188390D02*
X130014649Y-27331247D01*
X130014649Y-27331247D02*
X130047982Y-27521723D01*
X130047982Y-27521723D02*
X130081316Y-27616961D01*
X130081316Y-27616961D02*
X130147982Y-27712200D01*
X130147982Y-27712200D02*
X130247982Y-27759819D01*
X130247982Y-27759819D02*
X130414649Y-27759819D01*
X129747982Y-26855057D02*
X129714649Y-26807438D01*
X129714649Y-26807438D02*
X129647982Y-26759819D01*
X129647982Y-26759819D02*
X129481316Y-26759819D01*
X129481316Y-26759819D02*
X129414649Y-26807438D01*
X129414649Y-26807438D02*
X129381316Y-26855057D01*
X129381316Y-26855057D02*
X129347982Y-26950295D01*
X129347982Y-26950295D02*
X129347982Y-27045533D01*
X129347982Y-27045533D02*
X129381316Y-27188390D01*
X129381316Y-27188390D02*
X129781316Y-27759819D01*
X129781316Y-27759819D02*
X129347982Y-27759819D01*
X131514649Y-39793152D02*
X131514649Y-40459819D01*
X131681316Y-39412200D02*
X131847982Y-40126485D01*
X131847982Y-40126485D02*
X131414649Y-40126485D01*
X130647982Y-39412200D02*
X131247982Y-40697914D01*
X130414649Y-40459819D02*
X130414649Y-39459819D01*
X130414649Y-39459819D02*
X130247982Y-39459819D01*
X130247982Y-39459819D02*
X130147982Y-39507438D01*
X130147982Y-39507438D02*
X130081316Y-39602676D01*
X130081316Y-39602676D02*
X130047982Y-39697914D01*
X130047982Y-39697914D02*
X130014649Y-39888390D01*
X130014649Y-39888390D02*
X130014649Y-40031247D01*
X130014649Y-40031247D02*
X130047982Y-40221723D01*
X130047982Y-40221723D02*
X130081316Y-40316961D01*
X130081316Y-40316961D02*
X130147982Y-40412200D01*
X130147982Y-40412200D02*
X130247982Y-40459819D01*
X130247982Y-40459819D02*
X130414649Y-40459819D01*
X129414649Y-39793152D02*
X129414649Y-40459819D01*
X129581316Y-39412200D02*
X129747982Y-40126485D01*
X129747982Y-40126485D02*
X129314649Y-40126485D01*
X131447982Y-25219819D02*
X131847982Y-25219819D01*
X131647982Y-25219819D02*
X131647982Y-24219819D01*
X131647982Y-24219819D02*
X131714649Y-24362676D01*
X131714649Y-24362676D02*
X131781316Y-24457914D01*
X131781316Y-24457914D02*
X131847982Y-24505533D01*
X130647982Y-24172200D02*
X131247982Y-25457914D01*
X130414649Y-25219819D02*
X130414649Y-24219819D01*
X130414649Y-24219819D02*
X130247982Y-24219819D01*
X130247982Y-24219819D02*
X130147982Y-24267438D01*
X130147982Y-24267438D02*
X130081316Y-24362676D01*
X130081316Y-24362676D02*
X130047982Y-24457914D01*
X130047982Y-24457914D02*
X130014649Y-24648390D01*
X130014649Y-24648390D02*
X130014649Y-24791247D01*
X130014649Y-24791247D02*
X130047982Y-24981723D01*
X130047982Y-24981723D02*
X130081316Y-25076961D01*
X130081316Y-25076961D02*
X130147982Y-25172200D01*
X130147982Y-25172200D02*
X130247982Y-25219819D01*
X130247982Y-25219819D02*
X130414649Y-25219819D01*
X129781316Y-24219819D02*
X129347982Y-24219819D01*
X129347982Y-24219819D02*
X129581316Y-24600771D01*
X129581316Y-24600771D02*
X129481316Y-24600771D01*
X129481316Y-24600771D02*
X129414649Y-24648390D01*
X129414649Y-24648390D02*
X129381316Y-24696009D01*
X129381316Y-24696009D02*
X129347982Y-24791247D01*
X129347982Y-24791247D02*
X129347982Y-25029342D01*
X129347982Y-25029342D02*
X129381316Y-25124580D01*
X129381316Y-25124580D02*
X129414649Y-25172200D01*
X129414649Y-25172200D02*
X129481316Y-25219819D01*
X129481316Y-25219819D02*
X129681316Y-25219819D01*
X129681316Y-25219819D02*
X129747982Y-25172200D01*
X129747982Y-25172200D02*
X129781316Y-25124580D01*
X121412017Y-31839819D02*
X121178684Y-32839819D01*
X121178684Y-32839819D02*
X120945350Y-31839819D01*
X120312017Y-32744580D02*
X120345350Y-32792200D01*
X120345350Y-32792200D02*
X120445350Y-32839819D01*
X120445350Y-32839819D02*
X120512017Y-32839819D01*
X120512017Y-32839819D02*
X120612017Y-32792200D01*
X120612017Y-32792200D02*
X120678684Y-32696961D01*
X120678684Y-32696961D02*
X120712017Y-32601723D01*
X120712017Y-32601723D02*
X120745350Y-32411247D01*
X120745350Y-32411247D02*
X120745350Y-32268390D01*
X120745350Y-32268390D02*
X120712017Y-32077914D01*
X120712017Y-32077914D02*
X120678684Y-31982676D01*
X120678684Y-31982676D02*
X120612017Y-31887438D01*
X120612017Y-31887438D02*
X120512017Y-31839819D01*
X120512017Y-31839819D02*
X120445350Y-31839819D01*
X120445350Y-31839819D02*
X120345350Y-31887438D01*
X120345350Y-31887438D02*
X120312017Y-31935057D01*
X119612017Y-32744580D02*
X119645350Y-32792200D01*
X119645350Y-32792200D02*
X119745350Y-32839819D01*
X119745350Y-32839819D02*
X119812017Y-32839819D01*
X119812017Y-32839819D02*
X119912017Y-32792200D01*
X119912017Y-32792200D02*
X119978684Y-32696961D01*
X119978684Y-32696961D02*
X120012017Y-32601723D01*
X120012017Y-32601723D02*
X120045350Y-32411247D01*
X120045350Y-32411247D02*
X120045350Y-32268390D01*
X120045350Y-32268390D02*
X120012017Y-32077914D01*
X120012017Y-32077914D02*
X119978684Y-31982676D01*
X119978684Y-31982676D02*
X119912017Y-31887438D01*
X119912017Y-31887438D02*
X119812017Y-31839819D01*
X119812017Y-31839819D02*
X119745350Y-31839819D01*
X119745350Y-31839819D02*
X119645350Y-31887438D01*
X119645350Y-31887438D02*
X119612017Y-31935057D01*
X131714649Y-50048390D02*
X131781316Y-50000771D01*
X131781316Y-50000771D02*
X131814649Y-49953152D01*
X131814649Y-49953152D02*
X131847982Y-49857914D01*
X131847982Y-49857914D02*
X131847982Y-49810295D01*
X131847982Y-49810295D02*
X131814649Y-49715057D01*
X131814649Y-49715057D02*
X131781316Y-49667438D01*
X131781316Y-49667438D02*
X131714649Y-49619819D01*
X131714649Y-49619819D02*
X131581316Y-49619819D01*
X131581316Y-49619819D02*
X131514649Y-49667438D01*
X131514649Y-49667438D02*
X131481316Y-49715057D01*
X131481316Y-49715057D02*
X131447982Y-49810295D01*
X131447982Y-49810295D02*
X131447982Y-49857914D01*
X131447982Y-49857914D02*
X131481316Y-49953152D01*
X131481316Y-49953152D02*
X131514649Y-50000771D01*
X131514649Y-50000771D02*
X131581316Y-50048390D01*
X131581316Y-50048390D02*
X131714649Y-50048390D01*
X131714649Y-50048390D02*
X131781316Y-50096009D01*
X131781316Y-50096009D02*
X131814649Y-50143628D01*
X131814649Y-50143628D02*
X131847982Y-50238866D01*
X131847982Y-50238866D02*
X131847982Y-50429342D01*
X131847982Y-50429342D02*
X131814649Y-50524580D01*
X131814649Y-50524580D02*
X131781316Y-50572200D01*
X131781316Y-50572200D02*
X131714649Y-50619819D01*
X131714649Y-50619819D02*
X131581316Y-50619819D01*
X131581316Y-50619819D02*
X131514649Y-50572200D01*
X131514649Y-50572200D02*
X131481316Y-50524580D01*
X131481316Y-50524580D02*
X131447982Y-50429342D01*
X131447982Y-50429342D02*
X131447982Y-50238866D01*
X131447982Y-50238866D02*
X131481316Y-50143628D01*
X131481316Y-50143628D02*
X131514649Y-50096009D01*
X131514649Y-50096009D02*
X131581316Y-50048390D01*
X130647982Y-49572200D02*
X131247982Y-50857914D01*
X130181316Y-50096009D02*
X130081316Y-50143628D01*
X130081316Y-50143628D02*
X130047982Y-50191247D01*
X130047982Y-50191247D02*
X130014649Y-50286485D01*
X130014649Y-50286485D02*
X130014649Y-50429342D01*
X130014649Y-50429342D02*
X130047982Y-50524580D01*
X130047982Y-50524580D02*
X130081316Y-50572200D01*
X130081316Y-50572200D02*
X130147982Y-50619819D01*
X130147982Y-50619819D02*
X130414649Y-50619819D01*
X130414649Y-50619819D02*
X130414649Y-49619819D01*
X130414649Y-49619819D02*
X130181316Y-49619819D01*
X130181316Y-49619819D02*
X130114649Y-49667438D01*
X130114649Y-49667438D02*
X130081316Y-49715057D01*
X130081316Y-49715057D02*
X130047982Y-49810295D01*
X130047982Y-49810295D02*
X130047982Y-49905533D01*
X130047982Y-49905533D02*
X130081316Y-50000771D01*
X130081316Y-50000771D02*
X130114649Y-50048390D01*
X130114649Y-50048390D02*
X130181316Y-50096009D01*
X130181316Y-50096009D02*
X130414649Y-50096009D01*
X129414649Y-49953152D02*
X129414649Y-50619819D01*
X129581316Y-49572200D02*
X129747982Y-50286485D01*
X129747982Y-50286485D02*
X129314649Y-50286485D01*
X121078683Y-26807438D02*
X121145350Y-26759819D01*
X121145350Y-26759819D02*
X121245350Y-26759819D01*
X121245350Y-26759819D02*
X121345350Y-26807438D01*
X121345350Y-26807438D02*
X121412017Y-26902676D01*
X121412017Y-26902676D02*
X121445350Y-26997914D01*
X121445350Y-26997914D02*
X121478683Y-27188390D01*
X121478683Y-27188390D02*
X121478683Y-27331247D01*
X121478683Y-27331247D02*
X121445350Y-27521723D01*
X121445350Y-27521723D02*
X121412017Y-27616961D01*
X121412017Y-27616961D02*
X121345350Y-27712200D01*
X121345350Y-27712200D02*
X121245350Y-27759819D01*
X121245350Y-27759819D02*
X121178683Y-27759819D01*
X121178683Y-27759819D02*
X121078683Y-27712200D01*
X121078683Y-27712200D02*
X121045350Y-27664580D01*
X121045350Y-27664580D02*
X121045350Y-27331247D01*
X121045350Y-27331247D02*
X121178683Y-27331247D01*
X120745350Y-27759819D02*
X120745350Y-26759819D01*
X120745350Y-26759819D02*
X120345350Y-27759819D01*
X120345350Y-27759819D02*
X120345350Y-26759819D01*
X120012017Y-27759819D02*
X120012017Y-26759819D01*
X120012017Y-26759819D02*
X119845350Y-26759819D01*
X119845350Y-26759819D02*
X119745350Y-26807438D01*
X119745350Y-26807438D02*
X119678684Y-26902676D01*
X119678684Y-26902676D02*
X119645350Y-26997914D01*
X119645350Y-26997914D02*
X119612017Y-27188390D01*
X119612017Y-27188390D02*
X119612017Y-27331247D01*
X119612017Y-27331247D02*
X119645350Y-27521723D01*
X119645350Y-27521723D02*
X119678684Y-27616961D01*
X119678684Y-27616961D02*
X119745350Y-27712200D01*
X119745350Y-27712200D02*
X119845350Y-27759819D01*
X119845350Y-27759819D02*
X120012017Y-27759819D01*
X120812017Y-30299819D02*
X121045350Y-29823628D01*
X121212017Y-30299819D02*
X121212017Y-29299819D01*
X121212017Y-29299819D02*
X120945350Y-29299819D01*
X120945350Y-29299819D02*
X120878684Y-29347438D01*
X120878684Y-29347438D02*
X120845350Y-29395057D01*
X120845350Y-29395057D02*
X120812017Y-29490295D01*
X120812017Y-29490295D02*
X120812017Y-29633152D01*
X120812017Y-29633152D02*
X120845350Y-29728390D01*
X120845350Y-29728390D02*
X120878684Y-29776009D01*
X120878684Y-29776009D02*
X120945350Y-29823628D01*
X120945350Y-29823628D02*
X121212017Y-29823628D01*
X120545350Y-30252200D02*
X120445350Y-30299819D01*
X120445350Y-30299819D02*
X120278684Y-30299819D01*
X120278684Y-30299819D02*
X120212017Y-30252200D01*
X120212017Y-30252200D02*
X120178684Y-30204580D01*
X120178684Y-30204580D02*
X120145350Y-30109342D01*
X120145350Y-30109342D02*
X120145350Y-30014104D01*
X120145350Y-30014104D02*
X120178684Y-29918866D01*
X120178684Y-29918866D02*
X120212017Y-29871247D01*
X120212017Y-29871247D02*
X120278684Y-29823628D01*
X120278684Y-29823628D02*
X120412017Y-29776009D01*
X120412017Y-29776009D02*
X120478684Y-29728390D01*
X120478684Y-29728390D02*
X120512017Y-29680771D01*
X120512017Y-29680771D02*
X120545350Y-29585533D01*
X120545350Y-29585533D02*
X120545350Y-29490295D01*
X120545350Y-29490295D02*
X120512017Y-29395057D01*
X120512017Y-29395057D02*
X120478684Y-29347438D01*
X120478684Y-29347438D02*
X120412017Y-29299819D01*
X120412017Y-29299819D02*
X120245350Y-29299819D01*
X120245350Y-29299819D02*
X120145350Y-29347438D01*
X119945350Y-29299819D02*
X119545350Y-29299819D01*
X119745350Y-30299819D02*
X119745350Y-29299819D01*
X131481316Y-41999819D02*
X131814649Y-41999819D01*
X131814649Y-41999819D02*
X131847982Y-42476009D01*
X131847982Y-42476009D02*
X131814649Y-42428390D01*
X131814649Y-42428390D02*
X131747982Y-42380771D01*
X131747982Y-42380771D02*
X131581316Y-42380771D01*
X131581316Y-42380771D02*
X131514649Y-42428390D01*
X131514649Y-42428390D02*
X131481316Y-42476009D01*
X131481316Y-42476009D02*
X131447982Y-42571247D01*
X131447982Y-42571247D02*
X131447982Y-42809342D01*
X131447982Y-42809342D02*
X131481316Y-42904580D01*
X131481316Y-42904580D02*
X131514649Y-42952200D01*
X131514649Y-42952200D02*
X131581316Y-42999819D01*
X131581316Y-42999819D02*
X131747982Y-42999819D01*
X131747982Y-42999819D02*
X131814649Y-42952200D01*
X131814649Y-42952200D02*
X131847982Y-42904580D01*
X130647982Y-41952200D02*
X131247982Y-43237914D01*
X130014649Y-42904580D02*
X130047982Y-42952200D01*
X130047982Y-42952200D02*
X130147982Y-42999819D01*
X130147982Y-42999819D02*
X130214649Y-42999819D01*
X130214649Y-42999819D02*
X130314649Y-42952200D01*
X130314649Y-42952200D02*
X130381316Y-42856961D01*
X130381316Y-42856961D02*
X130414649Y-42761723D01*
X130414649Y-42761723D02*
X130447982Y-42571247D01*
X130447982Y-42571247D02*
X130447982Y-42428390D01*
X130447982Y-42428390D02*
X130414649Y-42237914D01*
X130414649Y-42237914D02*
X130381316Y-42142676D01*
X130381316Y-42142676D02*
X130314649Y-42047438D01*
X130314649Y-42047438D02*
X130214649Y-41999819D01*
X130214649Y-41999819D02*
X130147982Y-41999819D01*
X130147982Y-41999819D02*
X130047982Y-42047438D01*
X130047982Y-42047438D02*
X130014649Y-42095057D01*
X129414649Y-41999819D02*
X129547982Y-41999819D01*
X129547982Y-41999819D02*
X129614649Y-42047438D01*
X129614649Y-42047438D02*
X129647982Y-42095057D01*
X129647982Y-42095057D02*
X129714649Y-42237914D01*
X129714649Y-42237914D02*
X129747982Y-42428390D01*
X129747982Y-42428390D02*
X129747982Y-42809342D01*
X129747982Y-42809342D02*
X129714649Y-42904580D01*
X129714649Y-42904580D02*
X129681316Y-42952200D01*
X129681316Y-42952200D02*
X129614649Y-42999819D01*
X129614649Y-42999819D02*
X129481316Y-42999819D01*
X129481316Y-42999819D02*
X129414649Y-42952200D01*
X129414649Y-42952200D02*
X129381316Y-42904580D01*
X129381316Y-42904580D02*
X129347982Y-42809342D01*
X129347982Y-42809342D02*
X129347982Y-42571247D01*
X129347982Y-42571247D02*
X129381316Y-42476009D01*
X129381316Y-42476009D02*
X129414649Y-42428390D01*
X129414649Y-42428390D02*
X129481316Y-42380771D01*
X129481316Y-42380771D02*
X129614649Y-42380771D01*
X129614649Y-42380771D02*
X129681316Y-42428390D01*
X129681316Y-42428390D02*
X129714649Y-42476009D01*
X129714649Y-42476009D02*
X129747982Y-42571247D01*
X131447982Y-31887438D02*
X131514649Y-31839819D01*
X131514649Y-31839819D02*
X131614649Y-31839819D01*
X131614649Y-31839819D02*
X131714649Y-31887438D01*
X131714649Y-31887438D02*
X131781316Y-31982676D01*
X131781316Y-31982676D02*
X131814649Y-32077914D01*
X131814649Y-32077914D02*
X131847982Y-32268390D01*
X131847982Y-32268390D02*
X131847982Y-32411247D01*
X131847982Y-32411247D02*
X131814649Y-32601723D01*
X131814649Y-32601723D02*
X131781316Y-32696961D01*
X131781316Y-32696961D02*
X131714649Y-32792200D01*
X131714649Y-32792200D02*
X131614649Y-32839819D01*
X131614649Y-32839819D02*
X131547982Y-32839819D01*
X131547982Y-32839819D02*
X131447982Y-32792200D01*
X131447982Y-32792200D02*
X131414649Y-32744580D01*
X131414649Y-32744580D02*
X131414649Y-32411247D01*
X131414649Y-32411247D02*
X131547982Y-32411247D01*
X131114649Y-32839819D02*
X131114649Y-31839819D01*
X131114649Y-31839819D02*
X130714649Y-32839819D01*
X130714649Y-32839819D02*
X130714649Y-31839819D01*
X130381316Y-32839819D02*
X130381316Y-31839819D01*
X130381316Y-31839819D02*
X130214649Y-31839819D01*
X130214649Y-31839819D02*
X130114649Y-31887438D01*
X130114649Y-31887438D02*
X130047983Y-31982676D01*
X130047983Y-31982676D02*
X130014649Y-32077914D01*
X130014649Y-32077914D02*
X129981316Y-32268390D01*
X129981316Y-32268390D02*
X129981316Y-32411247D01*
X129981316Y-32411247D02*
X130014649Y-32601723D01*
X130014649Y-32601723D02*
X130047983Y-32696961D01*
X130047983Y-32696961D02*
X130114649Y-32792200D01*
X130114649Y-32792200D02*
X130214649Y-32839819D01*
X130214649Y-32839819D02*
X130381316Y-32839819D01*
X122512018Y-50096009D02*
X122412018Y-50143628D01*
X122412018Y-50143628D02*
X122378684Y-50191247D01*
X122378684Y-50191247D02*
X122345351Y-50286485D01*
X122345351Y-50286485D02*
X122345351Y-50429342D01*
X122345351Y-50429342D02*
X122378684Y-50524580D01*
X122378684Y-50524580D02*
X122412018Y-50572200D01*
X122412018Y-50572200D02*
X122478684Y-50619819D01*
X122478684Y-50619819D02*
X122745351Y-50619819D01*
X122745351Y-50619819D02*
X122745351Y-49619819D01*
X122745351Y-49619819D02*
X122512018Y-49619819D01*
X122512018Y-49619819D02*
X122445351Y-49667438D01*
X122445351Y-49667438D02*
X122412018Y-49715057D01*
X122412018Y-49715057D02*
X122378684Y-49810295D01*
X122378684Y-49810295D02*
X122378684Y-49905533D01*
X122378684Y-49905533D02*
X122412018Y-50000771D01*
X122412018Y-50000771D02*
X122445351Y-50048390D01*
X122445351Y-50048390D02*
X122512018Y-50096009D01*
X122512018Y-50096009D02*
X122745351Y-50096009D01*
X122078684Y-49715057D02*
X122045351Y-49667438D01*
X122045351Y-49667438D02*
X121978684Y-49619819D01*
X121978684Y-49619819D02*
X121812018Y-49619819D01*
X121812018Y-49619819D02*
X121745351Y-49667438D01*
X121745351Y-49667438D02*
X121712018Y-49715057D01*
X121712018Y-49715057D02*
X121678684Y-49810295D01*
X121678684Y-49810295D02*
X121678684Y-49905533D01*
X121678684Y-49905533D02*
X121712018Y-50048390D01*
X121712018Y-50048390D02*
X122112018Y-50619819D01*
X122112018Y-50619819D02*
X121678684Y-50619819D01*
X120878684Y-49572200D02*
X121478684Y-50857914D01*
X120278684Y-50619819D02*
X120678684Y-50619819D01*
X120478684Y-50619819D02*
X120478684Y-49619819D01*
X120478684Y-49619819D02*
X120545351Y-49762676D01*
X120545351Y-49762676D02*
X120612018Y-49857914D01*
X120612018Y-49857914D02*
X120678684Y-49905533D01*
X119678684Y-49619819D02*
X119812017Y-49619819D01*
X119812017Y-49619819D02*
X119878684Y-49667438D01*
X119878684Y-49667438D02*
X119912017Y-49715057D01*
X119912017Y-49715057D02*
X119978684Y-49857914D01*
X119978684Y-49857914D02*
X120012017Y-50048390D01*
X120012017Y-50048390D02*
X120012017Y-50429342D01*
X120012017Y-50429342D02*
X119978684Y-50524580D01*
X119978684Y-50524580D02*
X119945351Y-50572200D01*
X119945351Y-50572200D02*
X119878684Y-50619819D01*
X119878684Y-50619819D02*
X119745351Y-50619819D01*
X119745351Y-50619819D02*
X119678684Y-50572200D01*
X119678684Y-50572200D02*
X119645351Y-50524580D01*
X119645351Y-50524580D02*
X119612017Y-50429342D01*
X119612017Y-50429342D02*
X119612017Y-50191247D01*
X119612017Y-50191247D02*
X119645351Y-50096009D01*
X119645351Y-50096009D02*
X119678684Y-50048390D01*
X119678684Y-50048390D02*
X119745351Y-50000771D01*
X119745351Y-50000771D02*
X119878684Y-50000771D01*
X119878684Y-50000771D02*
X119945351Y-50048390D01*
X119945351Y-50048390D02*
X119978684Y-50096009D01*
X119978684Y-50096009D02*
X120012017Y-50191247D01*
X131847982Y-34475057D02*
X131814649Y-34427438D01*
X131814649Y-34427438D02*
X131747982Y-34379819D01*
X131747982Y-34379819D02*
X131581316Y-34379819D01*
X131581316Y-34379819D02*
X131514649Y-34427438D01*
X131514649Y-34427438D02*
X131481316Y-34475057D01*
X131481316Y-34475057D02*
X131447982Y-34570295D01*
X131447982Y-34570295D02*
X131447982Y-34665533D01*
X131447982Y-34665533D02*
X131481316Y-34808390D01*
X131481316Y-34808390D02*
X131881316Y-35379819D01*
X131881316Y-35379819D02*
X131447982Y-35379819D01*
X130647982Y-34332200D02*
X131247982Y-35617914D01*
X130414649Y-35379819D02*
X130414649Y-34379819D01*
X130414649Y-34379819D02*
X130247982Y-34379819D01*
X130247982Y-34379819D02*
X130147982Y-34427438D01*
X130147982Y-34427438D02*
X130081316Y-34522676D01*
X130081316Y-34522676D02*
X130047982Y-34617914D01*
X130047982Y-34617914D02*
X130014649Y-34808390D01*
X130014649Y-34808390D02*
X130014649Y-34951247D01*
X130014649Y-34951247D02*
X130047982Y-35141723D01*
X130047982Y-35141723D02*
X130081316Y-35236961D01*
X130081316Y-35236961D02*
X130147982Y-35332200D01*
X130147982Y-35332200D02*
X130247982Y-35379819D01*
X130247982Y-35379819D02*
X130414649Y-35379819D01*
X129347982Y-35379819D02*
X129747982Y-35379819D01*
X129547982Y-35379819D02*
X129547982Y-34379819D01*
X129547982Y-34379819D02*
X129614649Y-34522676D01*
X129614649Y-34522676D02*
X129681316Y-34617914D01*
X129681316Y-34617914D02*
X129747982Y-34665533D01*
X131514649Y-44539819D02*
X131647982Y-44539819D01*
X131647982Y-44539819D02*
X131714649Y-44587438D01*
X131714649Y-44587438D02*
X131747982Y-44635057D01*
X131747982Y-44635057D02*
X131814649Y-44777914D01*
X131814649Y-44777914D02*
X131847982Y-44968390D01*
X131847982Y-44968390D02*
X131847982Y-45349342D01*
X131847982Y-45349342D02*
X131814649Y-45444580D01*
X131814649Y-45444580D02*
X131781316Y-45492200D01*
X131781316Y-45492200D02*
X131714649Y-45539819D01*
X131714649Y-45539819D02*
X131581316Y-45539819D01*
X131581316Y-45539819D02*
X131514649Y-45492200D01*
X131514649Y-45492200D02*
X131481316Y-45444580D01*
X131481316Y-45444580D02*
X131447982Y-45349342D01*
X131447982Y-45349342D02*
X131447982Y-45111247D01*
X131447982Y-45111247D02*
X131481316Y-45016009D01*
X131481316Y-45016009D02*
X131514649Y-44968390D01*
X131514649Y-44968390D02*
X131581316Y-44920771D01*
X131581316Y-44920771D02*
X131714649Y-44920771D01*
X131714649Y-44920771D02*
X131781316Y-44968390D01*
X131781316Y-44968390D02*
X131814649Y-45016009D01*
X131814649Y-45016009D02*
X131847982Y-45111247D01*
X130647982Y-44492200D02*
X131247982Y-45777914D01*
X130414649Y-45539819D02*
X130414649Y-44539819D01*
X130414649Y-44539819D02*
X130247982Y-44539819D01*
X130247982Y-44539819D02*
X130147982Y-44587438D01*
X130147982Y-44587438D02*
X130081316Y-44682676D01*
X130081316Y-44682676D02*
X130047982Y-44777914D01*
X130047982Y-44777914D02*
X130014649Y-44968390D01*
X130014649Y-44968390D02*
X130014649Y-45111247D01*
X130014649Y-45111247D02*
X130047982Y-45301723D01*
X130047982Y-45301723D02*
X130081316Y-45396961D01*
X130081316Y-45396961D02*
X130147982Y-45492200D01*
X130147982Y-45492200D02*
X130247982Y-45539819D01*
X130247982Y-45539819D02*
X130414649Y-45539819D01*
X129781316Y-44539819D02*
X129314649Y-44539819D01*
X129314649Y-44539819D02*
X129614649Y-45539819D01*
X122345351Y-39936009D02*
X122578684Y-39936009D01*
X122578684Y-40459819D02*
X122578684Y-39459819D01*
X122578684Y-39459819D02*
X122245351Y-39459819D01*
X121678684Y-39459819D02*
X121812017Y-39459819D01*
X121812017Y-39459819D02*
X121878684Y-39507438D01*
X121878684Y-39507438D02*
X121912017Y-39555057D01*
X121912017Y-39555057D02*
X121978684Y-39697914D01*
X121978684Y-39697914D02*
X122012017Y-39888390D01*
X122012017Y-39888390D02*
X122012017Y-40269342D01*
X122012017Y-40269342D02*
X121978684Y-40364580D01*
X121978684Y-40364580D02*
X121945351Y-40412200D01*
X121945351Y-40412200D02*
X121878684Y-40459819D01*
X121878684Y-40459819D02*
X121745351Y-40459819D01*
X121745351Y-40459819D02*
X121678684Y-40412200D01*
X121678684Y-40412200D02*
X121645351Y-40364580D01*
X121645351Y-40364580D02*
X121612017Y-40269342D01*
X121612017Y-40269342D02*
X121612017Y-40031247D01*
X121612017Y-40031247D02*
X121645351Y-39936009D01*
X121645351Y-39936009D02*
X121678684Y-39888390D01*
X121678684Y-39888390D02*
X121745351Y-39840771D01*
X121745351Y-39840771D02*
X121878684Y-39840771D01*
X121878684Y-39840771D02*
X121945351Y-39888390D01*
X121945351Y-39888390D02*
X121978684Y-39936009D01*
X121978684Y-39936009D02*
X122012017Y-40031247D01*
X120812017Y-39412200D02*
X121412017Y-40697914D01*
X120612017Y-40174104D02*
X120278684Y-40174104D01*
X120678684Y-40459819D02*
X120445351Y-39459819D01*
X120445351Y-39459819D02*
X120212017Y-40459819D01*
X119612017Y-40459819D02*
X120012017Y-40459819D01*
X119812017Y-40459819D02*
X119812017Y-39459819D01*
X119812017Y-39459819D02*
X119878684Y-39602676D01*
X119878684Y-39602676D02*
X119945351Y-39697914D01*
X119945351Y-39697914D02*
X120012017Y-39745533D01*
X131881316Y-36919819D02*
X131447982Y-36919819D01*
X131447982Y-36919819D02*
X131681316Y-37300771D01*
X131681316Y-37300771D02*
X131581316Y-37300771D01*
X131581316Y-37300771D02*
X131514649Y-37348390D01*
X131514649Y-37348390D02*
X131481316Y-37396009D01*
X131481316Y-37396009D02*
X131447982Y-37491247D01*
X131447982Y-37491247D02*
X131447982Y-37729342D01*
X131447982Y-37729342D02*
X131481316Y-37824580D01*
X131481316Y-37824580D02*
X131514649Y-37872200D01*
X131514649Y-37872200D02*
X131581316Y-37919819D01*
X131581316Y-37919819D02*
X131781316Y-37919819D01*
X131781316Y-37919819D02*
X131847982Y-37872200D01*
X131847982Y-37872200D02*
X131881316Y-37824580D01*
X130647982Y-36872200D02*
X131247982Y-38157914D01*
X130414649Y-37919819D02*
X130414649Y-36919819D01*
X130414649Y-36919819D02*
X130247982Y-36919819D01*
X130247982Y-36919819D02*
X130147982Y-36967438D01*
X130147982Y-36967438D02*
X130081316Y-37062676D01*
X130081316Y-37062676D02*
X130047982Y-37157914D01*
X130047982Y-37157914D02*
X130014649Y-37348390D01*
X130014649Y-37348390D02*
X130014649Y-37491247D01*
X130014649Y-37491247D02*
X130047982Y-37681723D01*
X130047982Y-37681723D02*
X130081316Y-37776961D01*
X130081316Y-37776961D02*
X130147982Y-37872200D01*
X130147982Y-37872200D02*
X130247982Y-37919819D01*
X130247982Y-37919819D02*
X130414649Y-37919819D01*
X129581316Y-36919819D02*
X129514649Y-36919819D01*
X129514649Y-36919819D02*
X129447982Y-36967438D01*
X129447982Y-36967438D02*
X129414649Y-37015057D01*
X129414649Y-37015057D02*
X129381316Y-37110295D01*
X129381316Y-37110295D02*
X129347982Y-37300771D01*
X129347982Y-37300771D02*
X129347982Y-37538866D01*
X129347982Y-37538866D02*
X129381316Y-37729342D01*
X129381316Y-37729342D02*
X129414649Y-37824580D01*
X129414649Y-37824580D02*
X129447982Y-37872200D01*
X129447982Y-37872200D02*
X129514649Y-37919819D01*
X129514649Y-37919819D02*
X129581316Y-37919819D01*
X129581316Y-37919819D02*
X129647982Y-37872200D01*
X129647982Y-37872200D02*
X129681316Y-37824580D01*
X129681316Y-37824580D02*
X129714649Y-37729342D01*
X129714649Y-37729342D02*
X129747982Y-37538866D01*
X129747982Y-37538866D02*
X129747982Y-37300771D01*
X129747982Y-37300771D02*
X129714649Y-37110295D01*
X129714649Y-37110295D02*
X129681316Y-37015057D01*
X129681316Y-37015057D02*
X129647982Y-36967438D01*
X129647982Y-36967438D02*
X129581316Y-36919819D01*
X122345351Y-34856009D02*
X122578684Y-34856009D01*
X122578684Y-35379819D02*
X122578684Y-34379819D01*
X122578684Y-34379819D02*
X122245351Y-34379819D01*
X121678684Y-34713152D02*
X121678684Y-35379819D01*
X121845351Y-34332200D02*
X122012017Y-35046485D01*
X122012017Y-35046485D02*
X121578684Y-35046485D01*
X120812017Y-34332200D02*
X121412017Y-35617914D01*
X120612017Y-35094104D02*
X120278684Y-35094104D01*
X120678684Y-35379819D02*
X120445351Y-34379819D01*
X120445351Y-34379819D02*
X120212017Y-35379819D01*
X120045351Y-34379819D02*
X119612017Y-34379819D01*
X119612017Y-34379819D02*
X119845351Y-34760771D01*
X119845351Y-34760771D02*
X119745351Y-34760771D01*
X119745351Y-34760771D02*
X119678684Y-34808390D01*
X119678684Y-34808390D02*
X119645351Y-34856009D01*
X119645351Y-34856009D02*
X119612017Y-34951247D01*
X119612017Y-34951247D02*
X119612017Y-35189342D01*
X119612017Y-35189342D02*
X119645351Y-35284580D01*
X119645351Y-35284580D02*
X119678684Y-35332200D01*
X119678684Y-35332200D02*
X119745351Y-35379819D01*
X119745351Y-35379819D02*
X119945351Y-35379819D01*
X119945351Y-35379819D02*
X120012017Y-35332200D01*
X120012017Y-35332200D02*
X120045351Y-35284580D01*
X121012017Y-25219819D02*
X121245350Y-24743628D01*
X121412017Y-25219819D02*
X121412017Y-24219819D01*
X121412017Y-24219819D02*
X121145350Y-24219819D01*
X121145350Y-24219819D02*
X121078684Y-24267438D01*
X121078684Y-24267438D02*
X121045350Y-24315057D01*
X121045350Y-24315057D02*
X121012017Y-24410295D01*
X121012017Y-24410295D02*
X121012017Y-24553152D01*
X121012017Y-24553152D02*
X121045350Y-24648390D01*
X121045350Y-24648390D02*
X121078684Y-24696009D01*
X121078684Y-24696009D02*
X121145350Y-24743628D01*
X121145350Y-24743628D02*
X121412017Y-24743628D01*
X120745350Y-24934104D02*
X120412017Y-24934104D01*
X120812017Y-25219819D02*
X120578684Y-24219819D01*
X120578684Y-24219819D02*
X120345350Y-25219819D01*
X120178684Y-24219819D02*
X120012017Y-25219819D01*
X120012017Y-25219819D02*
X119878684Y-24505533D01*
X119878684Y-24505533D02*
X119745350Y-25219819D01*
X119745350Y-25219819D02*
X119578684Y-24219819D01*
X122512018Y-47556009D02*
X122412018Y-47603628D01*
X122412018Y-47603628D02*
X122378684Y-47651247D01*
X122378684Y-47651247D02*
X122345351Y-47746485D01*
X122345351Y-47746485D02*
X122345351Y-47889342D01*
X122345351Y-47889342D02*
X122378684Y-47984580D01*
X122378684Y-47984580D02*
X122412018Y-48032200D01*
X122412018Y-48032200D02*
X122478684Y-48079819D01*
X122478684Y-48079819D02*
X122745351Y-48079819D01*
X122745351Y-48079819D02*
X122745351Y-47079819D01*
X122745351Y-47079819D02*
X122512018Y-47079819D01*
X122512018Y-47079819D02*
X122445351Y-47127438D01*
X122445351Y-47127438D02*
X122412018Y-47175057D01*
X122412018Y-47175057D02*
X122378684Y-47270295D01*
X122378684Y-47270295D02*
X122378684Y-47365533D01*
X122378684Y-47365533D02*
X122412018Y-47460771D01*
X122412018Y-47460771D02*
X122445351Y-47508390D01*
X122445351Y-47508390D02*
X122512018Y-47556009D01*
X122512018Y-47556009D02*
X122745351Y-47556009D01*
X122112018Y-47079819D02*
X121678684Y-47079819D01*
X121678684Y-47079819D02*
X121912018Y-47460771D01*
X121912018Y-47460771D02*
X121812018Y-47460771D01*
X121812018Y-47460771D02*
X121745351Y-47508390D01*
X121745351Y-47508390D02*
X121712018Y-47556009D01*
X121712018Y-47556009D02*
X121678684Y-47651247D01*
X121678684Y-47651247D02*
X121678684Y-47889342D01*
X121678684Y-47889342D02*
X121712018Y-47984580D01*
X121712018Y-47984580D02*
X121745351Y-48032200D01*
X121745351Y-48032200D02*
X121812018Y-48079819D01*
X121812018Y-48079819D02*
X122012018Y-48079819D01*
X122012018Y-48079819D02*
X122078684Y-48032200D01*
X122078684Y-48032200D02*
X122112018Y-47984580D01*
X120878684Y-47032200D02*
X121478684Y-48317914D01*
X120278684Y-48079819D02*
X120678684Y-48079819D01*
X120478684Y-48079819D02*
X120478684Y-47079819D01*
X120478684Y-47079819D02*
X120545351Y-47222676D01*
X120545351Y-47222676D02*
X120612018Y-47317914D01*
X120612018Y-47317914D02*
X120678684Y-47365533D01*
X119678684Y-47413152D02*
X119678684Y-48079819D01*
X119845351Y-47032200D02*
X120012017Y-47746485D01*
X120012017Y-47746485D02*
X119578684Y-47746485D01*
X122345351Y-37396009D02*
X122578684Y-37396009D01*
X122578684Y-37919819D02*
X122578684Y-36919819D01*
X122578684Y-36919819D02*
X122245351Y-36919819D01*
X121645351Y-36919819D02*
X121978684Y-36919819D01*
X121978684Y-36919819D02*
X122012017Y-37396009D01*
X122012017Y-37396009D02*
X121978684Y-37348390D01*
X121978684Y-37348390D02*
X121912017Y-37300771D01*
X121912017Y-37300771D02*
X121745351Y-37300771D01*
X121745351Y-37300771D02*
X121678684Y-37348390D01*
X121678684Y-37348390D02*
X121645351Y-37396009D01*
X121645351Y-37396009D02*
X121612017Y-37491247D01*
X121612017Y-37491247D02*
X121612017Y-37729342D01*
X121612017Y-37729342D02*
X121645351Y-37824580D01*
X121645351Y-37824580D02*
X121678684Y-37872200D01*
X121678684Y-37872200D02*
X121745351Y-37919819D01*
X121745351Y-37919819D02*
X121912017Y-37919819D01*
X121912017Y-37919819D02*
X121978684Y-37872200D01*
X121978684Y-37872200D02*
X122012017Y-37824580D01*
X120812017Y-36872200D02*
X121412017Y-38157914D01*
X120612017Y-37634104D02*
X120278684Y-37634104D01*
X120678684Y-37919819D02*
X120445351Y-36919819D01*
X120445351Y-36919819D02*
X120212017Y-37919819D01*
X120012017Y-37015057D02*
X119978684Y-36967438D01*
X119978684Y-36967438D02*
X119912017Y-36919819D01*
X119912017Y-36919819D02*
X119745351Y-36919819D01*
X119745351Y-36919819D02*
X119678684Y-36967438D01*
X119678684Y-36967438D02*
X119645351Y-37015057D01*
X119645351Y-37015057D02*
X119612017Y-37110295D01*
X119612017Y-37110295D02*
X119612017Y-37205533D01*
X119612017Y-37205533D02*
X119645351Y-37348390D01*
X119645351Y-37348390D02*
X120045351Y-37919819D01*
X120045351Y-37919819D02*
X119612017Y-37919819D01*
X131881316Y-47079819D02*
X131414649Y-47079819D01*
X131414649Y-47079819D02*
X131714649Y-48079819D01*
X130647982Y-47032200D02*
X131247982Y-48317914D01*
X130414649Y-47556009D02*
X130181316Y-47556009D01*
X130081316Y-48079819D02*
X130414649Y-48079819D01*
X130414649Y-48079819D02*
X130414649Y-47079819D01*
X130414649Y-47079819D02*
X130081316Y-47079819D01*
X129481316Y-47079819D02*
X129614649Y-47079819D01*
X129614649Y-47079819D02*
X129681316Y-47127438D01*
X129681316Y-47127438D02*
X129714649Y-47175057D01*
X129714649Y-47175057D02*
X129781316Y-47317914D01*
X129781316Y-47317914D02*
X129814649Y-47508390D01*
X129814649Y-47508390D02*
X129814649Y-47889342D01*
X129814649Y-47889342D02*
X129781316Y-47984580D01*
X129781316Y-47984580D02*
X129747983Y-48032200D01*
X129747983Y-48032200D02*
X129681316Y-48079819D01*
X129681316Y-48079819D02*
X129547983Y-48079819D01*
X129547983Y-48079819D02*
X129481316Y-48032200D01*
X129481316Y-48032200D02*
X129447983Y-47984580D01*
X129447983Y-47984580D02*
X129414649Y-47889342D01*
X129414649Y-47889342D02*
X129414649Y-47651247D01*
X129414649Y-47651247D02*
X129447983Y-47556009D01*
X129447983Y-47556009D02*
X129481316Y-47508390D01*
X129481316Y-47508390D02*
X129547983Y-47460771D01*
X129547983Y-47460771D02*
X129681316Y-47460771D01*
X129681316Y-47460771D02*
X129747983Y-47508390D01*
X129747983Y-47508390D02*
X129781316Y-47556009D01*
X129781316Y-47556009D02*
X129814649Y-47651247D01*
D11*
X65500000Y-82126304D02*
X65166666Y-83459638D01*
X65166666Y-83459638D02*
X64833333Y-82126304D01*
X63566666Y-83459638D02*
X64366666Y-83459638D01*
X63966666Y-83459638D02*
X63966666Y-81459638D01*
X63966666Y-81459638D02*
X64099999Y-81745352D01*
X64099999Y-81745352D02*
X64233333Y-81935828D01*
X64233333Y-81935828D02*
X64366666Y-82031066D01*
X62966666Y-83269161D02*
X62900000Y-83364400D01*
X62900000Y-83364400D02*
X62966666Y-83459638D01*
X62966666Y-83459638D02*
X63033333Y-83364400D01*
X63033333Y-83364400D02*
X62966666Y-83269161D01*
X62966666Y-83269161D02*
X62966666Y-83459638D01*
X61566666Y-83459638D02*
X62366666Y-83459638D01*
X61966666Y-83459638D02*
X61966666Y-81459638D01*
X61966666Y-81459638D02*
X62099999Y-81745352D01*
X62099999Y-81745352D02*
X62233333Y-81935828D01*
X62233333Y-81935828D02*
X62366666Y-82031066D01*
D10*
X125003332Y-73479819D02*
X125003332Y-72479819D01*
X125003332Y-72860771D02*
X124936665Y-72813152D01*
X124936665Y-72813152D02*
X124803332Y-72813152D01*
X124803332Y-72813152D02*
X124736665Y-72860771D01*
X124736665Y-72860771D02*
X124703332Y-72908390D01*
X124703332Y-72908390D02*
X124669999Y-73003628D01*
X124669999Y-73003628D02*
X124669999Y-73289342D01*
X124669999Y-73289342D02*
X124703332Y-73384580D01*
X124703332Y-73384580D02*
X124736665Y-73432200D01*
X124736665Y-73432200D02*
X124803332Y-73479819D01*
X124803332Y-73479819D02*
X124936665Y-73479819D01*
X124936665Y-73479819D02*
X125003332Y-73432200D01*
X124436666Y-72813152D02*
X124269999Y-73479819D01*
X124103332Y-72813152D02*
X124269999Y-73479819D01*
X124269999Y-73479819D02*
X124336666Y-73717914D01*
X124336666Y-73717914D02*
X124369999Y-73765533D01*
X124369999Y-73765533D02*
X124436666Y-73813152D01*
X123336666Y-73432200D02*
X123236666Y-73479819D01*
X123236666Y-73479819D02*
X123070000Y-73479819D01*
X123070000Y-73479819D02*
X123003333Y-73432200D01*
X123003333Y-73432200D02*
X122970000Y-73384580D01*
X122970000Y-73384580D02*
X122936666Y-73289342D01*
X122936666Y-73289342D02*
X122936666Y-73194104D01*
X122936666Y-73194104D02*
X122970000Y-73098866D01*
X122970000Y-73098866D02*
X123003333Y-73051247D01*
X123003333Y-73051247D02*
X123070000Y-73003628D01*
X123070000Y-73003628D02*
X123203333Y-72956009D01*
X123203333Y-72956009D02*
X123270000Y-72908390D01*
X123270000Y-72908390D02*
X123303333Y-72860771D01*
X123303333Y-72860771D02*
X123336666Y-72765533D01*
X123336666Y-72765533D02*
X123336666Y-72670295D01*
X123336666Y-72670295D02*
X123303333Y-72575057D01*
X123303333Y-72575057D02*
X123270000Y-72527438D01*
X123270000Y-72527438D02*
X123203333Y-72479819D01*
X123203333Y-72479819D02*
X123036666Y-72479819D01*
X123036666Y-72479819D02*
X122936666Y-72527438D01*
X122336666Y-72813152D02*
X122336666Y-73479819D01*
X122636666Y-72813152D02*
X122636666Y-73336961D01*
X122636666Y-73336961D02*
X122603333Y-73432200D01*
X122603333Y-73432200D02*
X122536666Y-73479819D01*
X122536666Y-73479819D02*
X122436666Y-73479819D01*
X122436666Y-73479819D02*
X122369999Y-73432200D01*
X122369999Y-73432200D02*
X122336666Y-73384580D01*
X122003333Y-73479819D02*
X122003333Y-72479819D01*
X122003333Y-72860771D02*
X121936666Y-72813152D01*
X121936666Y-72813152D02*
X121803333Y-72813152D01*
X121803333Y-72813152D02*
X121736666Y-72860771D01*
X121736666Y-72860771D02*
X121703333Y-72908390D01*
X121703333Y-72908390D02*
X121670000Y-73003628D01*
X121670000Y-73003628D02*
X121670000Y-73289342D01*
X121670000Y-73289342D02*
X121703333Y-73384580D01*
X121703333Y-73384580D02*
X121736666Y-73432200D01*
X121736666Y-73432200D02*
X121803333Y-73479819D01*
X121803333Y-73479819D02*
X121936666Y-73479819D01*
X121936666Y-73479819D02*
X122003333Y-73432200D01*
X121370000Y-73479819D02*
X121370000Y-72813152D01*
X121370000Y-73003628D02*
X121336667Y-72908390D01*
X121336667Y-72908390D02*
X121303333Y-72860771D01*
X121303333Y-72860771D02*
X121236667Y-72813152D01*
X121236667Y-72813152D02*
X121170000Y-72813152D01*
X120670000Y-73432200D02*
X120736667Y-73479819D01*
X120736667Y-73479819D02*
X120870000Y-73479819D01*
X120870000Y-73479819D02*
X120936667Y-73432200D01*
X120936667Y-73432200D02*
X120970000Y-73336961D01*
X120970000Y-73336961D02*
X120970000Y-72956009D01*
X120970000Y-72956009D02*
X120936667Y-72860771D01*
X120936667Y-72860771D02*
X120870000Y-72813152D01*
X120870000Y-72813152D02*
X120736667Y-72813152D01*
X120736667Y-72813152D02*
X120670000Y-72860771D01*
X120670000Y-72860771D02*
X120636667Y-72956009D01*
X120636667Y-72956009D02*
X120636667Y-73051247D01*
X120636667Y-73051247D02*
X120970000Y-73146485D01*
X120403334Y-72813152D02*
X120036667Y-72813152D01*
X120036667Y-72813152D02*
X120403334Y-73479819D01*
X120403334Y-73479819D02*
X120036667Y-73479819D01*
X119670000Y-73479819D02*
X119736667Y-73432200D01*
X119736667Y-73432200D02*
X119770000Y-73384580D01*
X119770000Y-73384580D02*
X119803333Y-73289342D01*
X119803333Y-73289342D02*
X119803333Y-73003628D01*
X119803333Y-73003628D02*
X119770000Y-72908390D01*
X119770000Y-72908390D02*
X119736667Y-72860771D01*
X119736667Y-72860771D02*
X119670000Y-72813152D01*
X119670000Y-72813152D02*
X119570000Y-72813152D01*
X119570000Y-72813152D02*
X119503333Y-72860771D01*
X119503333Y-72860771D02*
X119470000Y-72908390D01*
X119470000Y-72908390D02*
X119436667Y-73003628D01*
X119436667Y-73003628D02*
X119436667Y-73289342D01*
X119436667Y-73289342D02*
X119470000Y-73384580D01*
X119470000Y-73384580D02*
X119503333Y-73432200D01*
X119503333Y-73432200D02*
X119570000Y-73479819D01*
X119570000Y-73479819D02*
X119670000Y-73479819D01*
X119136667Y-72813152D02*
X119136667Y-73479819D01*
X119136667Y-72908390D02*
X119103334Y-72860771D01*
X119103334Y-72860771D02*
X119036667Y-72813152D01*
X119036667Y-72813152D02*
X118936667Y-72813152D01*
X118936667Y-72813152D02*
X118870000Y-72860771D01*
X118870000Y-72860771D02*
X118836667Y-72956009D01*
X118836667Y-72956009D02*
X118836667Y-73479819D01*
D11*
X132006667Y-73299638D02*
X132673333Y-73299638D01*
X132673333Y-73299638D02*
X132673333Y-71299638D01*
X130940000Y-73299638D02*
X130940000Y-72252019D01*
X130940000Y-72252019D02*
X131006667Y-72061542D01*
X131006667Y-72061542D02*
X131140000Y-71966304D01*
X131140000Y-71966304D02*
X131406667Y-71966304D01*
X131406667Y-71966304D02*
X131540000Y-72061542D01*
X130940000Y-73204400D02*
X131073334Y-73299638D01*
X131073334Y-73299638D02*
X131406667Y-73299638D01*
X131406667Y-73299638D02*
X131540000Y-73204400D01*
X131540000Y-73204400D02*
X131606667Y-73013923D01*
X131606667Y-73013923D02*
X131606667Y-72823447D01*
X131606667Y-72823447D02*
X131540000Y-72632971D01*
X131540000Y-72632971D02*
X131406667Y-72537733D01*
X131406667Y-72537733D02*
X131073334Y-72537733D01*
X131073334Y-72537733D02*
X130940000Y-72442495D01*
X130273333Y-71966304D02*
X130273333Y-73299638D01*
X130273333Y-72156780D02*
X130206667Y-72061542D01*
X130206667Y-72061542D02*
X130073333Y-71966304D01*
X130073333Y-71966304D02*
X129873333Y-71966304D01*
X129873333Y-71966304D02*
X129740000Y-72061542D01*
X129740000Y-72061542D02*
X129673333Y-72252019D01*
X129673333Y-72252019D02*
X129673333Y-73299638D01*
X128406666Y-73204400D02*
X128540000Y-73299638D01*
X128540000Y-73299638D02*
X128806666Y-73299638D01*
X128806666Y-73299638D02*
X128940000Y-73204400D01*
X128940000Y-73204400D02*
X129006666Y-73109161D01*
X129006666Y-73109161D02*
X129073333Y-72918685D01*
X129073333Y-72918685D02*
X129073333Y-72347257D01*
X129073333Y-72347257D02*
X129006666Y-72156780D01*
X129006666Y-72156780D02*
X128940000Y-72061542D01*
X128940000Y-72061542D02*
X128806666Y-71966304D01*
X128806666Y-71966304D02*
X128540000Y-71966304D01*
X128540000Y-71966304D02*
X128406666Y-72061542D01*
X127273333Y-73204400D02*
X127406666Y-73299638D01*
X127406666Y-73299638D02*
X127673333Y-73299638D01*
X127673333Y-73299638D02*
X127806666Y-73204400D01*
X127806666Y-73204400D02*
X127873333Y-73013923D01*
X127873333Y-73013923D02*
X127873333Y-72252019D01*
X127873333Y-72252019D02*
X127806666Y-72061542D01*
X127806666Y-72061542D02*
X127673333Y-71966304D01*
X127673333Y-71966304D02*
X127406666Y-71966304D01*
X127406666Y-71966304D02*
X127273333Y-72061542D01*
X127273333Y-72061542D02*
X127206666Y-72252019D01*
X127206666Y-72252019D02*
X127206666Y-72442495D01*
X127206666Y-72442495D02*
X127873333Y-72632971D01*
X126606666Y-73299638D02*
X126606666Y-71966304D01*
X126606666Y-72347257D02*
X126540000Y-72156780D01*
X126540000Y-72156780D02*
X126473333Y-72061542D01*
X126473333Y-72061542D02*
X126340000Y-71966304D01*
X126340000Y-71966304D02*
X126206666Y-71966304D01*
D10*
X132863330Y-74718152D02*
X132863330Y-75527676D01*
X132863330Y-75527676D02*
X132896663Y-75622914D01*
X132896663Y-75622914D02*
X132929997Y-75670533D01*
X132929997Y-75670533D02*
X132996663Y-75718152D01*
X132996663Y-75718152D02*
X133096663Y-75718152D01*
X133096663Y-75718152D02*
X133163330Y-75670533D01*
X132863330Y-75337200D02*
X132929997Y-75384819D01*
X132929997Y-75384819D02*
X133063330Y-75384819D01*
X133063330Y-75384819D02*
X133129997Y-75337200D01*
X133129997Y-75337200D02*
X133163330Y-75289580D01*
X133163330Y-75289580D02*
X133196663Y-75194342D01*
X133196663Y-75194342D02*
X133196663Y-74908628D01*
X133196663Y-74908628D02*
X133163330Y-74813390D01*
X133163330Y-74813390D02*
X133129997Y-74765771D01*
X133129997Y-74765771D02*
X133063330Y-74718152D01*
X133063330Y-74718152D02*
X132929997Y-74718152D01*
X132929997Y-74718152D02*
X132863330Y-74765771D01*
X132529997Y-75384819D02*
X132529997Y-74718152D01*
X132529997Y-74384819D02*
X132563330Y-74432438D01*
X132563330Y-74432438D02*
X132529997Y-74480057D01*
X132529997Y-74480057D02*
X132496664Y-74432438D01*
X132496664Y-74432438D02*
X132529997Y-74384819D01*
X132529997Y-74384819D02*
X132529997Y-74480057D01*
X132296664Y-74718152D02*
X132029997Y-74718152D01*
X132196664Y-74384819D02*
X132196664Y-75241961D01*
X132196664Y-75241961D02*
X132163331Y-75337200D01*
X132163331Y-75337200D02*
X132096664Y-75384819D01*
X132096664Y-75384819D02*
X132029997Y-75384819D01*
X131796664Y-75384819D02*
X131796664Y-74384819D01*
X131496664Y-75384819D02*
X131496664Y-74861009D01*
X131496664Y-74861009D02*
X131529997Y-74765771D01*
X131529997Y-74765771D02*
X131596664Y-74718152D01*
X131596664Y-74718152D02*
X131696664Y-74718152D01*
X131696664Y-74718152D02*
X131763331Y-74765771D01*
X131763331Y-74765771D02*
X131796664Y-74813390D01*
X130863331Y-74718152D02*
X130863331Y-75384819D01*
X131163331Y-74718152D02*
X131163331Y-75241961D01*
X131163331Y-75241961D02*
X131129998Y-75337200D01*
X131129998Y-75337200D02*
X131063331Y-75384819D01*
X131063331Y-75384819D02*
X130963331Y-75384819D01*
X130963331Y-75384819D02*
X130896664Y-75337200D01*
X130896664Y-75337200D02*
X130863331Y-75289580D01*
X130529998Y-75384819D02*
X130529998Y-74384819D01*
X130529998Y-74765771D02*
X130463331Y-74718152D01*
X130463331Y-74718152D02*
X130329998Y-74718152D01*
X130329998Y-74718152D02*
X130263331Y-74765771D01*
X130263331Y-74765771D02*
X130229998Y-74813390D01*
X130229998Y-74813390D02*
X130196665Y-74908628D01*
X130196665Y-74908628D02*
X130196665Y-75194342D01*
X130196665Y-75194342D02*
X130229998Y-75289580D01*
X130229998Y-75289580D02*
X130263331Y-75337200D01*
X130263331Y-75337200D02*
X130329998Y-75384819D01*
X130329998Y-75384819D02*
X130463331Y-75384819D01*
X130463331Y-75384819D02*
X130529998Y-75337200D01*
X129896665Y-75289580D02*
X129863332Y-75337200D01*
X129863332Y-75337200D02*
X129896665Y-75384819D01*
X129896665Y-75384819D02*
X129929998Y-75337200D01*
X129929998Y-75337200D02*
X129896665Y-75289580D01*
X129896665Y-75289580D02*
X129896665Y-75384819D01*
X129263332Y-75337200D02*
X129329999Y-75384819D01*
X129329999Y-75384819D02*
X129463332Y-75384819D01*
X129463332Y-75384819D02*
X129529999Y-75337200D01*
X129529999Y-75337200D02*
X129563332Y-75289580D01*
X129563332Y-75289580D02*
X129596665Y-75194342D01*
X129596665Y-75194342D02*
X129596665Y-74908628D01*
X129596665Y-74908628D02*
X129563332Y-74813390D01*
X129563332Y-74813390D02*
X129529999Y-74765771D01*
X129529999Y-74765771D02*
X129463332Y-74718152D01*
X129463332Y-74718152D02*
X129329999Y-74718152D01*
X129329999Y-74718152D02*
X129263332Y-74765771D01*
X128863332Y-75384819D02*
X128929999Y-75337200D01*
X128929999Y-75337200D02*
X128963332Y-75289580D01*
X128963332Y-75289580D02*
X128996665Y-75194342D01*
X128996665Y-75194342D02*
X128996665Y-74908628D01*
X128996665Y-74908628D02*
X128963332Y-74813390D01*
X128963332Y-74813390D02*
X128929999Y-74765771D01*
X128929999Y-74765771D02*
X128863332Y-74718152D01*
X128863332Y-74718152D02*
X128763332Y-74718152D01*
X128763332Y-74718152D02*
X128696665Y-74765771D01*
X128696665Y-74765771D02*
X128663332Y-74813390D01*
X128663332Y-74813390D02*
X128629999Y-74908628D01*
X128629999Y-74908628D02*
X128629999Y-75194342D01*
X128629999Y-75194342D02*
X128663332Y-75289580D01*
X128663332Y-75289580D02*
X128696665Y-75337200D01*
X128696665Y-75337200D02*
X128763332Y-75384819D01*
X128763332Y-75384819D02*
X128863332Y-75384819D01*
X128329999Y-75384819D02*
X128329999Y-74718152D01*
X128329999Y-74813390D02*
X128296666Y-74765771D01*
X128296666Y-74765771D02*
X128229999Y-74718152D01*
X128229999Y-74718152D02*
X128129999Y-74718152D01*
X128129999Y-74718152D02*
X128063332Y-74765771D01*
X128063332Y-74765771D02*
X128029999Y-74861009D01*
X128029999Y-74861009D02*
X128029999Y-75384819D01*
X128029999Y-74861009D02*
X127996666Y-74765771D01*
X127996666Y-74765771D02*
X127929999Y-74718152D01*
X127929999Y-74718152D02*
X127829999Y-74718152D01*
X127829999Y-74718152D02*
X127763332Y-74765771D01*
X127763332Y-74765771D02*
X127729999Y-74861009D01*
X127729999Y-74861009D02*
X127729999Y-75384819D01*
X126896666Y-74337200D02*
X127496666Y-75622914D01*
X126696666Y-75337200D02*
X126630000Y-75384819D01*
X126630000Y-75384819D02*
X126496666Y-75384819D01*
X126496666Y-75384819D02*
X126430000Y-75337200D01*
X126430000Y-75337200D02*
X126396666Y-75241961D01*
X126396666Y-75241961D02*
X126396666Y-75194342D01*
X126396666Y-75194342D02*
X126430000Y-75099104D01*
X126430000Y-75099104D02*
X126496666Y-75051485D01*
X126496666Y-75051485D02*
X126596666Y-75051485D01*
X126596666Y-75051485D02*
X126663333Y-75003866D01*
X126663333Y-75003866D02*
X126696666Y-74908628D01*
X126696666Y-74908628D02*
X126696666Y-74861009D01*
X126696666Y-74861009D02*
X126663333Y-74765771D01*
X126663333Y-74765771D02*
X126596666Y-74718152D01*
X126596666Y-74718152D02*
X126496666Y-74718152D01*
X126496666Y-74718152D02*
X126430000Y-74765771D01*
X125796666Y-74718152D02*
X125796666Y-75384819D01*
X126096666Y-74718152D02*
X126096666Y-75241961D01*
X126096666Y-75241961D02*
X126063333Y-75337200D01*
X126063333Y-75337200D02*
X125996666Y-75384819D01*
X125996666Y-75384819D02*
X125896666Y-75384819D01*
X125896666Y-75384819D02*
X125829999Y-75337200D01*
X125829999Y-75337200D02*
X125796666Y-75289580D01*
X125463333Y-75384819D02*
X125463333Y-74384819D01*
X125463333Y-74765771D02*
X125396666Y-74718152D01*
X125396666Y-74718152D02*
X125263333Y-74718152D01*
X125263333Y-74718152D02*
X125196666Y-74765771D01*
X125196666Y-74765771D02*
X125163333Y-74813390D01*
X125163333Y-74813390D02*
X125130000Y-74908628D01*
X125130000Y-74908628D02*
X125130000Y-75194342D01*
X125130000Y-75194342D02*
X125163333Y-75289580D01*
X125163333Y-75289580D02*
X125196666Y-75337200D01*
X125196666Y-75337200D02*
X125263333Y-75384819D01*
X125263333Y-75384819D02*
X125396666Y-75384819D01*
X125396666Y-75384819D02*
X125463333Y-75337200D01*
X124830000Y-75384819D02*
X124830000Y-74718152D01*
X124830000Y-74908628D02*
X124796667Y-74813390D01*
X124796667Y-74813390D02*
X124763333Y-74765771D01*
X124763333Y-74765771D02*
X124696667Y-74718152D01*
X124696667Y-74718152D02*
X124630000Y-74718152D01*
X124130000Y-75337200D02*
X124196667Y-75384819D01*
X124196667Y-75384819D02*
X124330000Y-75384819D01*
X124330000Y-75384819D02*
X124396667Y-75337200D01*
X124396667Y-75337200D02*
X124430000Y-75241961D01*
X124430000Y-75241961D02*
X124430000Y-74861009D01*
X124430000Y-74861009D02*
X124396667Y-74765771D01*
X124396667Y-74765771D02*
X124330000Y-74718152D01*
X124330000Y-74718152D02*
X124196667Y-74718152D01*
X124196667Y-74718152D02*
X124130000Y-74765771D01*
X124130000Y-74765771D02*
X124096667Y-74861009D01*
X124096667Y-74861009D02*
X124096667Y-74956247D01*
X124096667Y-74956247D02*
X124430000Y-75051485D01*
X123863334Y-74718152D02*
X123496667Y-74718152D01*
X123496667Y-74718152D02*
X123863334Y-75384819D01*
X123863334Y-75384819D02*
X123496667Y-75384819D01*
X123130000Y-75384819D02*
X123196667Y-75337200D01*
X123196667Y-75337200D02*
X123230000Y-75289580D01*
X123230000Y-75289580D02*
X123263333Y-75194342D01*
X123263333Y-75194342D02*
X123263333Y-74908628D01*
X123263333Y-74908628D02*
X123230000Y-74813390D01*
X123230000Y-74813390D02*
X123196667Y-74765771D01*
X123196667Y-74765771D02*
X123130000Y-74718152D01*
X123130000Y-74718152D02*
X123030000Y-74718152D01*
X123030000Y-74718152D02*
X122963333Y-74765771D01*
X122963333Y-74765771D02*
X122930000Y-74813390D01*
X122930000Y-74813390D02*
X122896667Y-74908628D01*
X122896667Y-74908628D02*
X122896667Y-75194342D01*
X122896667Y-75194342D02*
X122930000Y-75289580D01*
X122930000Y-75289580D02*
X122963333Y-75337200D01*
X122963333Y-75337200D02*
X123030000Y-75384819D01*
X123030000Y-75384819D02*
X123130000Y-75384819D01*
X122596667Y-74718152D02*
X122596667Y-75384819D01*
X122596667Y-74813390D02*
X122563334Y-74765771D01*
X122563334Y-74765771D02*
X122496667Y-74718152D01*
X122496667Y-74718152D02*
X122396667Y-74718152D01*
X122396667Y-74718152D02*
X122330000Y-74765771D01*
X122330000Y-74765771D02*
X122296667Y-74861009D01*
X122296667Y-74861009D02*
X122296667Y-75384819D01*
X121463334Y-74337200D02*
X122063334Y-75622914D01*
X121130001Y-75384819D02*
X121196668Y-75337200D01*
X121196668Y-75337200D02*
X121230001Y-75241961D01*
X121230001Y-75241961D02*
X121230001Y-74384819D01*
X120563334Y-75384819D02*
X120563334Y-74861009D01*
X120563334Y-74861009D02*
X120596667Y-74765771D01*
X120596667Y-74765771D02*
X120663334Y-74718152D01*
X120663334Y-74718152D02*
X120796667Y-74718152D01*
X120796667Y-74718152D02*
X120863334Y-74765771D01*
X120563334Y-75337200D02*
X120630001Y-75384819D01*
X120630001Y-75384819D02*
X120796667Y-75384819D01*
X120796667Y-75384819D02*
X120863334Y-75337200D01*
X120863334Y-75337200D02*
X120896667Y-75241961D01*
X120896667Y-75241961D02*
X120896667Y-75146723D01*
X120896667Y-75146723D02*
X120863334Y-75051485D01*
X120863334Y-75051485D02*
X120796667Y-75003866D01*
X120796667Y-75003866D02*
X120630001Y-75003866D01*
X120630001Y-75003866D02*
X120563334Y-74956247D01*
X120230001Y-74718152D02*
X120230001Y-75384819D01*
X120230001Y-74813390D02*
X120196668Y-74765771D01*
X120196668Y-74765771D02*
X120130001Y-74718152D01*
X120130001Y-74718152D02*
X120030001Y-74718152D01*
X120030001Y-74718152D02*
X119963334Y-74765771D01*
X119963334Y-74765771D02*
X119930001Y-74861009D01*
X119930001Y-74861009D02*
X119930001Y-75384819D01*
X119296668Y-75337200D02*
X119363335Y-75384819D01*
X119363335Y-75384819D02*
X119496668Y-75384819D01*
X119496668Y-75384819D02*
X119563335Y-75337200D01*
X119563335Y-75337200D02*
X119596668Y-75289580D01*
X119596668Y-75289580D02*
X119630001Y-75194342D01*
X119630001Y-75194342D02*
X119630001Y-74908628D01*
X119630001Y-74908628D02*
X119596668Y-74813390D01*
X119596668Y-74813390D02*
X119563335Y-74765771D01*
X119563335Y-74765771D02*
X119496668Y-74718152D01*
X119496668Y-74718152D02*
X119363335Y-74718152D01*
X119363335Y-74718152D02*
X119296668Y-74765771D01*
X118730001Y-75337200D02*
X118796668Y-75384819D01*
X118796668Y-75384819D02*
X118930001Y-75384819D01*
X118930001Y-75384819D02*
X118996668Y-75337200D01*
X118996668Y-75337200D02*
X119030001Y-75241961D01*
X119030001Y-75241961D02*
X119030001Y-74861009D01*
X119030001Y-74861009D02*
X118996668Y-74765771D01*
X118996668Y-74765771D02*
X118930001Y-74718152D01*
X118930001Y-74718152D02*
X118796668Y-74718152D01*
X118796668Y-74718152D02*
X118730001Y-74765771D01*
X118730001Y-74765771D02*
X118696668Y-74861009D01*
X118696668Y-74861009D02*
X118696668Y-74956247D01*
X118696668Y-74956247D02*
X119030001Y-75051485D01*
X118396668Y-75384819D02*
X118396668Y-74718152D01*
X118396668Y-74908628D02*
X118363335Y-74813390D01*
X118363335Y-74813390D02*
X118330001Y-74765771D01*
X118330001Y-74765771D02*
X118263335Y-74718152D01*
X118263335Y-74718152D02*
X118196668Y-74718152D01*
X118490951Y-22298866D02*
X117729047Y-22298866D01*
X133730951Y-22298866D02*
X132969047Y-22298866D01*
X133349999Y-22679819D02*
X133349999Y-21917914D01*
D12*
%TO.C,D2*%
X52130000Y-36195000D02*
X52130000Y-34925000D01*
X52130000Y-34925000D02*
X46930000Y-34925000D01*
X50030000Y-35060000D02*
X50030000Y-36060000D01*
X49980000Y-35560000D02*
X49030000Y-35060000D01*
X49030000Y-36060000D02*
X49980000Y-35560000D01*
X49030000Y-35060000D02*
X49030000Y-36060000D01*
X46930000Y-36195000D02*
X52130000Y-36195000D01*
X46930000Y-34925000D02*
X46930000Y-36195000D01*
%TO.C,D32*%
X99755000Y-83185000D02*
X99755000Y-81915000D01*
X99755000Y-81915000D02*
X94555000Y-81915000D01*
X97655000Y-82050000D02*
X97655000Y-83050000D01*
X97605000Y-82550000D02*
X96655000Y-82050000D01*
X96655000Y-83050000D02*
X97605000Y-82550000D01*
X96655000Y-82050000D02*
X96655000Y-83050000D01*
X94555000Y-83185000D02*
X99755000Y-83185000D01*
X94555000Y-81915000D02*
X94555000Y-83185000D01*
%TO.C,D34*%
X132655000Y-81915000D02*
X132655000Y-83185000D01*
X132655000Y-83185000D02*
X137855000Y-83185000D01*
X134755000Y-83050000D02*
X134755000Y-82050000D01*
X134805000Y-82550000D02*
X135755000Y-83050000D01*
X135755000Y-82050000D02*
X134805000Y-82550000D01*
X135755000Y-83050000D02*
X135755000Y-82050000D01*
X137855000Y-81915000D02*
X132655000Y-81915000D01*
X137855000Y-83185000D02*
X137855000Y-81915000D01*
%TO.C,D20*%
X218380000Y-53975000D02*
X218380000Y-55245000D01*
X218380000Y-55245000D02*
X223580000Y-55245000D01*
X220480000Y-55110000D02*
X220480000Y-54110000D01*
X220530000Y-54610000D02*
X221480000Y-55110000D01*
X221480000Y-54110000D02*
X220530000Y-54610000D01*
X221480000Y-55110000D02*
X221480000Y-54110000D01*
X223580000Y-53975000D02*
X218380000Y-53975000D01*
X223580000Y-55245000D02*
X223580000Y-53975000D01*
%TO.C,D30*%
X218380000Y-73025000D02*
X218380000Y-74295000D01*
X218380000Y-74295000D02*
X223580000Y-74295000D01*
X220480000Y-74160000D02*
X220480000Y-73160000D01*
X220530000Y-73660000D02*
X221480000Y-74160000D01*
X221480000Y-73160000D02*
X220530000Y-73660000D01*
X221480000Y-74160000D02*
X221480000Y-73160000D01*
X223580000Y-73025000D02*
X218380000Y-73025000D01*
X223580000Y-74295000D02*
X223580000Y-73025000D01*
%TO.C,D8*%
X180280000Y-34925000D02*
X180280000Y-36195000D01*
X180280000Y-36195000D02*
X185480000Y-36195000D01*
X182380000Y-36060000D02*
X182380000Y-35060000D01*
X182430000Y-35560000D02*
X183380000Y-36060000D01*
X183380000Y-35060000D02*
X182430000Y-35560000D01*
X183380000Y-36060000D02*
X183380000Y-35060000D01*
X185480000Y-34925000D02*
X180280000Y-34925000D01*
X185480000Y-36195000D02*
X185480000Y-34925000D01*
%TO.C,D4*%
X90230000Y-36195000D02*
X90230000Y-34925000D01*
X90230000Y-34925000D02*
X85030000Y-34925000D01*
X88130000Y-35060000D02*
X88130000Y-36060000D01*
X88080000Y-35560000D02*
X87130000Y-35060000D01*
X87130000Y-36060000D02*
X88080000Y-35560000D01*
X87130000Y-35060000D02*
X87130000Y-36060000D01*
X85030000Y-36195000D02*
X90230000Y-36195000D01*
X85030000Y-34925000D02*
X85030000Y-36195000D01*
%TO.C,D11*%
X33080000Y-55245000D02*
X33080000Y-53975000D01*
X33080000Y-53975000D02*
X27880000Y-53975000D01*
X30980000Y-54110000D02*
X30980000Y-55110000D01*
X30930000Y-54610000D02*
X29980000Y-54110000D01*
X29980000Y-55110000D02*
X30930000Y-54610000D01*
X29980000Y-54110000D02*
X29980000Y-55110000D01*
X27880000Y-55245000D02*
X33080000Y-55245000D01*
X27880000Y-53975000D02*
X27880000Y-55245000D01*
%TO.C,D7*%
X161230000Y-34925000D02*
X161230000Y-36195000D01*
X161230000Y-36195000D02*
X166430000Y-36195000D01*
X163330000Y-36060000D02*
X163330000Y-35060000D01*
X163380000Y-35560000D02*
X164330000Y-36060000D01*
X164330000Y-35060000D02*
X163380000Y-35560000D01*
X164330000Y-36060000D02*
X164330000Y-35060000D01*
X166430000Y-34925000D02*
X161230000Y-34925000D01*
X166430000Y-36195000D02*
X166430000Y-34925000D01*
%TO.C,D29*%
X199330000Y-73025000D02*
X199330000Y-74295000D01*
X199330000Y-74295000D02*
X204530000Y-74295000D01*
X201430000Y-74160000D02*
X201430000Y-73160000D01*
X201480000Y-73660000D02*
X202430000Y-74160000D01*
X202430000Y-73160000D02*
X201480000Y-73660000D01*
X202430000Y-74160000D02*
X202430000Y-73160000D01*
X204530000Y-73025000D02*
X199330000Y-73025000D01*
X204530000Y-74295000D02*
X204530000Y-73025000D01*
%TO.C,D3*%
X71180000Y-36195000D02*
X71180000Y-34925000D01*
X71180000Y-34925000D02*
X65980000Y-34925000D01*
X69080000Y-35060000D02*
X69080000Y-36060000D01*
X69030000Y-35560000D02*
X68080000Y-35060000D01*
X68080000Y-36060000D02*
X69030000Y-35560000D01*
X68080000Y-35060000D02*
X68080000Y-36060000D01*
X65980000Y-36195000D02*
X71180000Y-36195000D01*
X65980000Y-34925000D02*
X65980000Y-36195000D01*
%TO.C,D23*%
X71180000Y-74295000D02*
X71180000Y-73025000D01*
X71180000Y-73025000D02*
X65980000Y-73025000D01*
X69080000Y-73160000D02*
X69080000Y-74160000D01*
X69030000Y-73660000D02*
X68080000Y-73160000D01*
X68080000Y-74160000D02*
X69030000Y-73660000D01*
X68080000Y-73160000D02*
X68080000Y-74160000D01*
X65980000Y-74295000D02*
X71180000Y-74295000D01*
X65980000Y-73025000D02*
X65980000Y-74295000D01*
%TO.C,D27*%
X161230000Y-73025000D02*
X161230000Y-74295000D01*
X161230000Y-74295000D02*
X166430000Y-74295000D01*
X163330000Y-74160000D02*
X163330000Y-73160000D01*
X163380000Y-73660000D02*
X164330000Y-74160000D01*
X164330000Y-73160000D02*
X163380000Y-73660000D01*
X164330000Y-74160000D02*
X164330000Y-73160000D01*
X166430000Y-73025000D02*
X161230000Y-73025000D01*
X166430000Y-74295000D02*
X166430000Y-73025000D01*
%TO.C,D1*%
X33080000Y-36195000D02*
X33080000Y-34925000D01*
X33080000Y-34925000D02*
X27880000Y-34925000D01*
X30980000Y-35060000D02*
X30980000Y-36060000D01*
X30930000Y-35560000D02*
X29980000Y-35060000D01*
X29980000Y-36060000D02*
X30930000Y-35560000D01*
X29980000Y-35060000D02*
X29980000Y-36060000D01*
X27880000Y-36195000D02*
X33080000Y-36195000D01*
X27880000Y-34925000D02*
X27880000Y-36195000D01*
%TO.C,D9*%
X199330000Y-34925000D02*
X199330000Y-36195000D01*
X199330000Y-36195000D02*
X204530000Y-36195000D01*
X201430000Y-36060000D02*
X201430000Y-35060000D01*
X201480000Y-35560000D02*
X202430000Y-36060000D01*
X202430000Y-35060000D02*
X201480000Y-35560000D01*
X202430000Y-36060000D02*
X202430000Y-35060000D01*
X204530000Y-34925000D02*
X199330000Y-34925000D01*
X204530000Y-36195000D02*
X204530000Y-34925000D01*
%TO.C,D28*%
X180280000Y-73025000D02*
X180280000Y-74295000D01*
X180280000Y-74295000D02*
X185480000Y-74295000D01*
X182380000Y-74160000D02*
X182380000Y-73160000D01*
X182430000Y-73660000D02*
X183380000Y-74160000D01*
X183380000Y-73160000D02*
X182430000Y-73660000D01*
X183380000Y-74160000D02*
X183380000Y-73160000D01*
X185480000Y-73025000D02*
X180280000Y-73025000D01*
X185480000Y-74295000D02*
X185480000Y-73025000D01*
%TO.C,D16*%
X142180000Y-53975000D02*
X142180000Y-55245000D01*
X142180000Y-55245000D02*
X147380000Y-55245000D01*
X144280000Y-55110000D02*
X144280000Y-54110000D01*
X144330000Y-54610000D02*
X145280000Y-55110000D01*
X145280000Y-54110000D02*
X144330000Y-54610000D01*
X145280000Y-55110000D02*
X145280000Y-54110000D01*
X147380000Y-53975000D02*
X142180000Y-53975000D01*
X147380000Y-55245000D02*
X147380000Y-53975000D01*
%TO.C,D35*%
X151705000Y-81915000D02*
X151705000Y-83185000D01*
X151705000Y-83185000D02*
X156905000Y-83185000D01*
X153805000Y-83050000D02*
X153805000Y-82050000D01*
X153855000Y-82550000D02*
X154805000Y-83050000D01*
X154805000Y-82050000D02*
X153855000Y-82550000D01*
X154805000Y-83050000D02*
X154805000Y-82050000D01*
X156905000Y-81915000D02*
X151705000Y-81915000D01*
X156905000Y-83185000D02*
X156905000Y-81915000D01*
D13*
%TO.C,SW37*%
X122280000Y-23565000D02*
X122280000Y-22775000D01*
X122880000Y-21765000D02*
X128580000Y-21765000D01*
X124130000Y-24615000D02*
X125830000Y-24615000D01*
X124330000Y-20475000D02*
X124530000Y-20265000D01*
X124330000Y-21765000D02*
X124330000Y-20475000D01*
X124530000Y-20265000D02*
X125430000Y-20265000D01*
X125630000Y-20475000D02*
X125430000Y-20265000D01*
X125630000Y-20475000D02*
X125630000Y-21765000D01*
X127130000Y-24615000D02*
X127330000Y-24615000D01*
X129180000Y-22775000D02*
X129180000Y-23565000D01*
D12*
%TO.C,D18*%
X180280000Y-53975000D02*
X180280000Y-55245000D01*
X180280000Y-55245000D02*
X185480000Y-55245000D01*
X182380000Y-55110000D02*
X182380000Y-54110000D01*
X182430000Y-54610000D02*
X183380000Y-55110000D01*
X183380000Y-54110000D02*
X182430000Y-54610000D01*
X183380000Y-55110000D02*
X183380000Y-54110000D01*
X185480000Y-53975000D02*
X180280000Y-53975000D01*
X185480000Y-55245000D02*
X185480000Y-53975000D01*
%TO.C,D33*%
X118805000Y-83185000D02*
X118805000Y-81915000D01*
X118805000Y-81915000D02*
X113605000Y-81915000D01*
X116705000Y-82050000D02*
X116705000Y-83050000D01*
X116655000Y-82550000D02*
X115705000Y-82050000D01*
X115705000Y-83050000D02*
X116655000Y-82550000D01*
X115705000Y-82050000D02*
X115705000Y-83050000D01*
X113605000Y-83185000D02*
X118805000Y-83185000D01*
X113605000Y-81915000D02*
X113605000Y-83185000D01*
%TO.C,D6*%
X142180000Y-34925000D02*
X142180000Y-36195000D01*
X142180000Y-36195000D02*
X147380000Y-36195000D01*
X144280000Y-36060000D02*
X144280000Y-35060000D01*
X144330000Y-35560000D02*
X145280000Y-36060000D01*
X145280000Y-35060000D02*
X144330000Y-35560000D01*
X145280000Y-36060000D02*
X145280000Y-35060000D01*
X147380000Y-34925000D02*
X142180000Y-34925000D01*
X147380000Y-36195000D02*
X147380000Y-34925000D01*
%TO.C,D36*%
X170755000Y-81915000D02*
X170755000Y-83185000D01*
X170755000Y-83185000D02*
X175955000Y-83185000D01*
X172855000Y-83050000D02*
X172855000Y-82050000D01*
X172905000Y-82550000D02*
X173855000Y-83050000D01*
X173855000Y-82050000D02*
X172905000Y-82550000D01*
X173855000Y-83050000D02*
X173855000Y-82050000D01*
X175955000Y-81915000D02*
X170755000Y-81915000D01*
X175955000Y-83185000D02*
X175955000Y-81915000D01*
%TO.C,D17*%
X161230000Y-53975000D02*
X161230000Y-55245000D01*
X161230000Y-55245000D02*
X166430000Y-55245000D01*
X163330000Y-55110000D02*
X163330000Y-54110000D01*
X163380000Y-54610000D02*
X164330000Y-55110000D01*
X164330000Y-54110000D02*
X163380000Y-54610000D01*
X164330000Y-55110000D02*
X164330000Y-54110000D01*
X166430000Y-53975000D02*
X161230000Y-53975000D01*
X166430000Y-55245000D02*
X166430000Y-53975000D01*
%TO.C,D5*%
X109280000Y-36195000D02*
X109280000Y-34925000D01*
X109280000Y-34925000D02*
X104080000Y-34925000D01*
X107180000Y-35060000D02*
X107180000Y-36060000D01*
X107130000Y-35560000D02*
X106180000Y-35060000D01*
X106180000Y-36060000D02*
X107130000Y-35560000D01*
X106180000Y-35060000D02*
X106180000Y-36060000D01*
X104080000Y-36195000D02*
X109280000Y-36195000D01*
X104080000Y-34925000D02*
X104080000Y-36195000D01*
%TO.C,D21*%
X33080000Y-74295000D02*
X33080000Y-73025000D01*
X33080000Y-73025000D02*
X27880000Y-73025000D01*
X30980000Y-73160000D02*
X30980000Y-74160000D01*
X30930000Y-73660000D02*
X29980000Y-73160000D01*
X29980000Y-74160000D02*
X30930000Y-73660000D01*
X29980000Y-73160000D02*
X29980000Y-74160000D01*
X27880000Y-74295000D02*
X33080000Y-74295000D01*
X27880000Y-73025000D02*
X27880000Y-74295000D01*
%TO.C,D12*%
X52130000Y-55245000D02*
X52130000Y-53975000D01*
X52130000Y-53975000D02*
X46930000Y-53975000D01*
X50030000Y-54110000D02*
X50030000Y-55110000D01*
X49980000Y-54610000D02*
X49030000Y-54110000D01*
X49030000Y-55110000D02*
X49980000Y-54610000D01*
X49030000Y-54110000D02*
X49030000Y-55110000D01*
X46930000Y-55245000D02*
X52130000Y-55245000D01*
X46930000Y-53975000D02*
X46930000Y-55245000D01*
%TO.C,D10*%
X218380000Y-34925000D02*
X218380000Y-36195000D01*
X218380000Y-36195000D02*
X223580000Y-36195000D01*
X220480000Y-36060000D02*
X220480000Y-35060000D01*
X220530000Y-35560000D02*
X221480000Y-36060000D01*
X221480000Y-35060000D02*
X220530000Y-35560000D01*
X221480000Y-36060000D02*
X221480000Y-35060000D01*
X223580000Y-34925000D02*
X218380000Y-34925000D01*
X223580000Y-36195000D02*
X223580000Y-34925000D01*
%TO.C,D26*%
X142180000Y-73025000D02*
X142180000Y-74295000D01*
X142180000Y-74295000D02*
X147380000Y-74295000D01*
X144280000Y-74160000D02*
X144280000Y-73160000D01*
X144330000Y-73660000D02*
X145280000Y-74160000D01*
X145280000Y-73160000D02*
X144330000Y-73660000D01*
X145280000Y-74160000D02*
X145280000Y-73160000D01*
X147380000Y-73025000D02*
X142180000Y-73025000D01*
X147380000Y-74295000D02*
X147380000Y-73025000D01*
%TO.C,D25*%
X109280000Y-74295000D02*
X109280000Y-73025000D01*
X109280000Y-73025000D02*
X104080000Y-73025000D01*
X107180000Y-73160000D02*
X107180000Y-74160000D01*
X107130000Y-73660000D02*
X106180000Y-73160000D01*
X106180000Y-74160000D02*
X107130000Y-73660000D01*
X106180000Y-73160000D02*
X106180000Y-74160000D01*
X104080000Y-74295000D02*
X109280000Y-74295000D01*
X104080000Y-73025000D02*
X104080000Y-74295000D01*
%TO.C,D19*%
X199330000Y-53975000D02*
X199330000Y-55245000D01*
X199330000Y-55245000D02*
X204530000Y-55245000D01*
X201430000Y-55110000D02*
X201430000Y-54110000D01*
X201480000Y-54610000D02*
X202430000Y-55110000D01*
X202430000Y-54110000D02*
X201480000Y-54610000D01*
X202430000Y-55110000D02*
X202430000Y-54110000D01*
X204530000Y-53975000D02*
X199330000Y-53975000D01*
X204530000Y-55245000D02*
X204530000Y-53975000D01*
%TO.C,D13*%
X71180000Y-55245000D02*
X71180000Y-53975000D01*
X71180000Y-53975000D02*
X65980000Y-53975000D01*
X69080000Y-54110000D02*
X69080000Y-55110000D01*
X69030000Y-54610000D02*
X68080000Y-54110000D01*
X68080000Y-55110000D02*
X69030000Y-54610000D01*
X68080000Y-54110000D02*
X68080000Y-55110000D01*
X65980000Y-55245000D02*
X71180000Y-55245000D01*
X65980000Y-53975000D02*
X65980000Y-55245000D01*
%TO.C,D22*%
X52130000Y-74295000D02*
X52130000Y-73025000D01*
X52130000Y-73025000D02*
X46930000Y-73025000D01*
X50030000Y-73160000D02*
X50030000Y-74160000D01*
X49980000Y-73660000D02*
X49030000Y-73160000D01*
X49030000Y-74160000D02*
X49980000Y-73660000D01*
X49030000Y-73160000D02*
X49030000Y-74160000D01*
X46930000Y-74295000D02*
X52130000Y-74295000D01*
X46930000Y-73025000D02*
X46930000Y-74295000D01*
%TO.C,D15*%
X109280000Y-55245000D02*
X109280000Y-53975000D01*
X109280000Y-53975000D02*
X104080000Y-53975000D01*
X107180000Y-54110000D02*
X107180000Y-55110000D01*
X107130000Y-54610000D02*
X106180000Y-54110000D01*
X106180000Y-55110000D02*
X107130000Y-54610000D01*
X106180000Y-54110000D02*
X106180000Y-55110000D01*
X104080000Y-55245000D02*
X109280000Y-55245000D01*
X104080000Y-53975000D02*
X104080000Y-55245000D01*
%TO.C,D14*%
X90230000Y-55245000D02*
X90230000Y-53975000D01*
X90230000Y-53975000D02*
X85030000Y-53975000D01*
X88130000Y-54110000D02*
X88130000Y-55110000D01*
X88080000Y-54610000D02*
X87130000Y-54110000D01*
X87130000Y-55110000D02*
X88080000Y-54610000D01*
X87130000Y-54110000D02*
X87130000Y-55110000D01*
X85030000Y-55245000D02*
X90230000Y-55245000D01*
X85030000Y-53975000D02*
X85030000Y-55245000D01*
%TO.C,D31*%
X80705000Y-83185000D02*
X80705000Y-81915000D01*
X80705000Y-81915000D02*
X75505000Y-81915000D01*
X78605000Y-82050000D02*
X78605000Y-83050000D01*
X78555000Y-82550000D02*
X77605000Y-82050000D01*
X77605000Y-83050000D02*
X78555000Y-82550000D01*
X77605000Y-82050000D02*
X77605000Y-83050000D01*
X75505000Y-83185000D02*
X80705000Y-83185000D01*
X75505000Y-81915000D02*
X75505000Y-83185000D01*
%TO.C,D24*%
X90230000Y-74295000D02*
X90230000Y-73025000D01*
X90230000Y-73025000D02*
X85030000Y-73025000D01*
X88130000Y-73160000D02*
X88130000Y-74160000D01*
X88080000Y-73660000D02*
X87130000Y-73160000D01*
X87130000Y-74160000D02*
X88080000Y-73660000D01*
X87130000Y-73160000D02*
X87130000Y-74160000D01*
X85030000Y-74295000D02*
X90230000Y-74295000D01*
X85030000Y-73025000D02*
X85030000Y-74295000D01*
%TD*%
%LPC*%
D14*
%TO.C,SW10*%
X215900000Y-30480000D03*
D15*
X217170000Y-27940000D03*
D16*
X220980000Y-30480000D03*
D15*
X223520000Y-25400000D03*
D14*
X226060000Y-30480000D03*
D17*
X213895000Y-27940000D03*
X226822000Y-25400000D03*
%TD*%
D18*
%TO.C,H7*%
X87630000Y-78105000D03*
%TD*%
%TO.C,H1*%
X40005000Y-40005000D03*
%TD*%
D14*
%TO.C,SW15*%
X101600000Y-49530000D03*
D15*
X102870000Y-46990000D03*
D16*
X106680000Y-49530000D03*
D15*
X109220000Y-44450000D03*
D14*
X111760000Y-49530000D03*
D17*
X99595000Y-46990000D03*
X112522000Y-44450000D03*
%TD*%
D14*
%TO.C,SW19*%
X196850000Y-49530000D03*
D15*
X198120000Y-46990000D03*
D16*
X201930000Y-49530000D03*
D15*
X204470000Y-44450000D03*
D14*
X207010000Y-49530000D03*
D17*
X194845000Y-46990000D03*
X207772000Y-44450000D03*
%TD*%
D14*
%TO.C,SW18*%
X177800000Y-49530000D03*
D15*
X179070000Y-46990000D03*
D16*
X182880000Y-49530000D03*
D15*
X185420000Y-44450000D03*
D14*
X187960000Y-49530000D03*
D17*
X175795000Y-46990000D03*
X188722000Y-44450000D03*
%TD*%
D18*
%TO.C,H5*%
X40005000Y-59055000D03*
%TD*%
D14*
%TO.C,SW35*%
X159385000Y-87630000D03*
D15*
X158115000Y-90170000D03*
D16*
X154305000Y-87630000D03*
D15*
X151765000Y-92710000D03*
D14*
X149225000Y-87630000D03*
D19*
X161390000Y-90170000D03*
X148463000Y-92710000D03*
%TD*%
D14*
%TO.C,SW31*%
X83185000Y-87630000D03*
D15*
X81915000Y-90170000D03*
D16*
X78105000Y-87630000D03*
D15*
X75565000Y-92710000D03*
D14*
X73025000Y-87630000D03*
D19*
X85190000Y-90170000D03*
X72263000Y-92710000D03*
%TD*%
D14*
%TO.C,SW27*%
X158750000Y-68580000D03*
D15*
X160020000Y-66040000D03*
D16*
X163830000Y-68580000D03*
D15*
X166370000Y-63500000D03*
D14*
X168910000Y-68580000D03*
D17*
X156745000Y-66040000D03*
X169672000Y-63500000D03*
%TD*%
D20*
%TO.C,O1*%
X120650000Y-58420000D03*
X123190000Y-58420000D03*
X125730000Y-58420000D03*
X128270000Y-58420000D03*
X130810000Y-58420000D03*
%TD*%
D14*
%TO.C,SW8*%
X177800000Y-30480000D03*
D15*
X179070000Y-27940000D03*
D16*
X182880000Y-30480000D03*
D15*
X185420000Y-25400000D03*
D14*
X187960000Y-30480000D03*
D17*
X175795000Y-27940000D03*
X188722000Y-25400000D03*
%TD*%
D21*
%TO.C,H10*%
X132080000Y-63500000D03*
%TD*%
D20*
%TO.C,H11*%
X120015000Y-22225000D03*
%TD*%
D14*
%TO.C,SW16*%
X139700000Y-49530000D03*
D15*
X140970000Y-46990000D03*
D16*
X144780000Y-49530000D03*
D15*
X147320000Y-44450000D03*
D14*
X149860000Y-49530000D03*
D17*
X137695000Y-46990000D03*
X150622000Y-44450000D03*
%TD*%
D14*
%TO.C,SW13*%
X63500000Y-49530000D03*
D15*
X64770000Y-46990000D03*
D16*
X68580000Y-49530000D03*
D15*
X71120000Y-44450000D03*
D14*
X73660000Y-49530000D03*
D17*
X61495000Y-46990000D03*
X74422000Y-44450000D03*
%TD*%
D14*
%TO.C,SW21*%
X25400000Y-68580000D03*
D15*
X26670000Y-66040000D03*
D16*
X30480000Y-68580000D03*
D15*
X33020000Y-63500000D03*
D14*
X35560000Y-68580000D03*
D17*
X23395000Y-66040000D03*
X36322000Y-63500000D03*
%TD*%
D14*
%TO.C,SW14*%
X82550000Y-49530000D03*
D15*
X83820000Y-46990000D03*
D16*
X87630000Y-49530000D03*
D15*
X90170000Y-44450000D03*
D14*
X92710000Y-49530000D03*
D17*
X80545000Y-46990000D03*
X93472000Y-44450000D03*
%TD*%
D14*
%TO.C,SW32*%
X102235000Y-87630000D03*
D15*
X100965000Y-90170000D03*
D16*
X97155000Y-87630000D03*
D15*
X94615000Y-92710000D03*
D14*
X92075000Y-87630000D03*
D19*
X104240000Y-90170000D03*
X91313000Y-92710000D03*
%TD*%
D14*
%TO.C,SW1*%
X25400000Y-30480000D03*
D15*
X26670000Y-27940000D03*
D16*
X30480000Y-30480000D03*
D15*
X33020000Y-25400000D03*
D14*
X35560000Y-30480000D03*
D17*
X23395000Y-27940000D03*
X36322000Y-25400000D03*
%TD*%
D14*
%TO.C,SW24*%
X82550000Y-68580000D03*
D15*
X83820000Y-66040000D03*
D16*
X87630000Y-68580000D03*
D15*
X90170000Y-63500000D03*
D14*
X92710000Y-68580000D03*
D17*
X80545000Y-66040000D03*
X93472000Y-63500000D03*
%TD*%
D21*
%TO.C,H9*%
X119380000Y-63500000D03*
%TD*%
D14*
%TO.C,SW23*%
X63500000Y-68580000D03*
D15*
X64770000Y-66040000D03*
D16*
X68580000Y-68580000D03*
D15*
X71120000Y-63500000D03*
D14*
X73660000Y-68580000D03*
D17*
X61495000Y-66040000D03*
X74422000Y-63500000D03*
%TD*%
D14*
%TO.C,SW9*%
X196850000Y-30480000D03*
D15*
X198120000Y-27940000D03*
D16*
X201930000Y-30480000D03*
D15*
X204470000Y-25400000D03*
D14*
X207010000Y-30480000D03*
D17*
X194845000Y-27940000D03*
X207772000Y-25400000D03*
%TD*%
D20*
%TO.C,U1*%
X133350000Y-24765000D03*
X133350000Y-27305000D03*
X133350000Y-29845000D03*
X133350000Y-32385000D03*
X133350000Y-34925000D03*
X133350000Y-37465000D03*
X133350000Y-40005000D03*
X133350000Y-42545000D03*
X133350000Y-45085000D03*
X133350000Y-47625000D03*
X133350000Y-50165000D03*
X133350000Y-52705000D03*
X118110000Y-52705000D03*
X118110000Y-50165000D03*
X118110000Y-47625000D03*
X118110000Y-45085000D03*
X118110000Y-42545000D03*
X118110000Y-40005000D03*
X118110000Y-37465000D03*
X118110000Y-34925000D03*
X118110000Y-32385000D03*
X118110000Y-29845000D03*
X118110000Y-27305000D03*
X118110000Y-24765000D03*
%TD*%
D14*
%TO.C,SW30*%
X215900000Y-68580000D03*
D15*
X217170000Y-66040000D03*
D16*
X220980000Y-68580000D03*
D15*
X223520000Y-63500000D03*
D14*
X226060000Y-68580000D03*
D17*
X213895000Y-66040000D03*
X226822000Y-63500000D03*
%TD*%
D14*
%TO.C,SW34*%
X140335000Y-87630000D03*
D15*
X139065000Y-90170000D03*
D16*
X135255000Y-87630000D03*
D15*
X132715000Y-92710000D03*
D14*
X130175000Y-87630000D03*
D19*
X142340000Y-90170000D03*
X129413000Y-92710000D03*
%TD*%
D14*
%TO.C,SW20*%
X215900000Y-49530000D03*
D15*
X217170000Y-46990000D03*
D16*
X220980000Y-49530000D03*
D15*
X223520000Y-44450000D03*
D14*
X226060000Y-49530000D03*
D17*
X213895000Y-46990000D03*
X226822000Y-44450000D03*
%TD*%
D14*
%TO.C,SW26*%
X139700000Y-68580000D03*
D15*
X140970000Y-66040000D03*
D16*
X144780000Y-68580000D03*
D15*
X147320000Y-63500000D03*
D14*
X149860000Y-68580000D03*
D17*
X137695000Y-66040000D03*
X150622000Y-63500000D03*
%TD*%
D14*
%TO.C,SW25*%
X101600000Y-68580000D03*
D15*
X102870000Y-66040000D03*
D16*
X106680000Y-68580000D03*
D15*
X109220000Y-63500000D03*
D14*
X111760000Y-68580000D03*
D17*
X99595000Y-66040000D03*
X112522000Y-63500000D03*
%TD*%
D18*
%TO.C,H8*%
X163830000Y-78105000D03*
%TD*%
D14*
%TO.C,SW29*%
X196850000Y-68580000D03*
D15*
X198120000Y-66040000D03*
D16*
X201930000Y-68580000D03*
D15*
X204470000Y-63500000D03*
D14*
X207010000Y-68580000D03*
D17*
X194845000Y-66040000D03*
X207772000Y-63500000D03*
%TD*%
D18*
%TO.C,H4*%
X211455000Y-40005000D03*
%TD*%
D22*
%TO.C,SW38*%
X122480000Y-68580000D03*
X128980000Y-68580000D03*
%TD*%
D14*
%TO.C,SW4*%
X82550000Y-30480000D03*
D15*
X83820000Y-27940000D03*
D16*
X87630000Y-30480000D03*
D15*
X90170000Y-25400000D03*
D14*
X92710000Y-30480000D03*
D17*
X80545000Y-27940000D03*
X93472000Y-25400000D03*
%TD*%
D14*
%TO.C,SW36*%
X178435000Y-87630000D03*
D15*
X177165000Y-90170000D03*
D16*
X173355000Y-87630000D03*
D15*
X170815000Y-92710000D03*
D14*
X168275000Y-87630000D03*
D19*
X180440000Y-90170000D03*
X167513000Y-92710000D03*
%TD*%
D18*
%TO.C,H2*%
X97155000Y-40005000D03*
%TD*%
D14*
%TO.C,SW22*%
X44450000Y-68580000D03*
D15*
X45720000Y-66040000D03*
D16*
X49530000Y-68580000D03*
D15*
X52070000Y-63500000D03*
D14*
X54610000Y-68580000D03*
D17*
X42445000Y-66040000D03*
X55372000Y-63500000D03*
%TD*%
D18*
%TO.C,H6*%
X211455000Y-59055000D03*
%TD*%
D14*
%TO.C,SW5*%
X101600000Y-30480000D03*
D15*
X102870000Y-27940000D03*
D16*
X106680000Y-30480000D03*
D15*
X109220000Y-25400000D03*
D14*
X111760000Y-30480000D03*
D17*
X99595000Y-27940000D03*
X112522000Y-25400000D03*
%TD*%
D18*
%TO.C,H3*%
X154305000Y-40005000D03*
%TD*%
D14*
%TO.C,SW7*%
X158750000Y-30480000D03*
D15*
X160020000Y-27940000D03*
D16*
X163830000Y-30480000D03*
D15*
X166370000Y-25400000D03*
D14*
X168910000Y-30480000D03*
D17*
X156745000Y-27940000D03*
X169672000Y-25400000D03*
%TD*%
D14*
%TO.C,SW2*%
X44450000Y-30480000D03*
D15*
X45720000Y-27940000D03*
D16*
X49530000Y-30480000D03*
D15*
X52070000Y-25400000D03*
D14*
X54610000Y-30480000D03*
D17*
X42445000Y-27940000D03*
X55372000Y-25400000D03*
%TD*%
D20*
%TO.C,H12*%
X131445000Y-22225000D03*
%TD*%
D14*
%TO.C,SW3*%
X63500000Y-30480000D03*
D15*
X64770000Y-27940000D03*
D16*
X68580000Y-30480000D03*
D15*
X71120000Y-25400000D03*
D14*
X73660000Y-30480000D03*
D17*
X61495000Y-27940000D03*
X74422000Y-25400000D03*
%TD*%
D14*
%TO.C,SW17*%
X158750000Y-49530000D03*
D15*
X160020000Y-46990000D03*
D16*
X163830000Y-49530000D03*
D15*
X166370000Y-44450000D03*
D14*
X168910000Y-49530000D03*
D17*
X156745000Y-46990000D03*
X169672000Y-44450000D03*
%TD*%
D14*
%TO.C,SW11*%
X25400000Y-49530000D03*
D15*
X26670000Y-46990000D03*
D16*
X30480000Y-49530000D03*
D15*
X33020000Y-44450000D03*
D14*
X35560000Y-49530000D03*
D17*
X23395000Y-46990000D03*
X36322000Y-44450000D03*
%TD*%
D14*
%TO.C,SW12*%
X44450000Y-49530000D03*
D15*
X45720000Y-46990000D03*
D16*
X49530000Y-49530000D03*
D15*
X52070000Y-44450000D03*
D14*
X54610000Y-49530000D03*
D17*
X42445000Y-46990000D03*
X55372000Y-44450000D03*
%TD*%
D14*
%TO.C,SW33*%
X121285000Y-87630000D03*
D15*
X120015000Y-90170000D03*
D16*
X116205000Y-87630000D03*
D15*
X113665000Y-92710000D03*
D14*
X111125000Y-87630000D03*
D19*
X123290000Y-90170000D03*
X110363000Y-92710000D03*
%TD*%
D14*
%TO.C,SW28*%
X177800000Y-68580000D03*
D15*
X179070000Y-66040000D03*
D16*
X182880000Y-68580000D03*
D15*
X185420000Y-63500000D03*
D14*
X187960000Y-68580000D03*
D17*
X175795000Y-66040000D03*
X188722000Y-63500000D03*
%TD*%
D14*
%TO.C,SW6*%
X139700000Y-30480000D03*
D15*
X140970000Y-27940000D03*
D16*
X144780000Y-30480000D03*
D15*
X147320000Y-25400000D03*
D14*
X149860000Y-30480000D03*
D17*
X137695000Y-27940000D03*
X150622000Y-25400000D03*
%TD*%
D23*
%TO.C,D2*%
X51305000Y-35560000D03*
X47755000Y-35560000D03*
%TD*%
%TO.C,D32*%
X98930000Y-82550000D03*
X95380000Y-82550000D03*
%TD*%
%TO.C,D34*%
X133480000Y-82550000D03*
X137030000Y-82550000D03*
%TD*%
%TO.C,D20*%
X219205000Y-54610000D03*
X222755000Y-54610000D03*
%TD*%
%TO.C,D30*%
X219205000Y-73660000D03*
X222755000Y-73660000D03*
%TD*%
%TO.C,D8*%
X181105000Y-35560000D03*
X184655000Y-35560000D03*
%TD*%
%TO.C,D4*%
X89405000Y-35560000D03*
X85855000Y-35560000D03*
%TD*%
%TO.C,D11*%
X32255000Y-54610000D03*
X28705000Y-54610000D03*
%TD*%
%TO.C,D7*%
X162055000Y-35560000D03*
X165605000Y-35560000D03*
%TD*%
%TO.C,D29*%
X200155000Y-73660000D03*
X203705000Y-73660000D03*
%TD*%
%TO.C,D3*%
X70355000Y-35560000D03*
X66805000Y-35560000D03*
%TD*%
%TO.C,D23*%
X70355000Y-73660000D03*
X66805000Y-73660000D03*
%TD*%
%TO.C,D27*%
X162055000Y-73660000D03*
X165605000Y-73660000D03*
%TD*%
%TO.C,D1*%
X32255000Y-35560000D03*
X28705000Y-35560000D03*
%TD*%
%TO.C,D9*%
X200155000Y-35560000D03*
X203705000Y-35560000D03*
%TD*%
%TO.C,D28*%
X181105000Y-73660000D03*
X184655000Y-73660000D03*
%TD*%
%TO.C,D16*%
X143005000Y-54610000D03*
X146555000Y-54610000D03*
%TD*%
%TO.C,D35*%
X152530000Y-82550000D03*
X156080000Y-82550000D03*
%TD*%
D24*
%TO.C,SW37*%
X122080000Y-22065000D03*
X122080000Y-24275000D03*
D25*
X124230000Y-23165000D03*
X127230000Y-23165000D03*
D24*
X129380000Y-22065000D03*
X129380000Y-24275000D03*
D26*
X123480000Y-24925000D03*
X126480000Y-24925000D03*
X127980000Y-24925000D03*
%TD*%
D23*
%TO.C,D18*%
X181105000Y-54610000D03*
X184655000Y-54610000D03*
%TD*%
%TO.C,D33*%
X117980000Y-82550000D03*
X114430000Y-82550000D03*
%TD*%
%TO.C,D6*%
X143005000Y-35560000D03*
X146555000Y-35560000D03*
%TD*%
%TO.C,D36*%
X171580000Y-82550000D03*
X175130000Y-82550000D03*
%TD*%
%TO.C,D17*%
X162055000Y-54610000D03*
X165605000Y-54610000D03*
%TD*%
%TO.C,D5*%
X108455000Y-35560000D03*
X104905000Y-35560000D03*
%TD*%
%TO.C,D21*%
X32255000Y-73660000D03*
X28705000Y-73660000D03*
%TD*%
%TO.C,D12*%
X51305000Y-54610000D03*
X47755000Y-54610000D03*
%TD*%
%TO.C,D10*%
X219205000Y-35560000D03*
X222755000Y-35560000D03*
%TD*%
%TO.C,D26*%
X143005000Y-73660000D03*
X146555000Y-73660000D03*
%TD*%
%TO.C,D25*%
X108455000Y-73660000D03*
X104905000Y-73660000D03*
%TD*%
%TO.C,D19*%
X200155000Y-54610000D03*
X203705000Y-54610000D03*
%TD*%
%TO.C,D13*%
X70355000Y-54610000D03*
X66805000Y-54610000D03*
%TD*%
%TO.C,D22*%
X51305000Y-73660000D03*
X47755000Y-73660000D03*
%TD*%
%TO.C,D15*%
X108455000Y-54610000D03*
X104905000Y-54610000D03*
%TD*%
%TO.C,D14*%
X89405000Y-54610000D03*
X85855000Y-54610000D03*
%TD*%
%TO.C,D31*%
X79880000Y-82550000D03*
X76330000Y-82550000D03*
%TD*%
%TO.C,D24*%
X89405000Y-73660000D03*
X85855000Y-73660000D03*
%TD*%
%LPD*%
M02*
