%TF.GenerationSoftware,KiCad,Pcbnew,6.0.2+dfsg-1*%
%TF.CreationDate,2023-04-19T19:36:36+02:00*%
%TF.ProjectId,lancer-top-plate,6c616e63-6572-42d7-946f-702d706c6174,rev?*%
%TF.SameCoordinates,Original*%
%TF.FileFunction,Profile,NP*%
%FSLAX46Y46*%
G04 Gerber Fmt 4.6, Leading zero omitted, Abs format (unit mm)*
G04 Created by KiCad (PCBNEW 6.0.2+dfsg-1) date 2023-04-19 19:36:36*
%MOMM*%
%LPD*%
G01*
G04 APERTURE LIST*
%TA.AperFunction,Profile*%
%ADD10C,0.200000*%
%TD*%
%TA.AperFunction,Profile*%
%ADD11C,0.120000*%
%TD*%
G04 APERTURE END LIST*
D10*
X40005001Y-97155001D02*
G75*
G03*
X41275001Y-98425001I1269999J-1D01*
G01*
X200660001Y-117475001D02*
X88900001Y-117475001D01*
X248285001Y-98425001D02*
X220762103Y-98425001D01*
X200660001Y-117475001D02*
G75*
G03*
X201558027Y-117103027I-1J1270003D01*
G01*
X41275001Y-41275001D02*
X133985001Y-41275001D01*
X69695924Y-98796975D02*
G75*
G03*
X68797899Y-98425001I-898025J-898025D01*
G01*
X249555001Y-42545001D02*
X249555001Y-97155001D01*
X136525001Y-98425001D02*
X153035001Y-98425001D01*
X135255001Y-42545001D02*
G75*
G03*
X133985001Y-41275001I-1269999J1D01*
G01*
X88001975Y-117103027D02*
G75*
G03*
X88900001Y-117475001I898027J898029D01*
G01*
X249555001Y-42545001D02*
G75*
G03*
X248285001Y-41275001I-1269999J1D01*
G01*
X40005001Y-97155001D02*
X40005001Y-42545001D01*
X88001975Y-117103027D02*
X69695924Y-98796975D01*
X135255001Y-42545001D02*
X135255001Y-97155001D01*
X68797899Y-98425001D02*
X41275001Y-98425001D01*
X155575001Y-41275001D02*
X248285001Y-41275001D01*
X135255001Y-97155001D02*
G75*
G03*
X136525001Y-98425001I1269999J-1D01*
G01*
X248285001Y-98425001D02*
G75*
G03*
X249555001Y-97155001I1J1269999D01*
G01*
X41275001Y-41275001D02*
G75*
G03*
X40005001Y-42545001I-1J-1269999D01*
G01*
X220762103Y-98425001D02*
G75*
G03*
X219864078Y-98796975I0J-1269999D01*
G01*
X219864078Y-98796975D02*
X201558027Y-117103027D01*
X155575001Y-41275001D02*
G75*
G03*
X154305001Y-42545001I-1J-1269999D01*
G01*
X153035001Y-98425001D02*
G75*
G03*
X154305001Y-97155001I1J1269999D01*
G01*
X154305001Y-97155001D02*
X154305001Y-42545001D01*
D11*
%TO.C,H18*%
X208930000Y-76850000D02*
X194930000Y-76850000D01*
X194930000Y-76850000D02*
X194930000Y-62850000D01*
X194930000Y-62850000D02*
X208930000Y-62850000D01*
X208930000Y-62850000D02*
X208930000Y-76850000D01*
%TO.C,H28*%
X208930000Y-95900000D02*
X194930000Y-95900000D01*
X194930000Y-95900000D02*
X194930000Y-81900000D01*
X194930000Y-81900000D02*
X208930000Y-81900000D01*
X208930000Y-81900000D02*
X208930000Y-95900000D01*
%TO.C,H15*%
X132730000Y-76850000D02*
X118730000Y-76850000D01*
X118730000Y-76850000D02*
X118730000Y-62850000D01*
X118730000Y-62850000D02*
X132730000Y-62850000D01*
X132730000Y-62850000D02*
X132730000Y-76850000D01*
%TO.C,H34*%
X161305000Y-114950000D02*
X147305000Y-114950000D01*
X147305000Y-114950000D02*
X147305000Y-100950000D01*
X147305000Y-100950000D02*
X161305000Y-100950000D01*
X161305000Y-100950000D02*
X161305000Y-114950000D01*
%TO.C,H19*%
X227980000Y-76850000D02*
X213980000Y-76850000D01*
X213980000Y-76850000D02*
X213980000Y-62850000D01*
X213980000Y-62850000D02*
X227980000Y-62850000D01*
X227980000Y-62850000D02*
X227980000Y-76850000D01*
%TO.C,H23*%
X94630000Y-95900000D02*
X80630000Y-95900000D01*
X80630000Y-95900000D02*
X80630000Y-81900000D01*
X80630000Y-81900000D02*
X94630000Y-81900000D01*
X94630000Y-81900000D02*
X94630000Y-95900000D01*
%TO.C,H26*%
X170830000Y-95900000D02*
X156830000Y-95900000D01*
X156830000Y-95900000D02*
X156830000Y-81900000D01*
X156830000Y-81900000D02*
X170830000Y-81900000D01*
X170830000Y-81900000D02*
X170830000Y-95900000D01*
%TO.C,H1*%
X56530000Y-57800000D02*
X42530000Y-57800000D01*
X42530000Y-57800000D02*
X42530000Y-43800000D01*
X42530000Y-43800000D02*
X56530000Y-43800000D01*
X56530000Y-43800000D02*
X56530000Y-57800000D01*
%TO.C,H5*%
X132730000Y-57800000D02*
X118730000Y-57800000D01*
X118730000Y-57800000D02*
X118730000Y-43800000D01*
X118730000Y-43800000D02*
X132730000Y-43800000D01*
X132730000Y-43800000D02*
X132730000Y-57800000D01*
%TO.C,H9*%
X227980000Y-57800000D02*
X213980000Y-57800000D01*
X213980000Y-57800000D02*
X213980000Y-43800000D01*
X213980000Y-43800000D02*
X227980000Y-43800000D01*
X227980000Y-43800000D02*
X227980000Y-57800000D01*
%TO.C,H11*%
X56530000Y-76850000D02*
X42530000Y-76850000D01*
X42530000Y-76850000D02*
X42530000Y-62850000D01*
X42530000Y-62850000D02*
X56530000Y-62850000D01*
X56530000Y-62850000D02*
X56530000Y-76850000D01*
%TO.C,H31*%
X104155000Y-114950000D02*
X90155000Y-114950000D01*
X90155000Y-114950000D02*
X90155000Y-100950000D01*
X90155000Y-100950000D02*
X104155000Y-100950000D01*
X104155000Y-100950000D02*
X104155000Y-114950000D01*
%TO.C,H10*%
X247030000Y-57800000D02*
X233030000Y-57800000D01*
X233030000Y-57800000D02*
X233030000Y-43800000D01*
X233030000Y-43800000D02*
X247030000Y-43800000D01*
X247030000Y-43800000D02*
X247030000Y-57800000D01*
%TO.C,H17*%
X189880000Y-76850000D02*
X175880000Y-76850000D01*
X175880000Y-76850000D02*
X175880000Y-62850000D01*
X175880000Y-62850000D02*
X189880000Y-62850000D01*
X189880000Y-62850000D02*
X189880000Y-76850000D01*
%TO.C,H2*%
X75580000Y-57800000D02*
X61580000Y-57800000D01*
X61580000Y-57800000D02*
X61580000Y-43800000D01*
X61580000Y-43800000D02*
X75580000Y-43800000D01*
X75580000Y-43800000D02*
X75580000Y-57800000D01*
%TO.C,H32*%
X123205000Y-114950000D02*
X109205000Y-114950000D01*
X109205000Y-114950000D02*
X109205000Y-100950000D01*
X109205000Y-100950000D02*
X123205000Y-100950000D01*
X123205000Y-100950000D02*
X123205000Y-114950000D01*
%TO.C,H30*%
X247030000Y-95900000D02*
X233030000Y-95900000D01*
X233030000Y-95900000D02*
X233030000Y-81900000D01*
X233030000Y-81900000D02*
X247030000Y-81900000D01*
X247030000Y-81900000D02*
X247030000Y-95900000D01*
%TO.C,H20*%
X247030000Y-76850000D02*
X233030000Y-76850000D01*
X233030000Y-76850000D02*
X233030000Y-62850000D01*
X233030000Y-62850000D02*
X247030000Y-62850000D01*
X247030000Y-62850000D02*
X247030000Y-76850000D01*
%TO.C,H27*%
X189880000Y-95900000D02*
X175880000Y-95900000D01*
X175880000Y-95900000D02*
X175880000Y-81900000D01*
X175880000Y-81900000D02*
X189880000Y-81900000D01*
X189880000Y-81900000D02*
X189880000Y-95900000D01*
%TO.C,H8*%
X208930000Y-57800000D02*
X194930000Y-57800000D01*
X194930000Y-57800000D02*
X194930000Y-43800000D01*
X194930000Y-43800000D02*
X208930000Y-43800000D01*
X208930000Y-43800000D02*
X208930000Y-57800000D01*
%TO.C,H36*%
X199405000Y-114950000D02*
X185405000Y-114950000D01*
X185405000Y-114950000D02*
X185405000Y-100950000D01*
X185405000Y-100950000D02*
X199405000Y-100950000D01*
X199405000Y-100950000D02*
X199405000Y-114950000D01*
%TO.C,H29*%
X227980000Y-95900000D02*
X213980000Y-95900000D01*
X213980000Y-95900000D02*
X213980000Y-81900000D01*
X213980000Y-81900000D02*
X227980000Y-81900000D01*
X227980000Y-81900000D02*
X227980000Y-95900000D01*
%TO.C,H14*%
X113680000Y-76850000D02*
X99680000Y-76850000D01*
X99680000Y-76850000D02*
X99680000Y-62850000D01*
X99680000Y-62850000D02*
X113680000Y-62850000D01*
X113680000Y-62850000D02*
X113680000Y-76850000D01*
%TO.C,H35*%
X180355000Y-114950000D02*
X166355000Y-114950000D01*
X166355000Y-114950000D02*
X166355000Y-100950000D01*
X166355000Y-100950000D02*
X180355000Y-100950000D01*
X180355000Y-100950000D02*
X180355000Y-114950000D01*
%TO.C,H24*%
X113680000Y-95900000D02*
X99680000Y-95900000D01*
X99680000Y-95900000D02*
X99680000Y-81900000D01*
X99680000Y-81900000D02*
X113680000Y-81900000D01*
X113680000Y-81900000D02*
X113680000Y-95900000D01*
%TO.C,H3*%
X94630000Y-57800000D02*
X80630000Y-57800000D01*
X80630000Y-57800000D02*
X80630000Y-43800000D01*
X80630000Y-43800000D02*
X94630000Y-43800000D01*
X94630000Y-43800000D02*
X94630000Y-57800000D01*
%TO.C,H4*%
X113680000Y-57800000D02*
X99680000Y-57800000D01*
X99680000Y-57800000D02*
X99680000Y-43800000D01*
X99680000Y-43800000D02*
X113680000Y-43800000D01*
X113680000Y-43800000D02*
X113680000Y-57800000D01*
%TO.C,H7*%
X189880000Y-57800000D02*
X175880000Y-57800000D01*
X175880000Y-57800000D02*
X175880000Y-43800000D01*
X175880000Y-43800000D02*
X189880000Y-43800000D01*
X189880000Y-43800000D02*
X189880000Y-57800000D01*
%TO.C,H33*%
X142255000Y-114950000D02*
X128255000Y-114950000D01*
X128255000Y-114950000D02*
X128255000Y-100950000D01*
X128255000Y-100950000D02*
X142255000Y-100950000D01*
X142255000Y-100950000D02*
X142255000Y-114950000D01*
%TO.C,H25*%
X132730000Y-95900000D02*
X118730000Y-95900000D01*
X118730000Y-95900000D02*
X118730000Y-81900000D01*
X118730000Y-81900000D02*
X132730000Y-81900000D01*
X132730000Y-81900000D02*
X132730000Y-95900000D01*
%TO.C,H6*%
X170830000Y-57800000D02*
X156830000Y-57800000D01*
X156830000Y-57800000D02*
X156830000Y-43800000D01*
X156830000Y-43800000D02*
X170830000Y-43800000D01*
X170830000Y-43800000D02*
X170830000Y-57800000D01*
%TO.C,H13*%
X94630000Y-76850000D02*
X80630000Y-76850000D01*
X80630000Y-76850000D02*
X80630000Y-62850000D01*
X80630000Y-62850000D02*
X94630000Y-62850000D01*
X94630000Y-62850000D02*
X94630000Y-76850000D01*
%TO.C,H12*%
X75580000Y-76850000D02*
X61580000Y-76850000D01*
X61580000Y-76850000D02*
X61580000Y-62850000D01*
X61580000Y-62850000D02*
X75580000Y-62850000D01*
X75580000Y-62850000D02*
X75580000Y-76850000D01*
%TO.C,H16*%
X170830000Y-76850000D02*
X156830000Y-76850000D01*
X156830000Y-76850000D02*
X156830000Y-62850000D01*
X156830000Y-62850000D02*
X170830000Y-62850000D01*
X170830000Y-62850000D02*
X170830000Y-76850000D01*
%TO.C,H22*%
X75580000Y-95900000D02*
X61580000Y-95900000D01*
X61580000Y-95900000D02*
X61580000Y-81900000D01*
X61580000Y-81900000D02*
X75580000Y-81900000D01*
X75580000Y-81900000D02*
X75580000Y-95900000D01*
%TO.C,H21*%
X56530000Y-95900000D02*
X42530000Y-95900000D01*
X42530000Y-95900000D02*
X42530000Y-81900000D01*
X42530000Y-81900000D02*
X56530000Y-81900000D01*
X56530000Y-81900000D02*
X56530000Y-95900000D01*
%TD*%
M02*
